<svg width="24" height="24" viewBox="0 0 24 24" fill="none" xmlns="http://www.w3.org/2000/svg">
<path d="M20.75 5C20.75 4.58579 20.4142 4.25 20 4.25C19.5858 4.25 19.25 4.58579 19.25 5V19C19.25 19.4142 19.5858 19.75 20 19.75C20.4142 19.75 20.75 19.4142 20.75 19V5Z" fill="white"/>
<path d="M7.96961 5.46967C8.26251 5.17678 8.73738 5.17678 9.03027 5.46967C9.32317 5.76256 9.32317 6.23744 9.03027 6.53033L4.31066 11.2499H16C16.4142 11.2499 16.75 11.5857 16.75 11.9999C16.75 12.4142 16.4142 12.7499 16 12.7499H4.31066L9.03033 17.4696C9.32322 17.7625 9.32322 18.2374 9.03033 18.5303C8.73744 18.8232 8.26256 18.8232 7.96967 18.5303L1.96967 12.5303C1.67678 12.2374 1.67678 11.7625 1.96967 11.4696L7.96961 5.46967Z" fill="white"/>
</svg>
