<svg width="24" height="24" viewBox="0 0 24 24" fill="none" xmlns="http://www.w3.org/2000/svg">
<path fill-rule="evenodd" clip-rule="evenodd" d="M4.53021 3.46967C4.23732 3.17678 3.76244 3.17678 3.46955 3.46967C3.17666 3.76256 3.17666 4.23744 3.46955 4.53033L5.51115 6.57192C4.92934 7.02373 4.41118 7.50564 3.95678 7.98276C3.08177 8.90152 2.42755 9.81781 1.99172 10.5042C1.77337 10.8482 1.60863 11.1363 1.49737 11.3407C1.44171 11.443 1.39934 11.5245 1.37026 11.5817C1.35572 11.6104 1.34449 11.633 1.33657 11.6491L1.32717 11.6683L1.32433 11.6742L1.32338 11.6762C1.32323 11.6765 1.32274 11.6776 1.99988 12L1.32274 11.6776L1.16919 12L1.32274 12.3225L1.99988 12C1.32274 12.3225 1.32259 12.3221 1.32274 12.3225L1.32338 12.3238L1.32433 12.3258L1.32717 12.3317L1.33657 12.3509C1.34449 12.367 1.35572 12.3896 1.37026 12.4183C1.39934 12.4755 1.44171 12.557 1.49737 12.6593C1.60863 12.8637 1.77337 13.1518 1.99172 13.4958C2.42755 14.1822 3.08177 15.0985 3.95678 16.0172C5.70072 17.8484 8.38374 19.75 11.9999 19.75C14.0398 19.75 15.7828 19.1448 17.2278 18.2886L19.4696 20.5303C19.7624 20.8232 20.2373 20.8232 20.5302 20.5303C20.8231 20.2374 20.8231 19.7626 20.5302 19.4697L4.53021 3.46967ZM16.1275 17.1883L14.4278 15.4886C13.7396 15.9686 12.9026 16.25 11.9999 16.25C9.65264 16.25 7.74985 14.3472 7.74985 12C7.74985 11.0973 8.0313 10.2603 8.51122 9.572L6.58094 7.64172C6.00899 8.07084 5.49638 8.54118 5.04299 9.01724C4.25133 9.84848 3.65554 10.6822 3.25804 11.3083C3.08019 11.5884 2.94299 11.8254 2.84655 12C2.94299 12.1746 3.08019 12.4116 3.25804 12.6917C3.65554 13.3178 4.25133 14.1515 5.04299 14.9828C6.63238 16.6516 8.94936 18.25 11.9999 18.25C13.5698 18.25 14.9454 17.8267 16.1275 17.1883ZM9.59834 10.6591C9.37638 11.0558 9.24985 11.5131 9.24985 12C9.24985 13.5188 10.4811 14.75 11.9999 14.75C12.4867 14.75 12.944 14.6235 13.3407 14.4015L9.59834 10.6591Z" fill="white"/>
<path fill-rule="evenodd" clip-rule="evenodd" d="M20.043 16.0172C19.9086 16.1584 19.7685 16.3 19.623 16.4411L18.5622 15.3803C18.6984 15.2488 18.8299 15.116 18.9568 14.9828C19.7484 14.1515 20.3442 13.3178 20.7417 12.6917C20.9196 12.4116 21.0568 12.1746 21.1532 12C21.0568 11.8254 20.9196 11.5884 20.7417 11.3083C20.3442 10.6822 19.7484 9.84848 18.9568 9.01724C17.3674 7.34838 15.0504 5.75 11.9999 5.75C11.0462 5.75 10.1643 5.90621 9.35385 6.17194L8.18627 5.00436C9.31456 4.54076 10.5859 4.25 11.9999 4.25C15.616 4.25 18.299 6.15162 20.043 7.98276C20.918 8.90152 21.5722 9.81781 22.008 10.5042C22.2264 10.8482 22.3911 11.1363 22.5024 11.3407C22.5581 11.443 22.6004 11.5245 22.6295 11.5817C22.644 11.6104 22.6553 11.633 22.6632 11.6491L22.6726 11.6683L22.6754 11.6742L22.6764 11.6762C22.6765 11.6765 22.677 11.6776 21.9999 12C22.677 12.3225 22.6769 12.3227 22.6767 12.323L22.6754 12.3258L22.6726 12.3317L22.6632 12.3509C22.6553 12.367 22.644 12.3896 22.6295 12.4183C22.6004 12.4755 22.5581 12.557 22.5024 12.6593C22.3911 12.8637 22.2264 13.1518 22.008 13.4958C21.5722 14.1822 20.918 15.0985 20.043 16.0172ZM21.9999 12L22.677 11.6776L22.8306 12L22.6767 12.323L21.9999 12Z" fill="white"/>
<path d="M16.2499 12C16.2499 12.3299 16.2123 12.651 16.1412 12.9592L14.7094 11.5275C14.512 10.3874 13.6125 9.48786 12.4723 9.29044L11.0406 7.8587C11.3489 7.78758 11.67 7.75 11.9999 7.75C14.3471 7.75 16.2499 9.65279 16.2499 12Z" fill="white"/>
</svg>
