<svg width="24" height="24" viewBox="0 0 24 24" fill="none" xmlns="http://www.w3.org/2000/svg">
<path d="M17.9724 3.70379C19.7402 4.88502 21.1181 6.56394 21.9317 8.52824C22.7454 10.4925 22.9582 12.654 22.5434 14.7393C22.1287 16.8246 21.1048 18.7401 19.6014 20.2435C19.3085 20.5364 18.8336 20.5364 18.5407 20.2435C18.2478 19.9506 18.2478 19.4757 18.5407 19.1828C19.8344 17.8892 20.7154 16.241 21.0723 14.4467C21.4292 12.6524 21.246 10.7925 20.5459 9.10227C19.8458 7.41205 18.6602 5.9674 17.139 4.951C15.6179 3.93459 13.8295 3.39209 12 3.39209C10.1705 3.39209 8.38213 3.93459 6.86098 4.951C5.33982 5.9674 4.15423 7.41205 3.45412 9.10227C2.75401 10.7925 2.57083 12.6524 2.92774 14.4467C3.28465 16.241 4.16563 17.8892 5.45927 19.1828C5.75216 19.4757 5.75216 19.9506 5.45927 20.2435C5.16637 20.5364 4.6915 20.5364 4.39861 20.2435C2.89519 18.7401 1.87135 16.8246 1.45656 14.7393C1.04177 12.654 1.25466 10.4925 2.0683 8.52824C2.88194 6.56394 4.2598 4.88502 6.02762 3.70379C7.79545 2.52257 9.87385 1.89209 12 1.89209C14.1262 1.89209 16.2046 2.52257 17.9724 3.70379Z" fill="white"/>
<path d="M14 13C14 14.1045 13.1046 15 12 15C10.8954 15 10 14.1045 10 13C10 11.8954 10.8954 11 12 11C12.2771 11 12.5411 11.0563 12.7811 11.1582L15.4697 8.46962C15.7626 8.17673 16.2374 8.17673 16.5303 8.46962C16.8232 8.76252 16.8232 9.23739 16.5303 9.53028L13.8417 12.2189C13.9436 12.4588 14 12.7228 14 13Z" fill="white"/>
</svg>
