<svg width="24" height="24" viewBox="0 0 24 24" fill="none" xmlns="http://www.w3.org/2000/svg">
<path d="M2.46855 4.41438C2.1451 4.15562 1.67313 4.20806 1.41438 4.53151C1.15562 4.85495 1.20806 5.32692 1.53151 5.58568L11.5315 13.5857C11.8054 13.8048 12.1946 13.8048 12.4685 13.5857L22.4685 5.58568C22.792 5.32692 22.8444 4.85495 22.5857 4.53151C22.3269 4.20806 21.855 4.15562 21.5315 4.41438L12 12.0396L2.46855 4.41438Z" fill="white"/>
<path d="M2.46855 10.4144C2.1451 10.1556 1.67313 10.2081 1.41438 10.5315C1.15562 10.855 1.20806 11.3269 1.53151 11.5857L11.5315 19.5857C11.8054 19.8048 12.1946 19.8048 12.4685 19.5857L22.4685 11.5857C22.792 11.3269 22.8444 10.855 22.5857 10.5315C22.3269 10.2081 21.855 10.1556 21.5315 10.4144L12 18.0396L2.46855 10.4144Z" fill="white"/>
</svg>
