<svg width="24" height="24" viewBox="0 0 24 24" fill="none" xmlns="http://www.w3.org/2000/svg">
<path fill-rule="evenodd" clip-rule="evenodd" d="M12 1.25C8.82436 1.25 6.25 3.82436 6.25 7V9.25H4.5C3.5335 9.25 2.75 10.0335 2.75 11V20.5C2.75 21.4665 3.5335 22.25 4.5 22.25H19.5C20.4665 22.25 21.25 21.4665 21.25 20.5V11C21.25 10.0335 20.4665 9.25 19.5 9.25H17.75V7C17.75 3.82436 15.1756 1.25 12 1.25ZM16.25 9.25V7C16.25 4.65279 14.3472 2.75 12 2.75C9.65279 2.75 7.75 4.65279 7.75 7V9.25H16.25ZM15.9982 12.9394C16.3078 13.2146 16.3357 13.6887 16.0605 13.9983L12.0606 18.4983C11.9233 18.6527 11.7285 18.7436 11.522 18.7497C11.3156 18.7557 11.1157 18.6764 10.9697 18.5303L8.96962 16.5303C8.67672 16.2374 8.67671 15.7626 8.9696 15.4697C9.26249 15.1768 9.73736 15.1768 10.0303 15.4697L11.4679 16.9072L14.9393 13.0017C15.2145 12.6921 15.6886 12.6643 15.9982 12.9394Z" fill="white"/>
</svg>
