<svg width="24" height="24" viewBox="0 0 24 24" fill="none" xmlns="http://www.w3.org/2000/svg">
<path d="M8.5 9V11.25H10V9H11.5V15H10V12.75H8.5V15H7V9H8.5Z" fill="white"/>
<path fill-rule="evenodd" clip-rule="evenodd" d="M12.5 9H15C16.1046 9 17 9.89543 17 11V13C17 14.1046 16.1046 15 15 15H12.5V9ZM14 10.5V13.5H15C15.2761 13.5 15.5 13.2761 15.5 13V11C15.5 10.7239 15.2761 10.5 15 10.5H14Z" fill="white"/>
<path fill-rule="evenodd" clip-rule="evenodd" d="M4 2.25C3.0335 2.25 2.25 3.0335 2.25 4V20C2.25 20.9665 3.0335 21.75 4 21.75H20C20.9665 21.75 21.75 20.9665 21.75 20V4C21.75 3.0335 20.9665 2.25 20 2.25H4ZM3.75 4C3.75 3.86193 3.86193 3.75 4 3.75H20C20.1381 3.75 20.25 3.86193 20.25 4V20C20.25 20.1381 20.1381 20.25 20 20.25H4C3.86193 20.25 3.75 20.1381 3.75 20V4Z" fill="white"/>
</svg>
