<svg width="24" height="24" viewBox="0 0 24 24" fill="none" xmlns="http://www.w3.org/2000/svg">
<path d="M10.5 10.75C10.0858 10.75 9.75 11.0858 9.75 11.5C9.75 11.9142 10.0858 12.25 10.5 12.25H13.5C13.9142 12.25 14.25 11.9142 14.25 11.5C14.25 11.0858 13.9142 10.75 13.5 10.75H10.5Z" fill="white"/>
<path fill-rule="evenodd" clip-rule="evenodd" d="M12 1.75C6.61522 1.75 2.25 6.11522 2.25 11.5C2.25 16.8848 6.61522 21.25 12 21.25C13.5578 21.25 15.0322 20.8841 16.3399 20.2331L20.3181 21.2276C20.5634 21.2889 20.823 21.2226 21.0087 21.0511C21.1945 20.8796 21.2814 20.6261 21.2398 20.3767L20.5438 16.2009C21.3127 14.8062 21.75 13.2031 21.75 11.5C21.75 6.11522 17.3848 1.75 12 1.75ZM3.75 11.5C3.75 6.94365 7.44365 3.25 12 3.25C16.5563 3.25 20.25 6.94365 20.25 11.5C20.25 13.0271 19.8358 14.4553 19.114 15.6806C19.0246 15.8324 18.9915 16.0108 19.0204 16.1845L19.5721 19.495L16.4291 18.7092C16.2483 18.664 16.0571 18.6877 15.8928 18.7758C14.734 19.3972 13.4093 19.75 12 19.75C7.44365 19.75 3.75 16.0563 3.75 11.5Z" fill="white"/>
</svg>
