<svg width="24" height="24" viewBox="0 0 24 24" fill="none" xmlns="http://www.w3.org/2000/svg">
<path d="M18 13.25C18.4142 13.25 18.75 13.5858 18.75 14V16.9639H22C22.4141 16.9639 22.7498 17.2998 22.75 17.7139C22.75 18.1281 22.4142 18.4639 22 18.4639H18.75V22C18.75 22.4142 18.4142 22.75 18 22.75C17.5858 22.75 17.25 22.4142 17.25 22V18.4639H14C13.5858 18.4639 13.25 18.1281 13.25 17.7139C13.2502 17.2998 13.5859 16.9639 14 16.9639H17.25V14C17.25 13.5858 17.5858 13.25 18 13.25ZM17.625 1.25C18.0392 1.25 18.375 1.58579 18.375 2V4.10254H20C20.9664 4.10254 21.7498 4.88623 21.75 5.85254V12C21.75 12.4142 21.4142 12.75 21 12.75C20.5858 12.75 20.25 12.4142 20.25 12V10.5732H3.75V20C3.75 20.1381 3.86193 20.25 4 20.25H12C12.4142 20.25 12.75 20.5858 12.75 21C12.75 21.4142 12.4142 21.75 12 21.75H4C3.0335 21.75 2.25 20.9665 2.25 20V5.85254C2.25022 4.88623 3.03363 4.10254 4 4.10254H5.625V2C5.625 1.58579 5.96079 1.25 6.375 1.25C6.78921 1.25 7.125 1.58579 7.125 2V4.10254H16.875V2C16.875 1.58579 17.2108 1.25 17.625 1.25ZM4 5.60254C3.86206 5.60254 3.75022 5.71465 3.75 5.85254V9.07324H20.25V5.85254C20.2498 5.71465 20.1379 5.60254 20 5.60254H4Z" fill="white"/>
</svg>
