<svg width="24" height="24" viewBox="0 0 24 24" fill="none" xmlns="http://www.w3.org/2000/svg">
<path fill-rule="evenodd" clip-rule="evenodd" d="M6.53033 2.96967C6.82322 3.26256 6.82322 3.73744 6.53033 4.03033L4.81066 5.75H15C18.7279 5.75 21.75 8.77208 21.75 12.5C21.75 16.2279 18.7279 19.25 15 19.25H3C2.58579 19.25 2.25 18.9142 2.25 18.5C2.25 18.0858 2.58579 17.75 3 17.75H15C17.8995 17.75 20.25 15.3995 20.25 12.5C20.25 9.6005 17.8995 7.25 15 7.25H4.81066L6.53033 8.96967C6.82322 9.26256 6.82322 9.73744 6.53033 10.0303C6.23744 10.3232 5.76256 10.3232 5.46967 10.0303L2.46974 7.0304C2.17684 6.7375 2.17678 6.26256 2.46967 5.96967L5.46967 2.96967C5.76256 2.67678 6.23744 2.67678 6.53033 2.96967Z" fill="white"/>
</svg>
