<svg width="24" height="24" viewBox="0 0 24 24" fill="none" xmlns="http://www.w3.org/2000/svg">
<path fill-rule="evenodd" clip-rule="evenodd" d="M2.25 4C2.25 3.0335 3.0335 2.25 4 2.25H20C20.9665 2.25 21.75 3.0335 21.75 4V14.056C21.0213 13.8906 20.2264 14.0916 19.659 14.659L18.75 15.568L17.841 14.659C16.9623 13.7803 15.5377 13.7803 14.659 14.659C13.7803 15.5377 13.7803 16.9623 14.659 17.841L15.568 18.75L14.659 19.659C14.0917 20.2264 13.8906 21.0213 14.056 21.75H4C3.0335 21.75 2.25 20.9665 2.25 20V4ZM5.75 14.5C5.75 14.0858 6.08579 13.75 6.5 13.75H9.5C9.91421 13.75 10.25 14.0858 10.25 14.5C10.25 14.9142 9.91421 15.25 9.5 15.25H6.5C6.08579 15.25 5.75 14.9142 5.75 14.5ZM5.75 17.5C5.75 17.0858 6.08579 16.75 6.5 16.75H11.5C11.9142 16.75 12.25 17.0858 12.25 17.5C12.25 17.9142 11.9142 18.25 11.5 18.25H6.5C6.08579 18.25 5.75 17.9142 5.75 17.5Z" fill="white"/>
<path d="M16.7803 15.7197C16.4874 15.4268 16.0126 15.4268 15.7197 15.7197C15.4268 16.0126 15.4268 16.4874 15.7197 16.7803L17.6893 18.75L15.7197 20.7197C15.4268 21.0126 15.4268 21.4874 15.7197 21.7803C16.0126 22.0732 16.4874 22.0732 16.7803 21.7803L18.75 19.8107L20.7197 21.7803C21.0126 22.0732 21.4874 22.0732 21.7803 21.7803C22.0732 21.4874 22.0732 21.0126 21.7803 20.7197L19.8107 18.75L21.7803 16.7803C22.0732 16.4874 22.0732 16.0126 21.7803 15.7197C21.4874 15.4268 21.0126 15.4268 20.7197 15.7197L18.75 17.6893L16.7803 15.7197Z" fill="white"/>
</svg>
