<svg width="24" height="24" viewBox="0 0 24 24" fill="none" xmlns="http://www.w3.org/2000/svg">
<path fill-rule="evenodd" clip-rule="evenodd" d="M9 4.25C5.54822 4.25 2.75 7.04822 2.75 10.5C2.75 13.9518 5.54822 16.75 9 16.75H13.0475L16.75 19.8829V16.5242L17.2321 16.3399C19.5827 15.4408 21.25 13.1642 21.25 10.5C21.25 7.04822 18.4518 4.25 15 4.25H9ZM1.25 10.5C1.25 6.21979 4.71979 2.75 9 2.75H15C19.2802 2.75 22.75 6.21979 22.75 10.5C22.75 13.6207 20.9058 16.309 18.25 17.5375V20.4219C18.25 21.4861 17.0049 22.0636 16.1925 21.3762L12.498 18.25H9C4.71979 18.25 1.25 14.7802 1.25 10.5Z" fill="white"/>
</svg>
