<svg width="24" height="24" viewBox="0 0 24 24" fill="none" xmlns="http://www.w3.org/2000/svg">
<path d="M6.75 5C6.75 4.58579 6.41421 4.25 6 4.25C5.58579 4.25 5.25 4.58579 5.25 5V9C5.25 12.1756 7.82436 14.75 11 14.75H17.1893L13.4697 18.4697C13.1768 18.7626 13.1768 19.2374 13.4697 19.5303C13.7626 19.8232 14.2374 19.8232 14.5303 19.5303L20.0607 14L14.5303 8.46967C14.2374 8.17678 13.7626 8.17678 13.4697 8.46967C13.1768 8.76256 13.1768 9.23744 13.4697 9.53033L17.1893 13.25H11C8.65279 13.25 6.75 11.3472 6.75 9V5Z" fill="white"/>
</svg>
