<svg width="24" height="24" viewBox="0 0 24 24" fill="none" xmlns="http://www.w3.org/2000/svg">
<path d="M8.77521 5.59319L7.54107 4.35904C8.20914 2.54432 9.95342 1.25 12 1.25C14.6234 1.25 16.75 3.37665 16.75 6V11.5C16.75 12.114 16.6335 12.7007 16.4214 13.2394L15.2077 12.0257C15.2355 11.8546 15.25 11.679 15.25 11.5V6C15.25 4.20507 13.7949 2.75 12 2.75C10.3428 2.75 8.97538 3.99027 8.77521 5.59319Z" fill="white"/>
<path fill-rule="evenodd" clip-rule="evenodd" d="M7.25 8.31066V11.5C7.25 14.1234 9.37665 16.25 12 16.25C12.9118 16.25 13.7636 15.9931 14.487 15.5477L15.57 16.6307C14.558 17.3363 13.3273 17.75 12 17.75C8.54822 17.75 5.75 14.9518 5.75 11.5V10.5C5.75 10.0858 5.41421 9.75 5 9.75C4.58579 9.75 4.25 10.0858 4.25 10.5V11.5C4.25 15.5272 7.3217 18.837 11.25 19.2142V22C11.25 22.4142 11.5858 22.75 12 22.75C12.4142 22.75 12.75 22.4142 12.75 22V19.2142C14.2025 19.0747 15.5379 18.5343 16.6442 17.7049L19.4697 20.5303C19.7626 20.8232 20.2374 20.8232 20.5303 20.5303C20.8232 20.2374 20.8232 19.7626 20.5303 19.4697L4.53033 3.46967C4.23744 3.17678 3.76256 3.17678 3.46967 3.46967C3.17678 3.76256 3.17678 4.23744 3.46967 4.53033L7.25 8.31066ZM13.3818 14.4425L8.75 9.81066V11.5C8.75 13.2949 10.2051 14.75 12 14.75C12.4941 14.75 12.9625 14.6397 13.3818 14.4425Z" fill="white"/>
<path d="M17.553 14.371L18.6553 15.4733C19.3505 14.3115 19.75 12.9524 19.75 11.5V10.5C19.75 10.0858 19.4142 9.75 19 9.75C18.5858 9.75 18.25 10.0858 18.25 10.5V11.5C18.25 12.535 17.9984 13.5113 17.553 14.371Z" fill="white"/>
</svg>
