<svg width="24" height="24" viewBox="0 0 24 24" fill="none" xmlns="http://www.w3.org/2000/svg">
<path fill-rule="evenodd" clip-rule="evenodd" d="M6.375 1.25C6.78921 1.25 7.125 1.58579 7.125 2V4.10294H16.875V2C16.875 1.58579 17.2108 1.25 17.625 1.25C18.0392 1.25 18.375 1.58579 18.375 2V4.10294H20C20.9665 4.10294 21.75 4.88644 21.75 5.85294V20C21.75 20.9665 20.9665 21.75 20 21.75H4C3.0335 21.75 2.25 20.9665 2.25 20V5.85294C2.25 4.88645 3.0335 4.10294 4 4.10294H5.625V2C5.625 1.58579 5.96079 1.25 6.375 1.25ZM4 5.60294C3.86193 5.60294 3.75 5.71487 3.75 5.85294V9.07353H20.25V5.85294C20.25 5.71487 20.1381 5.60294 20 5.60294H4ZM20.25 10.5735H3.75V20C3.75 20.1381 3.86193 20.25 4 20.25H20C20.1381 20.25 20.25 20.1381 20.25 20V10.5735Z" fill="white"/>
</svg>
