<svg width="24" height="24" viewBox="0 0 24 24" fill="none" xmlns="http://www.w3.org/2000/svg">
<path d="M5.45926 4.39863C5.75216 4.69152 5.75216 5.16639 5.45926 5.45929C4.60032 6.31823 3.91897 7.33794 3.45411 8.4602C2.98926 9.58246 2.75 10.7853 2.75 12C2.75 13.2148 2.98926 14.4176 3.45411 15.5398C3.91897 16.6621 4.60032 17.6818 5.45926 18.5408C5.75216 18.8337 5.75216 19.3085 5.45926 19.6014C5.16637 19.8943 4.6915 19.8943 4.3986 19.6014C3.40037 18.6032 2.60853 17.4181 2.06829 16.1139C1.52806 14.8096 1.25 13.4117 1.25 12C1.25 10.5883 1.52806 9.19043 2.0683 7.88618C2.60853 6.58193 3.40037 5.39685 4.3986 4.39862C4.6915 4.10573 5.16637 4.10573 5.45926 4.39863Z" fill="white"/>
<path d="M8.28769 7.22705C8.58058 7.51995 8.58058 7.99482 8.28769 8.28771C7.80018 8.77522 7.41347 9.35398 7.14963 9.99094C6.8858 10.6279 6.75 11.3106 6.75 12C6.75 12.6895 6.8858 13.3722 7.14963 14.0091C7.41347 14.6461 7.80018 15.2248 8.28769 15.7123C8.58058 16.0052 8.58058 16.4801 8.28769 16.773C7.9948 17.0659 7.51992 17.0659 7.22703 16.773C6.60023 16.1462 6.10303 15.4021 5.76381 14.5831C5.42459 13.7642 5.25 12.8864 5.25 12C5.25 11.1136 5.42459 10.2359 5.76381 9.41691C6.10303 8.59796 6.60023 7.85385 7.22703 7.22705C7.51992 6.93416 7.9948 6.93416 8.28769 7.22705Z" fill="white"/>
<path d="M13.5 12C13.5 12.8285 12.8284 13.5 12 13.5C11.1716 13.5 10.5 12.8285 10.5 12C10.5 11.1716 11.1716 10.5 12 10.5C12.8284 10.5 13.5 11.1716 13.5 12Z" fill="white"/>
<path d="M15.7123 8.28771C15.4194 7.99482 15.4194 7.51995 15.7123 7.22705C16.0052 6.93416 16.4801 6.93416 16.773 7.22705C17.3998 7.85385 17.897 8.59796 18.2362 9.41691C18.5754 10.2359 18.75 11.1136 18.75 12C18.75 12.8864 18.5754 13.7642 18.2362 14.5831C17.897 15.4021 17.3998 16.1462 16.773 16.773C16.4801 17.0659 16.0052 17.0659 15.7123 16.773C15.4194 16.4801 15.4194 16.0052 15.7123 15.7123C16.1998 15.2248 16.5865 14.6461 16.8504 14.0091C17.1142 13.3722 17.25 12.6895 17.25 12C17.25 11.3106 17.1142 10.6279 16.8504 9.99094C16.5865 9.35398 16.1998 8.77522 15.7123 8.28771Z" fill="white"/>
<path d="M18.5407 5.45929C18.2478 5.16639 18.2478 4.69152 18.5407 4.39863C18.8336 4.10573 19.3085 4.10573 19.6014 4.39862C20.5996 5.39685 21.3915 6.58193 21.9317 7.88618C22.4719 9.19043 22.75 10.5883 22.75 12C22.75 13.4117 22.4719 14.8096 21.9317 16.1139C21.3915 17.4181 20.5996 18.6032 19.6014 19.6014C19.3085 19.8943 18.8336 19.8943 18.5407 19.6014C18.2478 19.3085 18.2478 18.8337 18.5407 18.5408C19.3997 17.6818 20.081 16.6621 20.5459 15.5398C21.0107 14.4176 21.25 13.2148 21.25 12C21.25 10.7853 21.0107 9.58246 20.5459 8.4602C20.081 7.33794 19.3997 6.31823 18.5407 5.45929Z" fill="white"/>
</svg>
