<svg width="24" height="24" viewBox="0 0 24 24" fill="none" xmlns="http://www.w3.org/2000/svg">
<path d="M14.2983 6.44253C14.6062 6.16544 15.0804 6.19039 15.3575 6.49828L18.0575 9.49828C18.2556 9.71843 18.3056 10.0346 18.1851 10.3051C18.0646 10.5757 17.7962 10.75 17.5 10.75H6.5C6.08579 10.75 5.75 10.4142 5.75 10C5.75 9.58579 6.08579 9.25 6.5 9.25H15.816L14.2425 7.50172C13.9654 7.19384 13.9904 6.71962 14.2983 6.44253Z" fill="white"/>
<path d="M8.64253 17.5017C8.91962 17.8096 9.39384 17.8346 9.70173 17.5575C10.0096 17.2804 10.0346 16.8062 9.75747 16.4983L8.18402 14.75H17.5C17.9142 14.75 18.25 14.4142 18.25 14C18.25 13.5858 17.9142 13.25 17.5 13.25H6.5C6.20382 13.25 5.93537 13.4243 5.81487 13.6949C5.69438 13.9654 5.74439 14.2816 5.94253 14.5017L8.64253 17.5017Z" fill="white"/>
<path fill-rule="evenodd" clip-rule="evenodd" d="M1.25 12C1.25 6.06294 6.06294 1.25 12 1.25C17.9371 1.25 22.75 6.06294 22.75 12C22.75 17.9371 17.9371 22.75 12 22.75C6.06294 22.75 1.25 17.9371 1.25 12ZM12 2.75C6.89137 2.75 2.75 6.89137 2.75 12C2.75 17.1086 6.89137 21.25 12 21.25C17.1086 21.25 21.25 17.1086 21.25 12C21.25 6.89137 17.1086 2.75 12 2.75Z" fill="white"/>
</svg>
