<svg width="24" height="24" viewBox="0 0 24 24" fill="none" xmlns="http://www.w3.org/2000/svg">
<path d="M11.25 3.5C11.25 3.91421 11.5858 4.25 12 4.25C12.4142 4.25 12.75 3.91421 12.75 3.5V2C12.75 1.58579 12.4142 1.25 12 1.25C11.5858 1.25 11.25 1.58579 11.25 2V3.5Z" fill="white"/>
<path d="M8 13.75C7.58579 13.75 7.25 13.4142 7.25 13V10C7.25 9.80109 7.32902 9.61032 7.46967 9.46967C7.61032 9.32902 7.80109 9.25 8 9.25H11C11.4142 9.25 11.75 9.58579 11.75 10C11.75 10.4142 11.4142 10.75 11 10.75H8.75V13C8.75 13.4142 8.41421 13.75 8 13.75Z" fill="white"/>
<path fill-rule="evenodd" clip-rule="evenodd" d="M19.7501 20.25H21C21.4142 20.25 21.75 20.5858 21.75 21C21.75 21.4142 21.4142 21.75 21 21.75L3 21.75C2.58579 21.75 2.25 21.4142 2.25 21C2.25 20.5858 2.58579 20.25 3 20.25H4.25006L4.25006 9C4.25006 7.48122 5.48128 6.25 7.00006 6.25L17.0001 6.25C18.5188 6.25 19.7501 7.48122 19.7501 9L19.7501 20.25ZM18.2501 20.25L18.2501 9C18.2501 8.30965 17.6904 7.75 17.0001 7.75L7.00006 7.75C6.30971 7.75 5.75006 8.30964 5.75006 9L5.75006 20.25L18.2501 20.25Z" fill="white"/>
<path d="M5.53039 5.53033C5.23749 5.82322 4.76262 5.82322 4.46973 5.53033L3.46973 4.53033C3.17684 4.23743 3.17684 3.76256 3.46973 3.46967C3.76262 3.17677 4.2375 3.17678 4.53039 3.46967L5.53039 4.46967C5.82328 4.76257 5.82328 5.23744 5.53039 5.53033Z" fill="white"/>
<path d="M19.5304 5.53033C19.2375 5.82322 18.7626 5.82322 18.4697 5.53033C18.1768 5.23744 18.1768 4.76257 18.4697 4.46967L19.4697 3.46967C19.7626 3.17678 20.2375 3.17677 20.5304 3.46967C20.8233 3.76256 20.8233 4.23743 20.5304 4.53033L19.5304 5.53033Z" fill="white"/>
</svg>
