<svg width="24" height="24" viewBox="0 0 24 24" fill="none" xmlns="http://www.w3.org/2000/svg">
<path fill-rule="evenodd" clip-rule="evenodd" d="M6.375 1.25C6.78921 1.25 7.125 1.58579 7.125 2V4.10294H16.875V2C16.875 1.58579 17.2108 1.25 17.625 1.25C18.0392 1.25 18.375 1.58579 18.375 2V4.10294H20C20.9665 4.10294 21.75 4.88644 21.75 5.85294V20C21.75 20.9665 20.9665 21.75 20 21.75H4C3.0335 21.75 2.25 20.9665 2.25 20V5.85294C2.25 4.88645 3.0335 4.10294 4 4.10294H5.625V2C5.625 1.58579 5.96079 1.25 6.375 1.25ZM7 8.5H9V10.5H7V8.5ZM9 12H7V14H9V12ZM9 15.5H7V17.5H9V15.5ZM13 15.5H11V17.5H13V15.5ZM15 15.5H17V17.5H15V15.5ZM13 12H11V14H13V12ZM11 8.5H13V10.5H11V8.5ZM17 12H15V14H17V12ZM15 8.5H17V10.5H15V8.5Z" fill="white"/>
</svg>
