<svg width="24" height="24" viewBox="0 0 24 24" fill="none" xmlns="http://www.w3.org/2000/svg">
<path d="M6.88277 2.81673C6.92304 2.7079 7.07696 2.7079 7.11723 2.81673L7.92537 5.00069C7.93803 5.03491 7.96501 5.06188 7.99922 5.07454L10.1832 5.88268C10.292 5.92295 10.292 6.07688 10.1832 6.11715L7.99922 6.92529C7.96501 6.93795 7.93803 6.96492 7.92537 6.99914L7.11723 9.1831C7.07696 9.29193 6.92304 9.29193 6.88277 9.1831L6.07463 6.99914C6.06197 6.96492 6.03499 6.93795 6.00078 6.92529L3.81681 6.11715C3.70799 6.07688 3.70799 5.92295 3.81681 5.88268L6.00078 5.07454C6.03499 5.06188 6.06197 5.03491 6.07463 5.00069L6.88277 2.81673Z" fill="white"/>
<path d="M17.8828 13.8167C17.923 13.7079 18.077 13.7079 18.1172 13.8167L18.7903 15.6357C18.803 15.67 18.83 15.6969 18.8642 15.7096L20.6832 16.3827C20.792 16.423 20.792 16.5769 20.6832 16.6171L18.8642 17.2902C18.83 17.3029 18.803 17.3299 18.7903 17.3641L18.1172 19.1831C18.077 19.2919 17.923 19.2919 17.8828 19.1831L17.2097 17.3641C17.197 17.3299 17.17 17.3029 17.1358 17.2902L15.3168 16.6171C15.208 16.5769 15.208 16.423 15.3168 16.3827L17.1358 15.7096C17.17 15.6969 17.197 15.67 17.2097 15.6357L17.8828 13.8167Z" fill="white"/>
<path d="M17.5303 3.46957C17.3897 3.32892 17.1989 3.2499 17 3.2499C16.8011 3.2499 16.6103 3.32892 16.4697 3.46957L13.9991 5.94009C14.0098 5.94957 14.0202 5.95939 14.0303 5.96957L18.0303 9.96957C18.0405 9.97975 18.0503 9.99016 18.0598 10.0008L20.5303 7.53024C20.8232 7.23735 20.8232 6.76248 20.5303 6.46958L17.5303 3.46957Z" fill="white"/>
<path d="M3.46967 16.4696L12.9402 6.99905C12.9497 7.00965 12.9595 7.02005 12.9697 7.03023L16.9697 11.0302C16.9799 11.0404 16.9903 11.0502 17.0009 11.0597L7.53035 20.5302C7.23745 20.8231 6.76258 20.8231 6.46969 20.5302L3.46967 17.5302C3.32902 17.3896 3.25 17.1988 3.25 16.9999C3.25 16.801 3.32902 16.6102 3.46967 16.4696Z" fill="white"/>
</svg>
