<svg width="24" height="24" viewBox="0 0 24 24" fill="none" xmlns="http://www.w3.org/2000/svg">
<path fill-rule="evenodd" clip-rule="evenodd" d="M12.3535 9H4.75C4.33579 9 4 8.66421 4 8.25C4 7.83579 4.33579 7.5 4.75 7.5H12.3535C12.68 6.34575 13.7412 5.5 15 5.5C16.2588 5.5 17.32 6.34575 17.6465 7.5H19.25C19.6642 7.5 20 7.83579 20 8.25C20 8.66421 19.6642 9 19.25 9H17.6465C17.32 10.1543 16.2588 11 15 11C13.7412 11 12.68 10.1543 12.3535 9ZM13.75 8.25C13.75 7.55964 14.3096 7 15 7C15.6904 7 16.25 7.55964 16.25 8.25C16.25 8.94036 15.6904 9.5 15 9.5C14.3096 9.5 13.75 8.94036 13.75 8.25Z" fill="white"/>
<path fill-rule="evenodd" clip-rule="evenodd" d="M9 12.5C10.2588 12.5 11.32 13.3457 11.6465 14.5H19.25C19.6642 14.5 20 14.8358 20 15.25C20 15.6642 19.6642 16 19.25 16H11.6465C11.32 17.1543 10.2588 18 9 18C7.74122 18 6.67998 17.1543 6.35352 16H4.75C4.33579 16 4 15.6642 4 15.25C4 14.8358 4.33579 14.5 4.75 14.5H6.35352C6.67998 13.3457 7.74122 12.5 9 12.5ZM10.25 15.25C10.25 14.5596 9.69036 14 9 14C8.30964 14 7.75 14.5596 7.75 15.25C7.75 15.9404 8.30964 16.5 9 16.5C9.69036 16.5 10.25 15.9404 10.25 15.25Z" fill="white"/>
</svg>
