<svg width="24" height="24" viewBox="0 0 24 24" fill="none" xmlns="http://www.w3.org/2000/svg">
<path d="M8.53033 9.96967C8.23744 9.67678 7.76256 9.67678 7.46967 9.96967C7.17678 10.2626 7.17678 10.7374 7.46967 11.0303L11.4697 15.0303C11.7626 15.3232 12.2374 15.3232 12.5303 15.0303L16.5303 11.0303C16.8232 10.7374 16.8232 10.2626 16.5303 9.96967C16.2374 9.67678 15.7626 9.67678 15.4697 9.96967L12 13.4393L8.53033 9.96967Z" fill="white"/>
<path fill-rule="evenodd" clip-rule="evenodd" d="M4.5 2.25C3.25736 2.25 2.25 3.25736 2.25 4.5V19.5C2.25 20.7426 3.25736 21.75 4.5 21.75H19.5C20.7426 21.75 21.75 20.7426 21.75 19.5V4.5C21.75 3.25736 20.7426 2.25 19.5 2.25H4.5ZM3.75 4.5C3.75 4.08579 4.08579 3.75 4.5 3.75H19.5C19.9142 3.75 20.25 4.08579 20.25 4.5V19.5C20.25 19.9142 19.9142 20.25 19.5 20.25H4.5C4.08579 20.25 3.75 19.9142 3.75 19.5V4.5Z" fill="white"/>
</svg>
