<svg width="24" height="24" viewBox="0 0 24 24" fill="none" xmlns="http://www.w3.org/2000/svg">
<path d="M2 12C2 14.3136 2.80219 16.5555 4.26989 18.3439C5.7376 20.1323 7.78 21.3565 10.0491 21.8079C12.3182 22.2592 14.6736 21.9098 16.714 20.8192C18.7543 19.7286 20.3534 17.9643 21.2388 15.8268C22.1242 13.6894 22.241 11.3111 21.5694 9.09717C20.8978 6.88324 19.4793 4.97066 17.5557 3.68532C15.6321 2.39998 13.3222 1.8214 11.0198 2.04817C8.71742 2.27494 6.56486 3.29302 4.92893 4.92895L4 5.85788M4 5.85788H7.24999M4 5.85788L4 2.75003" stroke="white" stroke-width="1.5" stroke-linecap="round" stroke-linejoin="round"/>
</svg>
