<svg width="24" height="24" viewBox="0 0 24 24" fill="none" xmlns="http://www.w3.org/2000/svg">
<path fill-rule="evenodd" clip-rule="evenodd" d="M19.6465 19.25H20.5C21.4665 19.25 22.25 18.4665 22.25 17.5V11.8607L19.9466 5.87179C19.6866 5.19595 19.0373 4.75 18.3132 4.75H14.75V4.5C14.75 3.5335 13.9665 2.75 13 2.75H3.5C2.5335 2.75 1.75 3.5335 1.75 4.5V17.5C1.75 18.4665 2.5335 19.25 3.5 19.25H3.85352C4.17998 20.4043 5.24122 21.25 6.5 21.25C7.75878 21.25 8.82002 20.4043 9.14648 19.25H14.3535C14.68 20.4043 15.7412 21.25 17 21.25C18.2588 21.25 19.32 20.4043 19.6465 19.25ZM3.5 4.25C3.36193 4.25 3.25 4.36193 3.25 4.5V17.5C3.25 17.6381 3.36193 17.75 3.5 17.75H3.85352C4.17998 16.5957 5.24122 15.75 6.5 15.75C7.75878 15.75 8.82002 16.5957 9.14648 17.75H14.3535C14.68 16.5957 15.7412 15.75 17 15.75C18.2588 15.75 19.32 16.5957 19.6465 17.75L20.5 17.75C20.6381 17.75 20.75 17.6381 20.75 17.5V12.75H15C14.0335 12.75 13.25 11.9665 13.25 11V4.5C13.25 4.36193 13.1381 4.25 13 4.25H3.5ZM20.408 11.25H15C14.8619 11.25 14.75 11.1381 14.75 11V6.25H18.3132C18.4166 6.25 18.5094 6.31371 18.5465 6.41026L20.408 11.25ZM6.5 17.25C5.80964 17.25 5.25 17.8096 5.25 18.5C5.25 19.1904 5.80964 19.75 6.5 19.75C7.19036 19.75 7.75 19.1904 7.75 18.5C7.75 17.8096 7.19036 17.25 6.5 17.25ZM15.75 18.5C15.75 17.8096 16.3096 17.25 17 17.25C17.6904 17.25 18.25 17.8096 18.25 18.5C18.25 19.1904 17.6904 19.75 17 19.75C16.3096 19.75 15.75 19.1904 15.75 18.5Z" fill="white"/>
</svg>
