<svg width="24" height="24" viewBox="0 0 24 24" fill="none" xmlns="http://www.w3.org/2000/svg">
<path d="M13 11.75C12.8011 11.75 12.6103 11.671 12.4697 11.5303C12.329 11.3897 12.25 11.1989 12.25 11V3C12.25 2.58578 12.5858 2.25 13 2.25C13.4142 2.25 13.75 2.58578 13.75 3V9.18934L21.4697 1.46967C21.7626 1.17678 22.2374 1.17678 22.5303 1.46967C22.8232 1.76256 22.8232 2.23744 22.5303 2.53033L14.8107 10.25H21C21.4142 10.25 21.75 10.5858 21.75 11C21.75 11.4142 21.4142 11.75 21 11.75H13Z" fill="white"/>
<path d="M11 12.25C11.1989 12.25 11.3897 12.329 11.5303 12.4697C11.671 12.6103 11.75 12.8011 11.75 13V21C11.75 21.4142 11.4142 21.75 11 21.75C10.5858 21.75 10.25 21.4142 10.25 21V14.8107L2.53033 22.5303C2.23744 22.8232 1.76256 22.8232 1.46967 22.5303C1.17678 22.2374 1.17678 21.7626 1.46967 21.4697L9.18934 13.75H3C2.58579 13.75 2.25 13.4142 2.25 13C2.25 12.5858 2.58579 12.25 3 12.25H11Z" fill="white"/>
</svg>
