<svg width="24" height="24" viewBox="0 0 24 24" fill="none" xmlns="http://www.w3.org/2000/svg">
<path fill-rule="evenodd" clip-rule="evenodd" d="M4 2.75C3.0335 2.75 2.25 3.5335 2.25 4.5V13.5C2.25 14.4665 3.0335 15.25 4 15.25H20C20.9665 15.25 21.75 14.4665 21.75 13.5V4.5C21.75 3.5335 20.9665 2.75 20 2.75H4ZM3.75 4.5C3.75 4.36193 3.86193 4.25 4 4.25H20C20.1381 4.25 20.25 4.36193 20.25 4.5V13.5C20.25 13.6381 20.1381 13.75 20 13.75H4C3.86193 13.75 3.75 13.6381 3.75 13.5V4.5Z" fill="white"/>
<path d="M4.25 17.5C4.25 17.0858 4.58579 16.75 5 16.75H19C19.4142 16.75 19.75 17.0858 19.75 17.5C19.75 17.9142 19.4142 18.25 19 18.25H5C4.58579 18.25 4.25 17.9142 4.25 17.5Z" fill="white"/>
<path d="M7.25 20.5C7.25 20.0858 7.58579 19.75 8 19.75H16C16.4142 19.75 16.75 20.0858 16.75 20.5C16.75 20.9142 16.4142 21.25 16 21.25H8C7.58579 21.25 7.25 20.9142 7.25 20.5Z" fill="white"/>
</svg>
