<svg width="24" height="24" viewBox="0 0 24 24" fill="none" xmlns="http://www.w3.org/2000/svg">
<path d="M20.5 7.5C21.3284 7.5 22 6.82843 22 6C22 5.17157 21.3284 4.5 20.5 4.5C19.6716 4.5 19 5.17157 19 6C19 6.82843 19.6716 7.5 20.5 7.5Z" fill="white"/>
<path d="M20.5 13.5C21.3284 13.5 22 12.8284 22 12C22 11.1716 21.3284 10.5 20.5 10.5C19.6716 10.5 19 11.1716 19 12C19 12.8284 19.6716 13.5 20.5 13.5Z" fill="white"/>
<path d="M22 18C22 18.8284 21.3284 19.5 20.5 19.5C19.6716 19.5 19 18.8284 19 18C19 17.1716 19.6716 16.5 20.5 16.5C21.3284 16.5 22 17.1716 22 18Z" fill="white"/>
<path d="M4 5C3.44772 5 3 5.44772 3 6C3 6.55228 3.44772 7 4 7H17C17.5523 7 18 6.55228 18 6C18 5.44772 17.5523 5 17 5H4Z" fill="white"/>
<path d="M3 12C3 11.4477 3.44772 11 4 11H17C17.5523 11 18 11.4477 18 12C18 12.5523 17.5523 13 17 13H4C3.44772 13 3 12.5523 3 12Z" fill="white"/>
<path d="M4 17C3.44772 17 3 17.4477 3 18C3 18.5523 3.44772 19 4 19H17C17.5523 19 18 18.5523 18 18C18 17.4477 17.5523 17 17 17H4Z" fill="white"/>
</svg>
