<svg width="24" height="24" viewBox="0 0 24 24" fill="none" xmlns="http://www.w3.org/2000/svg">
<path fill-rule="evenodd" clip-rule="evenodd" d="M12 3C12.357 3 12.6727 3.17758 12.7802 3.4388L15.281 9.51526L20.5333 11.433C20.8184 11.5371 21 11.7577 21 12C21 12.2423 20.8184 12.4629 20.5333 12.567L15.2809 14.4847L12.7802 20.5612C12.6727 20.8224 12.357 21 12 21C11.6431 21 11.3273 20.8224 11.2198 20.5612L8.71906 14.4847L3.46668 12.567C3.18161 12.4629 3 12.2423 3 12C3 11.7577 3.18161 11.5371 3.46668 11.433L8.71906 9.51526L11.2198 3.4388C11.3273 3.17758 11.6431 3 12 3ZM12 5.71277L10.1722 10.154C10.1038 10.3202 9.94857 10.457 9.74354 10.5319L5.72264 12L9.74354 13.4681C9.94857 13.543 10.1038 13.6798 10.1722 13.846L12 18.2872L13.8278 13.846C13.8962 13.6798 14.0514 13.543 14.2565 13.4681L18.2774 12L14.2565 10.5319C14.0514 10.457 13.8962 10.3202 13.8278 10.154L12 5.71277Z" fill="white"/>
<path d="M4.37432 1.0875C4.41749 0.970833 4.58251 0.970833 4.62568 1.0875L5.49203 3.42879C5.50561 3.46547 5.53453 3.49439 5.57121 3.50797L7.9125 4.37432C8.02917 4.41749 8.02917 4.58251 7.9125 4.62568L5.57121 5.49203C5.53453 5.50561 5.50561 5.53453 5.49203 5.57121L4.62568 7.9125C4.58251 8.02917 4.41749 8.02917 4.37432 7.9125L3.50797 5.57121C3.49439 5.53453 3.46547 5.50561 3.42879 5.49203L1.0875 4.62568C0.970833 4.58251 0.970833 4.41749 1.0875 4.37432L3.42879 3.50797C3.46547 3.49439 3.49439 3.46547 3.50797 3.42879L4.37432 1.0875Z" fill="white"/>
<path d="M19.6257 16.0875C19.5825 15.9708 19.4175 15.9708 19.3743 16.0875L18.508 18.4288C18.4944 18.4655 18.4655 18.4944 18.4288 18.508L16.0875 19.3743C15.9708 19.4175 15.9708 19.5825 16.0875 19.6257L18.4288 20.492C18.4655 20.5056 18.4944 20.5345 18.508 20.5712L19.3743 22.9125C19.4175 23.0292 19.5825 23.0292 19.6257 22.9125L20.492 20.5712C20.5056 20.5345 20.5345 20.5056 20.5712 20.492L22.9125 19.6257C23.0292 19.5825 23.0292 19.4175 22.9125 19.3743L20.5712 18.508C20.5345 18.4944 20.5056 18.4655 20.492 18.4288L19.6257 16.0875Z" fill="white"/>
<circle cx="18.5" cy="6.5" r="1.5" fill="white"/>
<circle cx="5.5" cy="17.5" r="1.5" fill="white"/>
</svg>
