<svg width="24" height="24" viewBox="0 0 24 24" fill="none" xmlns="http://www.w3.org/2000/svg">
<path fill-rule="evenodd" clip-rule="evenodd" d="M15.2882 3.86308C16.627 2.52448 18.7974 2.52448 20.1362 3.86308C21.4752 5.20192 21.4752 7.3728 20.1362 8.71164L8.92519 19.9211C8.83715 20.0092 8.72858 20.0739 8.60928 20.1095L3.2144 21.7187C2.95106 21.7973 2.66584 21.7255 2.47103 21.5317C2.27622 21.3379 2.20302 21.053 2.28024 20.7893L3.84922 15.4307C3.88457 15.31 3.94973 15.2001 4.0387 15.1111L15.2882 3.86308ZM19.0756 4.92381C18.3226 4.17091 17.1018 4.17091 16.3488 4.92381L5.23489 16.0363L4.10739 19.887L7.99874 18.7263L19.0756 7.65091C19.8287 6.89787 19.8287 5.67685 19.0756 4.92381Z" fill="white"/>
</svg>
