<svg width="24" height="24" viewBox="0 0 24 24" fill="none" xmlns="http://www.w3.org/2000/svg">
<path d="M10 14H6V18H10V14Z" fill="white"/>
<path fill-rule="evenodd" clip-rule="evenodd" d="M7.125 2C7.125 1.58579 6.78921 1.25 6.375 1.25C5.96079 1.25 5.625 1.58579 5.625 2V4.10294H4C3.0335 4.10294 2.25 4.88645 2.25 5.85294V20C2.25 20.9665 3.0335 21.75 4 21.75H20C20.9665 21.75 21.75 20.9665 21.75 20V5.85294C21.75 4.88644 20.9665 4.10294 20 4.10294H18.375V2C18.375 1.58579 18.0392 1.25 17.625 1.25C17.2108 1.25 16.875 1.58579 16.875 2V4.10294H7.125V2ZM3.75 5.85294C3.75 5.71487 3.86193 5.60294 4 5.60294H20C20.1381 5.60294 20.25 5.71487 20.25 5.85294V20C20.25 20.1381 20.1381 20.25 20 20.25H4C3.86193 20.25 3.75 20.1381 3.75 20V5.85294Z" fill="white"/>
</svg>
