<svg width="24" height="24" viewBox="0 0 24 24" fill="none" xmlns="http://www.w3.org/2000/svg">
<path fill-rule="evenodd" clip-rule="evenodd" d="M4.72181 3.84545L20.2312 18.9886C20.2436 18.911 20.25 18.8313 20.25 18.75V5.25C20.25 4.42157 19.5784 3.75 18.75 3.75H5.25C5.06403 3.75 4.88609 3.78368 4.72181 3.84545ZM19.2782 20.1545L3.76879 5.01136C3.75642 5.08902 3.75 5.16872 3.75 5.25V18.75C3.75 19.5784 4.42157 20.25 5.25 20.25H18.75C18.936 20.25 19.1139 20.2163 19.2782 20.1545ZM3.0002 3.26542C3.54881 2.64385 4.35387 2.25 5.25 2.25H18.75C20.4069 2.25 21.75 3.59315 21.75 5.25V18.75C21.75 19.5103 21.4662 20.2062 20.9998 20.7346C20.4512 21.3561 19.6461 21.75 18.75 21.75H5.25C3.59315 21.75 2.25 20.4069 2.25 18.75V5.25C2.25 4.48968 2.53382 3.79382 3.0002 3.26542Z" fill="white"/>
</svg>
