<svg width="24" height="24" viewBox="0 0 24 24" fill="none" xmlns="http://www.w3.org/2000/svg">
<path fill-rule="evenodd" clip-rule="evenodd" d="M20.75 4C20.75 3.58579 20.4142 3.25 20 3.25H12.1053C11.691 3.25 11.3553 3.58579 11.3553 4C11.3553 4.41421 11.691 4.75 12.1053 4.75H18.1893L4.75 18.1893V12C4.75 11.5858 4.41421 11.25 4 11.25C3.58579 11.25 3.25 11.5858 3.25 12V20C3.25 20.4142 3.58579 20.75 4 20.75H12C12.4142 20.75 12.75 20.4142 12.75 20C12.75 19.5858 12.4142 19.25 12 19.25H5.81066L19.25 5.81066V11.8947C19.25 12.309 19.5858 12.6447 20 12.6447C20.4142 12.6447 20.75 12.309 20.75 11.8947V4Z" fill="white"/>
</svg>
