<svg width="24" height="24" viewBox="0 0 24 24" fill="none" xmlns="http://www.w3.org/2000/svg">
<path d="M10 1.25C10.3272 1.25 10.6166 1.46211 10.7152 1.77412L13.0075 9.03212L17.8222 11.3227C18.0835 11.4471 18.25 11.7106 18.25 12C18.25 12.2894 18.0835 12.5529 17.8222 12.6773L13.0075 14.9679L10.7152 22.2259C10.6166 22.5379 10.3272 22.75 10 22.75C9.6728 22.75 9.38337 22.5379 9.28482 22.2259L6.99247 14.9679L2.17779 12.6773C1.91648 12.5529 1.75 12.2894 1.75 12C1.75 11.7106 1.91648 11.4471 2.17779 11.3227L6.99247 9.03212L9.28482 1.77412C9.38337 1.46211 9.6728 1.25 10 1.25Z" fill="white"/>
<path d="M18.3828 2.31681C18.423 2.20799 18.577 2.20799 18.6172 2.31681L19.4254 4.50078C19.438 4.53499 19.465 4.56197 19.4992 4.57463L21.6832 5.38277C21.792 5.42304 21.792 5.57696 21.6832 5.61723L19.4992 6.42537C19.465 6.43803 19.438 6.46501 19.4254 6.49922L18.6172 8.68319C18.577 8.79201 18.423 8.79201 18.3828 8.68319L17.5746 6.49922C17.562 6.46501 17.535 6.43803 17.5008 6.42537L15.3168 5.61723C15.208 5.57696 15.208 5.42304 15.3168 5.38277L17.5008 4.57463C17.535 4.56197 17.562 4.53499 17.5746 4.50078L18.3828 2.31681Z" fill="white"/>
<path d="M18.3828 15.3168C18.423 15.208 18.577 15.208 18.6172 15.3168L19.4254 17.5008C19.438 17.535 19.465 17.562 19.4992 17.5746L21.6832 18.3828C21.792 18.423 21.792 18.577 21.6832 18.6172L19.4992 19.4254C19.465 19.438 19.438 19.465 19.4254 19.4992L18.6172 21.6832C18.577 21.792 18.423 21.792 18.3828 21.6832L17.5746 19.4992C17.562 19.465 17.535 19.438 17.5008 19.4254L15.3168 18.6172C15.208 18.577 15.208 18.423 15.3168 18.3828L17.5008 17.5746C17.535 17.562 17.562 17.535 17.5746 17.5008L18.3828 15.3168Z" fill="white"/>
</svg>
