<svg width="24" height="24" viewBox="0 0 24 24" fill="none" xmlns="http://www.w3.org/2000/svg">
<path d="M20.2804 3.71975C17.9164 1.35579 14.0837 1.35578 11.7198 3.71975L9.21975 6.21975C6.85579 8.58371 6.85579 12.4164 9.21975 14.7804C9.96056 15.5212 10.8475 16.0309 11.7887 16.3075C12.1861 16.4242 12.6029 16.1967 12.7197 15.7993C12.8365 15.4019 12.609 14.9851 12.2116 14.8683C11.5053 14.6608 10.8393 14.2786 10.2804 13.7198C8.50223 11.9416 8.50223 9.05859 10.2804 7.28041L12.7804 4.78041C14.5586 3.00223 17.4416 3.00224 19.2197 4.78041C20.9979 6.55858 20.9979 9.44158 19.2197 11.2198L17.4697 12.9698C17.1769 13.2626 17.1769 13.7375 17.4697 14.0304C17.7626 14.3233 18.2375 14.3233 18.5304 14.0304L20.2804 12.2804C22.6444 9.91645 22.6444 6.08371 20.2804 3.71975Z" fill="white"/>
<path d="M12.2116 7.69273C11.8142 7.57594 11.3973 7.80343 11.2805 8.20084C11.1638 8.59825 11.3913 9.01509 11.7887 9.13187C12.4949 9.33941 13.1609 9.72159 13.7197 10.2804C15.4979 12.0586 15.4979 14.9416 13.7197 16.7198L11.2197 19.2198C9.44157 20.9979 6.55858 20.9979 4.78041 19.2198C3.00223 17.4416 3.00223 14.5586 4.78041 12.7804L6.53045 11.0304C6.82335 10.7375 6.82335 10.2626 6.53045 9.96971C6.23756 9.67682 5.76269 9.67682 5.46979 9.96971L3.71975 11.7198C1.35579 14.0837 1.35579 17.9165 3.71975 20.2804C6.08371 22.6444 9.91644 22.6444 12.2804 20.2804L14.7804 17.7804C17.1444 15.4165 17.1444 11.5837 14.7804 9.21975C14.0396 8.47897 13.1527 7.96928 12.2116 7.69273Z" fill="white"/>
</svg>
