<svg width="24" height="24" viewBox="0 0 24 24" fill="none" xmlns="http://www.w3.org/2000/svg">
<path d="M8.75 3C8.75 2.58579 9.08579 2.25 9.5 2.25C9.91421 2.25 10.25 2.58579 10.25 3V9.5C10.25 9.91421 9.91421 10.25 9.5 10.25H3C2.58579 10.25 2.25 9.91421 2.25 9.5C2.25 9.08579 2.58579 8.75 3 8.75H8.75V3Z" fill="white"/>
<path d="M15.25 3C15.25 2.58579 14.9142 2.25 14.5 2.25C14.0858 2.25 13.75 2.58579 13.75 3V9.5C13.75 9.91421 14.0858 10.25 14.5 10.25H21C21.4142 10.25 21.75 9.91421 21.75 9.5C21.75 9.08579 21.4142 8.75 21 8.75H15.25V3Z" fill="white"/>
<path d="M2.25 14.5C2.25 14.0858 2.58579 13.75 3 13.75H9.5C9.91421 13.75 10.25 14.0858 10.25 14.5V21C10.25 21.4142 9.91421 21.75 9.5 21.75C9.08579 21.75 8.75 21.4142 8.75 21V15.25H3C2.58579 15.25 2.25 14.9142 2.25 14.5Z" fill="white"/>
<path d="M14.5 13.75C14.0858 13.75 13.75 14.0858 13.75 14.5V21C13.75 21.4142 14.0858 21.75 14.5 21.75C14.9142 21.75 15.25 21.4142 15.25 21V15.25H21C21.4142 15.25 21.75 14.9142 21.75 14.5C21.75 14.0858 21.4142 13.75 21 13.75H14.5Z" fill="white"/>
</svg>
