<svg width="24" height="24" viewBox="0 0 24 24" fill="none" xmlns="http://www.w3.org/2000/svg">
<path fill-rule="evenodd" clip-rule="evenodd" d="M12.4697 0.96967C12.7626 0.676777 13.2374 0.676777 13.5303 0.96967L15.5303 2.96967C15.8232 3.26256 15.8232 3.73744 15.5303 4.03033L13.5303 6.03033C13.2374 6.32322 12.7626 6.32322 12.4697 6.03033C12.1768 5.73744 12.1768 5.26256 12.4697 4.96967L13.1893 4.25H9C5.54822 4.25 2.75 7.04822 2.75 10.5C2.75 13.9518 5.54822 16.75 9 16.75H12.7727C12.9501 16.75 13.1218 16.8129 13.2572 16.9275L16.75 19.8829V17.0404C16.75 16.7295 16.9417 16.4509 17.2321 16.3399C19.5827 15.4408 21.25 13.1642 21.25 10.5C21.25 8.43723 20.2515 6.60782 18.7082 5.46834C18.375 5.2223 18.3043 4.75272 18.5503 4.41949C18.7963 4.08627 19.2659 4.01559 19.5992 4.26162C21.509 5.67172 22.75 7.941 22.75 10.5C22.75 13.6207 20.9058 16.309 18.25 17.5375V20.4219C18.25 21.4861 17.0049 22.0636 16.1925 21.3762L12.498 18.25H9C4.71979 18.25 1.25 14.7802 1.25 10.5C1.25 6.21979 4.71979 2.75 9 2.75H13.1893L12.4697 2.03033C12.1768 1.73744 12.1768 1.26256 12.4697 0.96967Z" fill="white"/>
</svg>
