<svg width="24" height="24" viewBox="0 0 24 24" fill="none" xmlns="http://www.w3.org/2000/svg">
<path fill-rule="evenodd" clip-rule="evenodd" d="M12 1.25C8.82436 1.25 6.25 3.82436 6.25 7C6.25 7.41421 6.58579 7.75 7 7.75C7.41421 7.75 7.75 7.41421 7.75 7C7.75 4.65279 9.65279 2.75 12 2.75C14.3472 2.75 16.25 4.65279 16.25 7V9.25H4.5C3.5335 9.25 2.75 10.0335 2.75 11V20.5C2.75 21.4665 3.5335 22.25 4.5 22.25H19.5C20.4665 22.25 21.25 21.4665 21.25 20.5V11C21.25 10.0335 20.4665 9.25 19.5 9.25H17.75V7C17.75 3.82436 15.1756 1.25 12 1.25ZM4.5 10.75C4.36193 10.75 4.25 10.8619 4.25 11V20.5C4.25 20.6381 4.36193 20.75 4.5 20.75H19.5C19.6381 20.75 19.75 20.6381 19.75 20.5V11C19.75 10.8619 19.6381 10.75 19.5 10.75H4.5Z" fill="white"/>
</svg>
