<svg width="24" height="24" viewBox="0 0 24 24" fill="none" xmlns="http://www.w3.org/2000/svg">
<path fill-rule="evenodd" clip-rule="evenodd" d="M12.3654 2.30772C12.6449 2.42418 12.8269 2.69726 12.8269 3.00002V6.32145H20C20.4142 6.32145 20.75 6.65724 20.75 7.07145V16.9286C20.75 17.3428 20.4142 17.6786 20 17.6786H12.8269V21C12.8269 21.3028 12.6449 21.5759 12.3654 21.6923C12.0859 21.8088 11.7639 21.7458 11.5489 21.5326L2.47193 12.5326C2.3299 12.3918 2.25 12.2 2.25 12C2.25 11.8 2.3299 11.6083 2.47193 11.4674L11.5489 2.46744C11.7639 2.25426 12.0859 2.19127 12.3654 2.30772ZM4.0652 12L11.3269 19.2002V16.9286C11.3269 16.5144 11.6627 16.1786 12.0769 16.1786H19.25V7.82145H12.0769C11.6627 7.82145 11.3269 7.48566 11.3269 7.07145V4.79984L4.0652 12Z" fill="white"/>
</svg>
