<svg width="24" height="24" viewBox="0 0 24 24" fill="none" xmlns="http://www.w3.org/2000/svg">
<path d="M6.25 8.50001C6.25 8.0858 6.58579 7.75001 7 7.75001H17C17.4142 7.75001 17.75 8.0858 17.75 8.50001C17.75 8.91422 17.4142 9.25001 17 9.25001H7C6.58579 9.25001 6.25 8.91422 6.25 8.50001Z" fill="white"/>
<path d="M7 12.25C6.58579 12.25 6.25 12.5858 6.25 13C6.25 13.4142 6.58579 13.75 7 13.75H14C14.4142 13.75 14.75 13.4142 14.75 13C14.75 12.5858 14.4142 12.25 14 12.25H7Z" fill="white"/>
<path fill-rule="evenodd" clip-rule="evenodd" d="M4.87109 2.25H19.1289C19.5243 2.24999 19.8653 2.24998 20.1463 2.27293C20.4428 2.29715 20.7377 2.35064 21.0215 2.49524C21.4448 2.71095 21.789 3.05516 22.0048 3.47852C22.1494 3.76231 22.2028 4.05722 22.2271 4.35373C22.25 4.63463 22.25 4.97567 22.25 5.37098V16.1289C22.25 16.5242 22.25 16.8654 22.2271 17.1463C22.2028 17.4428 22.1494 17.7377 22.0048 18.0215C21.789 18.4448 21.4448 18.7891 21.0215 19.0048C20.7377 19.1494 20.4428 19.2028 20.1463 19.2271C19.8654 19.25 19.5243 19.25 19.129 19.25H7.59362L2.89269 22.139C2.66127 22.2812 2.37103 22.2872 2.13395 22.1546C1.89687 22.022 1.75 21.7716 1.75 21.5V5.37109C1.74999 4.97573 1.74997 4.63466 1.77293 4.35373C1.79715 4.05722 1.85064 3.76231 1.99524 3.47852C2.21095 3.05516 2.55516 2.71095 2.97852 2.49524C3.26231 2.35064 3.55722 2.29715 3.85373 2.27293C4.13466 2.24998 4.47573 2.24999 4.87109 2.25ZM3.97588 3.76795C3.77213 3.78459 3.69659 3.81285 3.65951 3.83175C3.51839 3.90365 3.40365 4.01839 3.33175 4.15951C3.31285 4.19659 3.28459 4.27213 3.26795 4.47588C3.25058 4.68838 3.25 4.96759 3.25 5.4V20.1588L6.98889 17.861C7.10701 17.7884 7.24294 17.75 7.38158 17.75H19.1C19.5324 17.75 19.8116 17.7494 20.0241 17.7321C20.2279 17.7154 20.3034 17.6872 20.3405 17.6683C20.4816 17.5964 20.5963 17.4816 20.6683 17.3405C20.6871 17.3034 20.7154 17.2279 20.7321 17.0241C20.7494 16.8116 20.75 16.5324 20.75 16.1V5.4C20.75 4.96759 20.7494 4.68838 20.7321 4.47588C20.7154 4.27213 20.6871 4.19659 20.6683 4.15951C20.5963 4.01839 20.4816 3.90365 20.3405 3.83175C20.3034 3.81285 20.2279 3.78459 20.0241 3.76795C19.8116 3.75058 19.5324 3.75 19.1 3.75H4.9C4.46759 3.75 4.18838 3.75058 3.97588 3.76795Z" fill="white"/>
</svg>
