<svg width="24" height="24" viewBox="0 0 24 24" fill="none" xmlns="http://www.w3.org/2000/svg">
<path fill-rule="evenodd" clip-rule="evenodd" d="M9.23745 10.8691C9.13823 10.9683 9.06884 11.0934 9.03715 11.2301L8.1836 14.9121C8.12514 15.1642 8.20086 15.4287 8.3839 15.6118C8.56694 15.7948 8.83143 15.8705 9.0836 15.8121L12.7656 14.9585C12.9022 14.9268 13.0273 14.8574 13.1265 14.7582L21.1118 6.77291C22.1857 5.69897 22.1857 3.95777 21.1118 2.88383C20.0379 1.80988 18.2967 1.80988 17.2227 2.88383L9.23745 10.8691ZM9.91645 14.0792L10.4499 11.7779L18.2834 3.94449C18.7715 3.45633 19.563 3.45633 20.0511 3.94449C20.5393 4.43264 20.5393 5.2241 20.0511 5.71225L12.2177 13.5457L9.91645 14.0792Z" fill="white"/>
<path d="M4 2.24994C3.0335 2.24994 2.25 3.03344 2.25 3.99994V19.9999C2.25 20.9664 3.0335 21.7499 4 21.7499H20C20.9665 21.7499 21.75 20.9664 21.75 19.9999V12.9999C21.75 12.5857 21.4142 12.2499 21 12.2499C20.5858 12.2499 20.25 12.5857 20.25 12.9999V19.9999C20.25 20.138 20.1381 20.2499 20 20.2499H4C3.86193 20.2499 3.75 20.138 3.75 19.9999V3.99994C3.75 3.86187 3.86193 3.74994 4 3.74994H11C11.4142 3.74994 11.75 3.41415 11.75 2.99994C11.75 2.58572 11.4142 2.24994 11 2.24994H4Z" fill="white"/>
</svg>
