<svg width="24" height="24" viewBox="0 0 24 24" fill="none" xmlns="http://www.w3.org/2000/svg">
<path fill-rule="evenodd" clip-rule="evenodd" d="M3.25 2C3.25 1.58579 3.58579 1.25 4 1.25H20C20.4142 1.25 20.75 1.58579 20.75 2V13.5C20.75 14.7426 19.7426 15.75 18.5 15.75H15.25V19.5C15.25 21.2949 13.7949 22.75 12 22.75C10.2051 22.75 8.75 21.2949 8.75 19.5V15.75H5.5C4.25736 15.75 3.25 14.7426 3.25 13.5V2ZM4.75 2.75V9.75H19.25V2.75H9.25V6.5C9.25 6.91421 8.91421 7.25 8.5 7.25C8.08579 7.25 7.75 6.91421 7.75 6.5V2.75H4.75ZM19.25 11.25H4.75V13.5C4.75 13.9142 5.08579 14.25 5.5 14.25H9.47904C9.90484 14.25 10.25 14.5952 10.25 15.021V19.5C10.25 20.4665 11.0335 21.25 12 21.25C12.9665 21.25 13.75 20.4665 13.75 19.5V15.021C13.75 14.5952 14.0952 14.25 14.521 14.25H18.5C18.9142 14.25 19.25 13.9142 19.25 13.5V11.25Z" fill="white"/>
</svg>
