<svg width="24" height="24" viewBox="0 0 24 24" fill="none" xmlns="http://www.w3.org/2000/svg">
<path d="M12.3843 21.5C11.8518 21.502 11.3393 21.2889 10.9635 20.9111L3.08888 13.0371C2.88358 12.8325 2.72514 12.5857 2.62452 12.3138C2.5239 12.0419 2.48349 11.7514 2.5061 11.4623L3.0085 4.86369C3.04321 4.38329 3.25018 3.93159 3.59135 3.59166C3.93252 3.25172 4.38493 3.04643 4.86538 3.01354L11.4629 2.51105C11.5152 2.5 11.5664 2.5 11.6187 2.5C12.1512 2.5 12.6607 2.71104 13.0354 3.08891L20.9111 10.9619C21.0978 11.1485 21.2459 11.3701 21.347 11.614C21.448 11.8579 21.5 12.1194 21.5 12.3834C21.5 12.6474 21.448 12.9088 21.347 13.1527C21.2459 13.3967 21.0978 13.6183 20.9111 13.8049L13.8051 20.9111C13.619 21.0983 13.3976 21.2468 13.1537 21.3479C12.9098 21.4489 12.6483 21.5006 12.3843 21.5ZM8.12095 6.10986C7.79048 6.10995 7.46513 6.19156 7.17372 6.34744C6.88232 6.50333 6.63384 6.72869 6.45031 7.00356C6.26678 7.27843 6.15386 7.59432 6.12154 7.92326C6.08923 8.2522 6.13852 8.58404 6.26505 8.88938C6.39159 9.19472 6.59145 9.46413 6.84695 9.67376C7.10245 9.88339 7.4057 10.0268 7.72983 10.0912C8.05397 10.1556 8.38898 10.1391 8.70521 10.0431C9.02143 9.9471 9.3091 9.77458 9.54275 9.54083L9.54978 9.5348L9.55681 9.52776L9.54878 9.5348C9.8281 9.25297 10.0178 8.89475 10.0939 8.50529C10.17 8.11582 10.1291 7.71255 9.97638 7.34628C9.82369 6.98001 9.56601 6.66715 9.23582 6.44712C8.90563 6.22709 8.51771 6.10974 8.12095 6.10986Z" fill="white"/>
</svg>
