<svg width="24" height="24" viewBox="0 0 24 24" fill="none" xmlns="http://www.w3.org/2000/svg">
<path fill-rule="evenodd" clip-rule="evenodd" d="M12 22C17.5228 22 22 17.5228 22 12C22 6.47715 17.5228 2 12 2C6.47715 2 2 6.47715 2 12C2 17.5228 6.47715 22 12 22Z" fill="#151515" stroke="white" stroke-width="1.5" stroke-linecap="square"/>
<path fill-rule="evenodd" clip-rule="evenodd" d="M9.53027 8.46973C9.23738 8.17683 8.76262 8.17683 8.46973 8.46973C8.17683 8.76262 8.17683 9.23738 8.46973 9.53027L10.9395 12L8.46973 14.4697C8.17683 14.7626 8.17683 15.2374 8.46973 15.5303C8.76262 15.8232 9.23738 15.8232 9.53027 15.5303L12 13.0605L14.4697 15.5303C14.7626 15.8232 15.2374 15.8232 15.5303 15.5303C15.8232 15.2374 15.8232 14.7626 15.5303 14.4697L13.0605 12L15.5303 9.53027C15.8232 9.23738 15.8232 8.76262 15.5303 8.46973C15.2374 8.17683 14.7626 8.17683 14.4697 8.46973L12 10.9395L9.53027 8.46973Z" fill="white"/>
</svg>
