<svg width="24" height="24" viewBox="0 0 24 24" fill="none" xmlns="http://www.w3.org/2000/svg">
<path d="M12.9067 2.79456C10.7769 2.5848 8.64035 3.11998 6.86098 4.30892C5.0816 5.49786 3.76952 7.267 3.1483 9.31488C2.52709 11.3628 2.63516 13.5627 3.45412 15.5398C4.27307 17.517 5.75224 19.149 7.63958 20.1578C9.52692 21.1666 11.7057 21.4898 13.8046 21.0723C15.9035 20.6548 17.7927 19.5224 19.1503 17.8682C20.508 16.2139 21.25 14.1401 21.25 12C21.25 11.5858 21.5858 11.25 22 11.25C22.4142 11.25 22.75 11.5858 22.75 12C22.75 14.4871 21.8876 16.8972 20.3099 18.8197C18.7321 20.7423 16.5365 22.0583 14.0972 22.5435C11.6579 23.0287 9.12589 22.6531 6.93249 21.4807C4.73909 20.3083 3.02006 18.4116 2.0683 16.1139C1.11654 13.8161 0.990937 11.2594 1.7129 8.87946C2.43485 6.49948 3.9597 4.44346 6.02762 3.06172C8.09555 1.67998 10.5786 1.05801 13.0537 1.30178C15.3672 1.52964 17.54 2.50073 19.25 4.06275V2.75003C19.25 2.33581 19.5858 2.00003 20 2.00003C20.4142 2.00003 20.75 2.33582 20.75 2.75003L20.75 5.85788C20.75 6.27209 20.4142 6.60788 20 6.60788H16.75C16.3358 6.60788 16 6.27209 16 5.85788C16 5.44367 16.3358 5.10788 16.75 5.10788H18.1694C16.7087 3.80035 14.8664 2.98757 12.9067 2.79456Z" fill="white"/>
<path d="M10.4989 15.6995C10.9254 15.8998 11.411 16 11.9556 16C12.5413 16 13.0551 15.8831 13.497 15.6494C13.9415 15.413 14.287 15.0893 14.5336 14.6783C14.7828 14.2646 14.9061 13.7919 14.9036 13.2601C14.9061 12.754 14.7995 12.307 14.5837 11.9191C14.3679 11.5286 14.0738 11.2216 13.7013 10.9981C13.3287 10.7746 12.9049 10.6628 12.4296 10.6628C12.0828 10.6628 11.7693 10.7271 11.4893 10.8555C11.2093 10.984 10.9999 11.1458 10.8612 11.3411H10.8149L11.0192 9.36419H14.4681V8.00003H9.64345L9.26966 12.1619L10.7533 12.4278C10.874 12.2634 11.0423 12.1336 11.2581 12.0386C11.4765 11.9435 11.7013 11.896 11.9325 11.896C12.1971 11.8986 12.4321 11.9589 12.6377 12.0771C12.8432 12.1953 13.0038 12.3597 13.1194 12.5704C13.2375 12.781 13.2966 13.0251 13.2966 13.3025C13.2966 13.5749 13.2388 13.8163 13.1232 14.027C13.0102 14.2351 12.8522 14.3982 12.6492 14.5164C12.4488 14.632 12.2176 14.6898 11.9556 14.6898C11.6268 14.6898 11.3429 14.5948 11.104 14.4047C10.865 14.2145 10.7366 13.9666 10.7186 13.6609H9.1001C9.11037 14.1156 9.24011 14.519 9.48931 14.8709C9.73851 15.2229 10.0751 15.4991 10.4989 15.6995Z" fill="white"/>
</svg>
