<svg width="24" height="24" viewBox="0 0 24 24" fill="none" xmlns="http://www.w3.org/2000/svg">
<path fill-rule="evenodd" clip-rule="evenodd" d="M12 7.75C9.65279 7.75 7.75 9.65279 7.75 12C7.75 14.3472 9.65279 16.25 12 16.25C14.3472 16.25 16.25 14.3472 16.25 12C16.25 9.65279 14.3472 7.75 12 7.75ZM9.25 12C9.25 10.4812 10.4812 9.25 12 9.25C13.5188 9.25 14.75 10.4812 14.75 12C14.75 13.5188 13.5188 14.75 12 14.75C10.4812 14.75 9.25 13.5188 9.25 12Z" fill="white"/>
<path fill-rule="evenodd" clip-rule="evenodd" d="M17 2.25H7C6.72762 2.25 6.47666 2.39767 6.34438 2.63577L1.34438 11.6358C1.21854 11.8623 1.21854 12.1377 1.34438 12.3642L6.34438 21.3642C6.47666 21.6023 6.72762 21.75 7 21.75H17C17.2724 21.75 17.5233 21.6023 17.6556 21.3642L22.6556 12.3642C22.7815 12.1377 22.7815 11.8623 22.6556 11.6358L17.6556 2.63577C17.5233 2.39767 17.2724 2.25 17 2.25ZM2.85797 12L7.4413 3.75L16.5587 3.75L21.142 12L16.5587 20.25H7.4413L2.85797 12Z" fill="white"/>
</svg>
