<svg width="24" height="24" viewBox="0 0 24 24" fill="none" xmlns="http://www.w3.org/2000/svg">
<path d="M21.5 6C21.5 6.55228 21.0523 7 20.5 7C19.9477 7 19.5 6.55228 19.5 6C19.5 5.44772 19.9477 5 20.5 5C21.0523 5 21.5 5.44772 21.5 6Z" fill="white"/>
<path d="M2.75 6C2.75 5.58579 3.08579 5.25 3.5 5.25H17.5C17.9142 5.25 18.25 5.58579 18.25 6C18.25 6.41421 17.9142 6.75 17.5 6.75H3.5C3.08579 6.75 2.75 6.41421 2.75 6Z" fill="white"/>
<path d="M2.75 12C2.75 11.5858 3.08579 11.25 3.5 11.25H17.5C17.9142 11.25 18.25 11.5858 18.25 12C18.25 12.4142 17.9142 12.75 17.5 12.75H3.5C3.08579 12.75 2.75 12.4142 2.75 12Z" fill="white"/>
<path d="M3.5 17.25C3.08579 17.25 2.75 17.5858 2.75 18C2.75 18.4142 3.08579 18.75 3.5 18.75H17.5C17.9142 18.75 18.25 18.4142 18.25 18C18.25 17.5858 17.9142 17.25 17.5 17.25H3.5Z" fill="white"/>
<path d="M21.5 12C21.5 12.5523 21.0523 13 20.5 13C19.9477 13 19.5 12.5523 19.5 12C19.5 11.4477 19.9477 11 20.5 11C21.0523 11 21.5 11.4477 21.5 12Z" fill="white"/>
<path d="M20.5 19C21.0523 19 21.5 18.5523 21.5 18C21.5 17.4477 21.0523 17 20.5 17C19.9477 17 19.5 17.4477 19.5 18C19.5 18.5523 19.9477 19 20.5 19Z" fill="white"/>
</svg>
