<svg width="24" height="24" viewBox="0 0 24 24" fill="none" xmlns="http://www.w3.org/2000/svg">
<path d="M8.46967 11.9697C8.76256 11.6768 9.23744 11.6768 9.53033 11.9697C9.82322 12.2626 9.82322 12.7374 9.53033 13.0303L7.81066 14.75H18C18.4142 14.75 18.75 15.0858 18.75 15.5C18.75 15.9142 18.4142 16.25 18 16.25H6C5.69665 16.25 5.42318 16.0673 5.30709 15.787C5.191 15.5068 5.25517 15.1842 5.46967 14.9697L8.46967 11.9697Z" fill="white"/>
<path fill-rule="evenodd" clip-rule="evenodd" d="M3 3.25C2.0335 3.25 1.25 4.0335 1.25 5V19C1.25 19.9665 2.0335 20.75 3 20.75H21C21.9665 20.75 22.75 19.9665 22.75 19V5C22.75 4.0335 21.9665 3.25 21 3.25H3ZM2.75 5C2.75 4.86193 2.86193 4.75 3 4.75H21C21.1381 4.75 21.25 4.86193 21.25 5V7.75H2.75V5ZM2.75 9.25H21.25V19C21.25 19.1381 21.1381 19.25 21 19.25H3C2.86193 19.25 2.75 19.1381 2.75 19V9.25Z" fill="white"/>
</svg>
