<svg width="24" height="24" viewBox="0 0 24 24" fill="none" xmlns="http://www.w3.org/2000/svg">
<path d="M6.25 2C6.25 1.58579 6.58579 1.25 7 1.25H17.7676C18.8791 1.25 19.709 2.27281 19.48 3.36052L17.8516 11.0957C17.8035 11.324 17.8203 11.5611 17.9 11.7804L18.0685 12.2437C18.21 12.633 18.0092 13.0633 17.6199 13.2048C17.2307 13.3464 16.8003 13.1456 16.6588 12.7563L16.4903 12.293C16.3149 11.8107 16.278 11.2889 16.3837 10.7867L18.0122 3.0515C18.0449 2.89612 17.9263 2.75 17.7676 2.75H7C6.58579 2.75 6.25 2.41421 6.25 2Z" fill="white"/>
<path fill-rule="evenodd" clip-rule="evenodd" d="M5.92608 3.36542L4.03033 1.46967C3.73744 1.17678 3.26256 1.17678 2.96967 1.46967C2.67678 1.76256 2.67678 2.23744 2.96967 2.53033L4.86201 4.42267L6.59351 11.0024C6.66675 11.2807 6.64172 11.5758 6.52263 11.8378L4.95986 15.2758C4.43319 16.4345 5.28025 17.75 6.553 17.75H11.25V22C11.25 22.4142 11.5858 22.75 12 22.75C12.4142 22.75 12.75 22.4142 12.75 22V17.75H18.1893L19.9697 19.5303C20.2626 19.8232 20.7374 19.8232 21.0303 19.5303C21.3232 19.2374 21.3232 18.7626 21.0303 18.4697L6.16152 3.60086C6.10103 3.50453 6.02002 3.42457 5.92608 3.36542ZM16.6893 16.25H6.553C6.37118 16.25 6.25017 16.0621 6.32541 15.8965L7.88818 12.4585C8.15017 11.8821 8.20525 11.2329 8.04413 10.6206L6.96703 6.52769L16.6893 16.25Z" fill="white"/>
</svg>
