<svg width="24" height="24" viewBox="0 0 24 24" fill="none" xmlns="http://www.w3.org/2000/svg">
<path fill-rule="evenodd" clip-rule="evenodd" d="M9.27472 2.8303C10.554 0.853767 13.4459 0.853767 14.7252 2.8303C15.1191 3.43888 15.848 3.74081 16.5569 3.589C18.859 3.09595 20.904 5.14087 20.4109 7.44306C20.2591 8.15191 20.561 8.88084 21.1696 9.27472C23.1462 10.554 23.1462 13.4459 21.1696 14.7252C20.561 15.1191 20.2591 15.848 20.4109 16.5569C20.904 18.859 18.859 20.904 16.5569 20.4109C15.848 20.2591 15.1191 20.561 14.7252 21.1696C13.4459 23.1462 10.554 23.1462 9.27472 21.1696C8.88084 20.561 8.15191 20.2591 7.44306 20.4109C5.14087 20.904 3.09595 18.859 3.589 16.5569C3.74081 15.848 3.43888 15.1191 2.8303 14.7252C0.853767 13.4459 0.853767 10.554 2.8303 9.27472C3.43888 8.88084 3.74081 8.15191 3.589 7.44306C3.09595 5.14087 5.14087 3.09595 7.44306 3.589C8.15191 3.74081 8.88084 3.43888 9.27472 2.8303ZM15.1102 8.93586C15.351 8.59881 15.2729 8.13039 14.9359 7.88964C14.5988 7.64888 14.1304 7.72695 13.8896 8.06401L8.88964 15.064C8.64888 15.4011 8.72695 15.8695 9.06401 16.1102C9.40107 16.351 9.86948 16.2729 10.1102 15.9359L15.1102 8.93586ZM9.74994 10.4999C10.4403 10.4999 10.9999 9.94029 10.9999 9.24994C10.9999 8.55958 10.4403 7.99994 9.74994 7.99994C9.05958 7.99994 8.49994 8.55958 8.49994 9.24994C8.49994 9.94029 9.05958 10.4999 9.74994 10.4999ZM15.4999 14.7499C15.4999 15.4403 14.9403 15.9999 14.2499 15.9999C13.5596 15.9999 12.9999 15.4403 12.9999 14.7499C12.9999 14.0596 13.5596 13.4999 14.2499 13.4999C14.9403 13.4999 15.4999 14.0596 15.4999 14.7499Z" fill="white"/>
</svg>
