<svg width="24" height="24" viewBox="0 0 24 24" fill="none" xmlns="http://www.w3.org/2000/svg">
<path d="M14.1799 2.6835C14.5056 2.41211 15 2.64369 15 3.06761V20.9326C15 21.3565 14.5056 21.5881 14.1799 21.3167L9.6 17.5001H4C3.44772 17.5001 3 17.0524 3 16.5001V7.50009C3 6.9478 3.44772 6.50009 4 6.50009H9.6L14.1799 2.6835Z" fill="white"/>
<path d="M19.7942 7.50006C19.5181 7.02177 18.9065 6.85789 18.4282 7.13404C17.9499 7.41018 17.7861 8.02177 18.0622 8.50006C18.6766 9.5642 19 10.7713 19 12.0001C19 13.2288 18.6766 14.4359 18.0622 15.5001C17.7861 15.9784 17.9499 16.5899 18.4282 16.8661C18.9065 17.1422 19.5181 16.9784 19.7942 16.5001C20.5842 15.1319 21 13.5799 21 12.0001C21 10.4202 20.5842 8.86823 19.7942 7.50006Z" fill="white"/>
</svg>
