<svg width="24" height="24" viewBox="0 0 24 24" fill="none" xmlns="http://www.w3.org/2000/svg">
<path fill-rule="evenodd" clip-rule="evenodd" d="M6.35352 4.75H3C2.58579 4.75 2.25 5.08579 2.25 5.5C2.25 5.91421 2.58579 6.25 3 6.25H6.35352C6.67998 7.40425 7.74122 8.25 9 8.25C10.2588 8.25 11.32 7.40425 11.6465 6.25L21 6.25C21.4142 6.25 21.75 5.91421 21.75 5.5C21.75 5.08579 21.4142 4.75 21 4.75L11.6465 4.75C11.32 3.59575 10.2588 2.75 9 2.75C7.74122 2.75 6.67998 3.59575 6.35352 4.75ZM7.75 5.5C7.75 4.80964 8.30964 4.25 9 4.25C9.69036 4.25 10.25 4.80964 10.25 5.5C10.25 6.19036 9.69036 6.75 9 6.75C8.30964 6.75 7.75 6.19036 7.75 5.5Z" fill="white"/>
<path fill-rule="evenodd" clip-rule="evenodd" d="M15 9.25C16.2588 9.25 17.32 10.0957 17.6465 11.25H21C21.4142 11.25 21.75 11.5858 21.75 12C21.75 12.4142 21.4142 12.75 21 12.75H17.6465C17.32 13.9043 16.2588 14.75 15 14.75C13.7412 14.75 12.68 13.9043 12.3535 12.75L3 12.75C2.58579 12.75 2.25 12.4142 2.25 12C2.25 11.5858 2.58579 11.25 3 11.25L12.3535 11.25C12.68 10.0957 13.7412 9.25 15 9.25ZM15 10.75C14.3096 10.75 13.75 11.3096 13.75 12C13.75 12.6904 14.3096 13.25 15 13.25C15.6904 13.25 16.25 12.6904 16.25 12C16.25 11.3096 15.6904 10.75 15 10.75Z" fill="white"/>
<path fill-rule="evenodd" clip-rule="evenodd" d="M11.6465 17.75C11.32 16.5957 10.2588 15.75 9 15.75C7.74122 15.75 6.67998 16.5957 6.35352 17.75H3C2.58579 17.75 2.25 18.0858 2.25 18.5C2.25 18.9142 2.58579 19.25 3 19.25H6.35352C6.67998 20.4043 7.74122 21.25 9 21.25C10.2588 21.25 11.32 20.4043 11.6465 19.25L21 19.25C21.4142 19.25 21.75 18.9142 21.75 18.5C21.75 18.0858 21.4142 17.75 21 17.75L11.6465 17.75ZM10.25 18.5C10.25 17.8096 9.69036 17.25 9 17.25C8.30964 17.25 7.75 17.8096 7.75 18.5C7.75 19.1904 8.30964 19.75 9 19.75C9.69036 19.75 10.25 19.1904 10.25 18.5Z" fill="white"/>
</svg>
