<svg width="24" height="24" viewBox="0 0 24 24" fill="none" xmlns="http://www.w3.org/2000/svg">
<path fill-rule="evenodd" clip-rule="evenodd" d="M2 12C2 6.47715 6.47715 2 12 2C17.5228 2 22 6.47715 22 12C22 17.5228 17.5228 22 12 22C6.47715 22 2 17.5228 2 12ZM17.0511 9.50871C17.3321 9.20435 17.3131 8.72985 17.0087 8.4489C16.7043 8.16795 16.2298 8.18693 15.9489 8.49129L10.4784 14.4177L8.03033 11.9697C7.73744 11.6768 7.26256 11.6768 6.96967 11.9697C6.67678 12.2626 6.67678 12.7374 6.96967 13.0303L9.60169 15.6624C10.1037 16.1644 10.9225 16.148 11.4041 15.6263L17.0511 9.50871Z" fill="white"/>
</svg>
