<svg width="24" height="24" viewBox="0 0 24 24" fill="none" xmlns="http://www.w3.org/2000/svg">
<path fill-rule="evenodd" clip-rule="evenodd" d="M11.5303 3.96967C11.8232 4.26256 11.8232 4.73744 11.5303 5.03033L5.31066 11.25H20.5C20.9142 11.25 21.25 11.5858 21.25 12C21.25 12.4142 20.9142 12.75 20.5 12.75H5.31066L11.5303 18.9697C11.8232 19.2626 11.8232 19.7374 11.5303 20.0303C11.2374 20.3232 10.7626 20.3232 10.4697 20.0303L2.96967 12.5303C2.82902 12.3897 2.75 12.1989 2.75 12C2.75 11.8011 2.82902 11.6103 2.96967 11.4697L10.4697 3.96967C10.7626 3.67678 11.2374 3.67678 11.5303 3.96967Z" fill="white"/>
</svg>
