<svg width="24" height="24" viewBox="0 0 24 24" fill="none" xmlns="http://www.w3.org/2000/svg">
<path d="M19.2344 1.6337C19.1539 1.41605 18.846 1.41605 18.7655 1.6337L17.8244 4.17685C17.7991 4.24528 17.7452 4.29924 17.6767 4.32456L15.1336 5.26561C14.9159 5.34615 14.9159 5.654 15.1336 5.73454L17.6767 6.67559C17.7452 6.70091 17.7991 6.75486 17.8244 6.82329L18.7655 9.36645C18.846 9.5841 19.1539 9.5841 19.2344 9.36645L20.1755 6.82329C20.2008 6.75486 20.2547 6.70091 20.3232 6.67559L22.8663 5.73454C23.084 5.654 23.084 5.34615 22.8663 5.26561L20.3232 4.32456C20.2547 4.29924 20.2008 4.24528 20.1755 4.17685L19.2344 1.6337Z" fill="white"/>
<path fill-rule="evenodd" clip-rule="evenodd" d="M22.5 12.0001C22.5 10.5036 22.1713 9.08383 21.5821 7.80914L21.3828 7.8829L20.6412 9.887C20.0774 11.4106 17.9225 11.4106 17.3587 9.887L16.6171 7.8829L14.613 7.14131C13.0894 6.57754 13.0894 4.42261 14.613 3.85883L16.6171 3.11725L16.6909 2.91795C15.4162 2.32878 13.9965 2.00006 12.5 2.00006C6.97715 2.00006 2.5 6.47721 2.5 12.0001C2.5 17.5229 6.97715 22.0001 12.5 22.0001C18.0228 22.0001 22.5 17.5229 22.5 12.0001ZM9.5 11.5001C10.0523 11.5001 10.5 11.0523 10.5 10.5001C10.5 9.94778 10.0523 9.50006 9.5 9.50006C8.94772 9.50006 8.5 9.94778 8.5 10.5001C8.5 11.0523 8.94772 11.5001 9.5 11.5001ZM16.5 10.5001C16.5 11.0523 16.0523 11.5001 15.5 11.5001C14.9477 11.5001 14.5 11.0523 14.5 10.5001C14.5 9.94778 14.9477 9.50006 15.5 9.50006C16.0523 9.50006 16.5 9.94778 16.5 10.5001ZM12.5 17.0001C10.2612 17.0001 8.36601 15.5286 7.72888 13.5001H17.2711C16.6339 15.5286 14.7388 17.0001 12.5 17.0001Z" fill="white"/>
</svg>
