<svg width="24" height="24" viewBox="0 0 24 24" fill="none" xmlns="http://www.w3.org/2000/svg">
<path fill-rule="evenodd" clip-rule="evenodd" d="M6.2972 1.25C5.14977 1.25 4.31281 2.33571 4.60482 3.44536L6.59351 11.0024C6.66675 11.2807 6.64171 11.5758 6.52263 11.8378L4.95986 15.2758C4.43319 16.4345 5.28025 17.75 6.553 17.75H11.25V22C11.25 22.4142 11.5858 22.75 12 22.75C12.4142 22.75 12.75 22.4142 12.75 22V17.75H17.5723C18.7867 17.75 19.632 16.5433 19.2169 15.402L17.9 11.7804C17.8203 11.5611 17.8035 11.324 17.8516 11.0957L19.48 3.36052C19.709 2.27281 18.8791 1.25 17.7676 1.25H6.2972ZM17.5723 16.25C17.7458 16.25 17.8665 16.0776 17.8072 15.9146L16.4903 12.293C16.3149 11.8107 16.278 11.2889 16.3837 10.7867L18.0122 3.0515C18.0449 2.89612 17.9263 2.75 17.7676 2.75H6.2972C6.13328 2.75 6.01372 2.9051 6.05543 3.06362L8.04412 10.6206C8.20525 11.2329 8.15017 11.8821 7.88818 12.4585L6.32541 15.8965C6.25017 16.0621 6.37118 16.25 6.553 16.25H17.5723Z" fill="white"/>
</svg>
