<svg width="24" height="24" viewBox="0 0 24 24" fill="none" xmlns="http://www.w3.org/2000/svg">
<path d="M2.53033 1.46967C2.23744 1.17678 1.76256 1.17678 1.46967 1.46967C1.17678 1.76256 1.17678 2.23744 1.46967 2.53033L20.4697 21.5303C20.7626 21.8232 21.2374 21.8232 21.5303 21.5303C21.8232 21.2374 21.8232 20.7626 21.5303 20.4697L2.53033 1.46967Z" fill="white"/>
<path d="M15.6667 4.75H8.00271L6.50271 3.25H15.6667C16.8173 3.25 17.75 4.18274 17.75 5.33333V6.61089L20.8702 4.79079C21.7035 4.30469 22.75 4.90578 22.75 5.87052V18C22.75 18.4142 22.4142 18.75 22 18.75C21.5858 18.75 21.25 18.4142 21.25 18V6.30578L17.3779 8.5645C17.1459 8.69982 16.8593 8.70078 16.6265 8.56702C16.3936 8.43327 16.25 8.18522 16.25 7.91667V5.33333C16.25 5.01117 15.9888 4.75 15.6667 4.75Z" fill="white"/>
<path d="M1.25 5.33333C1.25 5.08496 1.29346 4.84675 1.3732 4.62587L2.75 6.00268V18.6667C2.75 18.9888 3.01117 19.25 3.33333 19.25H16C16.4142 19.25 16.75 19.5858 16.75 20C16.75 20.4142 16.4142 20.75 16 20.75H3.33333C2.18274 20.75 1.25 19.8173 1.25 18.6667V5.33333Z" fill="white"/>
</svg>
