<svg width="24" height="24" viewBox="0 0 24 24" fill="none" xmlns="http://www.w3.org/2000/svg">
<path d="M12 13.75C12.4142 13.75 12.75 14.0858 12.75 14.5V16.5C12.75 16.9142 12.4142 17.25 12 17.25C11.5858 17.25 11.25 16.9142 11.25 16.5V14.5C11.25 14.0858 11.5858 13.75 12 13.75Z" fill="white"/>
<path fill-rule="evenodd" clip-rule="evenodd" d="M12 1.25C8.54822 1.25 5.75 4.04822 5.75 7.5V8.75H4.5C3.5335 8.75 2.75 9.5335 2.75 10.5V20.5C2.75 21.4665 3.5335 22.25 4.5 22.25H19.5C20.4665 22.25 21.25 21.4665 21.25 20.5V10.5C21.25 9.5335 20.4665 8.75 19.5 8.75H18.25V7.5C18.25 4.04822 15.4518 1.25 12 1.25ZM16.75 8.75V7.5C16.75 4.87665 14.6234 2.75 12 2.75C9.37665 2.75 7.25 4.87665 7.25 7.5V8.75H16.75ZM4.5 10.25C4.36193 10.25 4.25 10.3619 4.25 10.5V20.5C4.25 20.6381 4.36193 20.75 4.5 20.75H19.5C19.6381 20.75 19.75 20.6381 19.75 20.5V10.5C19.75 10.3619 19.6381 10.25 19.5 10.25H4.5Z" fill="white"/>
</svg>
