<svg width="24" height="24" viewBox="0 0 24 24" fill="none" xmlns="http://www.w3.org/2000/svg">
<path fill-rule="evenodd" clip-rule="evenodd" d="M7.25 6C7.25 3.37665 9.37665 1.25 12 1.25C14.6234 1.25 16.75 3.37665 16.75 6V11.5C16.75 14.1234 14.6234 16.25 12 16.25C9.37665 16.25 7.25 14.1234 7.25 11.5V6ZM12 2.75C10.2051 2.75 8.75 4.20507 8.75 6V11.5C8.75 13.2949 10.2051 14.75 12 14.75C13.7949 14.75 15.25 13.2949 15.25 11.5V6C15.25 4.20507 13.7949 2.75 12 2.75Z" fill="white"/>
<path d="M5 9.75C5.41421 9.75 5.75 10.0858 5.75 10.5V11.5C5.75 14.9518 8.54822 17.75 12 17.75C15.4518 17.75 18.25 14.9518 18.25 11.5V10.5C18.25 10.0858 18.5858 9.75 19 9.75C19.4142 9.75 19.75 10.0858 19.75 10.5V11.5C19.75 15.5272 16.6783 18.837 12.75 19.2142V22C12.75 22.4142 12.4142 22.75 12 22.75C11.5858 22.75 11.25 22.4142 11.25 22V19.2142C7.3217 18.837 4.25 15.5272 4.25 11.5V10.5C4.25 10.0858 4.58579 9.75 5 9.75Z" fill="white"/>
</svg>
