<svg width="24" height="24" viewBox="0 0 24 24" fill="none" xmlns="http://www.w3.org/2000/svg">
<path fill-rule="evenodd" clip-rule="evenodd" d="M11.6346 2.30772C11.3551 2.42418 11.1731 2.69726 11.1731 3.00002V6.32145H4C3.58579 6.32145 3.25 6.65724 3.25 7.07145V16.9286C3.25 17.3428 3.58579 17.6786 4 17.6786H11.1731V21C11.1731 21.3028 11.3551 21.5759 11.6346 21.6923C11.9141 21.8088 12.2361 21.7458 12.4511 21.5326L21.5281 12.5326C21.6701 12.3918 21.75 12.2 21.75 12C21.75 11.8 21.6701 11.6083 21.5281 11.4674L12.4511 2.46744C12.2361 2.25426 11.9141 2.19127 11.6346 2.30772ZM19.9348 12L12.6731 19.2002V16.9286C12.6731 16.5144 12.3373 16.1786 11.9231 16.1786H4.75V7.82145H11.9231C12.3373 7.82145 12.6731 7.48566 12.6731 7.07145V4.79984L19.9348 12Z" fill="white"/>
</svg>
