<svg width="24" height="24" viewBox="0 0 24 24" fill="none" xmlns="http://www.w3.org/2000/svg">
<path d="M7 8.5H9V10.5H7V8.5Z" fill="white"/>
<path d="M9 12H7V14H9V12Z" fill="white"/>
<path d="M9 15.5H7V17.5H9V15.5Z" fill="white"/>
<path d="M13 15.5H11V17.5H13V15.5Z" fill="white"/>
<path d="M15 15.5H17V17.5H15V15.5Z" fill="white"/>
<path d="M13 12H11V14H13V12Z" fill="white"/>
<path d="M11 8.5H13V10.5H11V8.5Z" fill="white"/>
<path d="M17 12H15V14H17V12Z" fill="white"/>
<path d="M15 8.5H17V10.5H15V8.5Z" fill="white"/>
<path fill-rule="evenodd" clip-rule="evenodd" d="M7.25 2C7.25 1.58579 6.91421 1.25 6.5 1.25C6.08579 1.25 5.75 1.58579 5.75 2V4.25H4C3.0335 4.25 2.25 5.0335 2.25 6V20C2.25 20.9665 3.0335 21.75 4 21.75H20C20.9665 21.75 21.75 20.9665 21.75 20V6C21.75 5.0335 20.9665 4.25 20 4.25H18.25V2C18.25 1.58579 17.9142 1.25 17.5 1.25C17.0858 1.25 16.75 1.58579 16.75 2V4.25H7.25V2ZM3.75 6C3.75 5.86193 3.86193 5.75 4 5.75H20C20.1381 5.75 20.25 5.86193 20.25 6V20C20.25 20.1381 20.1381 20.25 20 20.25H4C3.86193 20.25 3.75 20.1381 3.75 20V6Z" fill="white"/>
</svg>
