<svg width="24" height="24" viewBox="0 0 24 24" fill="none" xmlns="http://www.w3.org/2000/svg">
<path d="M8 6H6V8H8V6Z" fill="white"/>
<path fill-rule="evenodd" clip-rule="evenodd" d="M4 3C3.44772 3 3 3.44772 3 4V10C3 10.5523 3.44772 11 4 11H10C10.5523 11 11 10.5523 11 10V4C11 3.44772 10.5523 3 10 3H4ZM4.5 4.5V9.5H9.5V4.5H4.5Z" fill="white"/>
<path d="M13 13H15.5V15.5H13V13Z" fill="white"/>
<path d="M18.5 15.5H15.5V18.5H13V21H15.5V18.5H18.5V21H21V18.5H18.5V15.5Z" fill="white"/>
<path d="M18.5 15.5V13H21V15.5H18.5Z" fill="white"/>
<path d="M6 16H8V18H6V16Z" fill="white"/>
<path fill-rule="evenodd" clip-rule="evenodd" d="M3 14C3 13.4477 3.44772 13 4 13H10C10.5523 13 11 13.4477 11 14V20C11 20.5523 10.5523 21 10 21H4C3.44772 21 3 20.5523 3 20V14ZM4.5 19.5V14.5H9.5V19.5H4.5Z" fill="white"/>
<path d="M16 6H18V8H16V6Z" fill="white"/>
<path fill-rule="evenodd" clip-rule="evenodd" d="M13 4C13 3.44772 13.4477 3 14 3H20C20.5523 3 21 3.44772 21 4V10C21 10.5523 20.5523 11 20 11H14C13.4477 11 13 10.5523 13 10V4ZM14.5 9.5V4.5H19.5V9.5H14.5Z" fill="white"/>
</svg>
