<svg width="24" height="24" viewBox="0 0 24 24" fill="none" xmlns="http://www.w3.org/2000/svg">
<path fill-rule="evenodd" clip-rule="evenodd" d="M3.96967 12.4697C4.26256 12.1768 4.73744 12.1768 5.03033 12.4697L11.25 18.6893L11.25 3.5C11.25 3.08579 11.5858 2.75 12 2.75C12.4142 2.75 12.75 3.08579 12.75 3.5V18.6893L18.9697 12.4697C19.2626 12.1768 19.7374 12.1768 20.0303 12.4697C20.3232 12.7626 20.3232 13.2374 20.0303 13.5303L12.5303 21.0303C12.3897 21.171 12.1989 21.25 12 21.25C11.8011 21.25 11.6103 21.171 11.4697 21.0303L3.96967 13.5303C3.67678 13.2374 3.67678 12.7626 3.96967 12.4697Z" fill="white"/>
</svg>
