<svg width="24" height="24" viewBox="0 0 24 24" fill="none" xmlns="http://www.w3.org/2000/svg">
<path d="M8.51293 14.571C6.52999 13.4296 5.15897 11.3446 5.01293 8.92902C6.03961 8.33804 7.23033 8 8.5 8C9.77501 8 10.9704 8.34088 12 8.93648C13.0296 8.34088 14.225 8 15.5 8C16.7697 8 17.9604 8.33804 18.9871 8.92902C18.9956 8.78711 19 8.64406 19 8.5C19 4.63401 15.866 1.5 12 1.5C8.13401 1.5 5 4.63401 5 8.5C5 8.64406 5.00435 8.78711 5.01293 8.92902C2.9135 10.1375 1.5 12.4037 1.5 15C1.5 18.866 4.63401 22 8.5 22C9.77501 22 10.9704 21.6591 12 21.0635C9.9077 19.8532 8.5 17.591 8.5 15C8.5 14.8559 8.50435 14.7129 8.51293 14.571Z" fill="white"/>
<path d="M12 21.0635C14.0923 19.8532 15.5 17.591 15.5 15C15.5 14.8559 15.4956 14.7129 15.4871 14.571C17.47 13.4296 18.841 11.3446 18.9871 8.92902C21.0865 10.1375 22.4999 12.4037 22.4999 15C22.4999 18.866 19.3659 22 15.4999 22C14.2249 22 13.0296 21.6591 12 21.0635Z" fill="white"/>
<path d="M8.51293 14.571C8.65866 12.1607 10.024 10.0795 12 8.93648C13.976 10.0795 15.3413 12.1607 15.4871 14.571C14.4604 15.162 13.2697 15.5 12 15.5C10.7303 15.5 9.53961 15.162 8.51293 14.571Z" fill="white"/>
</svg>
