<svg width="24" height="24" viewBox="0 0 24 24" fill="none" xmlns="http://www.w3.org/2000/svg">
<path fill-rule="evenodd" clip-rule="evenodd" d="M12.0002 8.25C9.92918 8.25 8.25025 9.92893 8.25025 12C8.25025 14.0711 9.92918 15.75 12.0002 15.75C14.0713 15.75 15.7502 14.0711 15.7502 12C15.7502 9.92893 14.0713 8.25 12.0002 8.25ZM9.75025 12C9.75025 10.7574 10.7576 9.75 12.0002 9.75C13.2429 9.75 14.2502 10.7574 14.2502 12C14.2502 13.2426 13.2429 14.25 12.0002 14.25C10.7576 14.25 9.75025 13.2426 9.75025 12Z" fill="white"/>
<path fill-rule="evenodd" clip-rule="evenodd" d="M22.677 11.677C22.6771 11.6773 22.6773 11.6776 22.0001 12C22.6773 12.3225 22.6771 12.3227 22.677 12.323L22.6757 12.3258L22.6728 12.3317L22.6634 12.3509C22.6555 12.367 22.6443 12.3896 22.6297 12.4183C22.6007 12.4755 22.5583 12.557 22.5026 12.6593C22.3914 12.8637 22.2266 13.1518 22.0083 13.4958C21.5725 14.1822 20.9182 15.0985 20.0432 16.0172C18.2993 17.8484 15.6163 19.75 12.0001 19.75C8.38399 19.75 5.70097 17.8484 3.95702 16.0172C3.08201 15.0985 2.4278 14.1822 1.99197 13.4958C1.77361 13.1518 1.60888 12.8637 1.49761 12.6593C1.44195 12.557 1.39959 12.4755 1.37051 12.4183C1.35596 12.3896 1.34473 12.367 1.33681 12.3509L1.32742 12.3317L1.32458 12.3258L1.32363 12.3238C1.32348 12.3235 1.32298 12.3225 2.00013 12C1.32298 11.6776 1.32312 11.6773 1.32326 11.677L1.32458 11.6742L1.32742 11.6683L1.33681 11.6491C1.34473 11.633 1.35596 11.6104 1.37051 11.5817C1.39959 11.5245 1.44195 11.443 1.49761 11.3407C1.60888 11.1363 1.77361 10.8482 1.99197 10.5042C2.4278 9.81781 3.08201 8.90152 3.95702 7.98276C5.70097 6.15162 8.38399 4.25 12.0001 4.25C15.6163 4.25 18.2993 6.15162 20.0432 7.98276C20.9182 8.90152 21.5725 9.81781 22.0083 10.5042C22.2266 10.8482 22.3914 11.1363 22.5026 11.3407C22.5583 11.443 22.6007 11.5245 22.6297 11.5817C22.6443 11.6104 22.6555 11.633 22.6634 11.6491L22.6728 11.6683L22.6757 11.6742L22.677 11.677ZM3.25829 12.6917C3.08043 12.4116 2.94323 12.1746 2.8468 12C2.94323 11.8254 3.08043 11.5884 3.25829 11.3083C3.65579 10.6822 4.25157 9.84848 5.04323 9.01724C6.63262 7.34838 8.9496 5.75 12.0001 5.75C15.0507 5.75 17.3676 7.34838 18.957 9.01724C19.7487 9.84848 20.3445 10.6822 20.742 11.3083C20.9198 11.5884 21.057 11.8254 21.1535 12C21.057 12.1746 20.9198 12.4116 20.742 12.6917C20.3445 13.3178 19.7487 14.1515 18.957 14.9828C17.3676 16.6516 15.0507 18.25 12.0001 18.25C8.9496 18.25 6.63262 16.6516 5.04323 14.9828C4.25157 14.1515 3.65579 13.3178 3.25829 12.6917ZM22.0001 12L22.677 11.677L22.8308 12L22.677 12.323L22.0001 12Z" fill="white"/>
<path d="M1.32326 11.677L2.00013 12L1.32298 12.3225L1.16943 12L1.32326 11.677Z" fill="white"/>
</svg>
