<svg width="24" height="24" viewBox="0 0 24 24" fill="none" xmlns="http://www.w3.org/2000/svg">
<path fill-rule="evenodd" clip-rule="evenodd" d="M3 4C2.44772 4 2 4.44772 2 5V9.5C2 9.77614 2.22733 9.99359 2.49494 10.0617C3.36012 10.282 4 11.0663 4 12C4 12.9337 3.36012 13.718 2.49494 13.9383C2.22733 14.0064 2 14.2239 2 14.5V19C2 19.5523 2.44772 20 3 20H21C21.5523 20 22 19.5523 22 19V14.5C22 14.2239 21.7727 14.0064 21.5051 13.9383C20.6399 13.718 20 12.9337 20 12C20 11.0663 20.6399 10.282 21.5051 10.0617C21.7727 9.99359 22 9.77614 22 9.5V5C22 4.44772 21.5523 4 21 4H3ZM15 11H9V13H15V11Z" fill="white"/>
</svg>
