<svg width="24" height="24" viewBox="0 0 24 24" fill="none" xmlns="http://www.w3.org/2000/svg">
<path fill-rule="evenodd" clip-rule="evenodd" d="M3.25 2C3.25 1.58579 3.58579 1.25 4 1.25H20C20.4142 1.25 20.75 1.58579 20.75 2C20.75 2.41421 20.4142 2.75 20 2.75H18.25V6.5C18.25 8.439 17.552 10.0183 16.388 11.1097C16.0113 11.4628 15.5911 11.7599 15.1383 12C15.5911 12.2401 16.0113 12.5372 16.388 12.8903C17.552 13.9817 18.25 15.561 18.25 17.5V21.25H20C20.4142 21.25 20.75 21.5858 20.75 22C20.75 22.4142 20.4142 22.75 20 22.75H4C3.58579 22.75 3.25 22.4142 3.25 22C3.25 21.5858 3.58579 21.25 4 21.25H5.75V17.5C5.75 15.561 6.44795 13.9817 7.61204 12.8903C8.01688 12.5108 8.47194 12.196 8.96386 11.9471C7.05663 10.8686 5.75 8.81755 5.75 6.5V2.75H4C3.58579 2.75 3.25 2.41421 3.25 2ZM7.25 2.75V6.5C7.25 9.08579 9.41421 11.25 12 11.25C13.3349 11.25 14.5186 10.8061 15.362 10.0153C16.198 9.23168 16.75 8.061 16.75 6.5V2.75H7.25ZM12 12.75C10.6651 12.75 9.4814 13.1939 8.63796 13.9847C7.80205 14.7683 7.25 15.939 7.25 17.5V21.25H16.75V17.5C16.75 15.939 16.198 14.7683 15.362 13.9847C14.5186 13.1939 13.3349 12.75 12 12.75Z" fill="white"/>
</svg>
