<svg width="24" height="24" viewBox="0 0 24 24" fill="none" xmlns="http://www.w3.org/2000/svg">
<path fill-rule="evenodd" clip-rule="evenodd" d="M5.75 7.5C5.75 4.04822 8.54822 1.25 12 1.25C15.4518 1.25 18.25 4.04822 18.25 7.5V8.75H19.5C20.4665 8.75 21.25 9.5335 21.25 10.5V20.5C21.25 21.4665 20.4665 22.25 19.5 22.25H4.5C3.5335 22.25 2.75 21.4665 2.75 20.5V10.5C2.75 9.5335 3.5335 8.75 4.5 8.75H5.75V7.5ZM16.75 7.5V8.75H7.25V7.5C7.25 4.87665 9.37665 2.75 12 2.75C14.6234 2.75 16.75 4.87665 16.75 7.5ZM12.75 14.5C12.75 14.0858 12.4142 13.75 12 13.75C11.5858 13.75 11.25 14.0858 11.25 14.5V16.5C11.25 16.9142 11.5858 17.25 12 17.25C12.4142 17.25 12.75 16.9142 12.75 16.5V14.5Z" fill="white"/>
</svg>
