<svg width="24" height="24" viewBox="0 0 24 24" fill="none" xmlns="http://www.w3.org/2000/svg">
<path d="M6.5 13.25C6.08579 13.25 5.75 13.5858 5.75 14C5.75 14.4142 6.08579 14.75 6.5 14.75H11.5C11.9142 14.75 12.25 14.4142 12.25 14C12.25 13.5858 11.9142 13.25 11.5 13.25H6.5Z" fill="white"/>
<path d="M5.75 17.5C5.75 17.0858 6.08579 16.75 6.5 16.75H17.5C17.9142 16.75 18.25 17.0858 18.25 17.5C18.25 17.9142 17.9142 18.25 17.5 18.25H6.5C6.08579 18.25 5.75 17.9142 5.75 17.5Z" fill="white"/>
<path d="M14.5 13.25C14.0858 13.25 13.75 13.5858 13.75 14C13.75 14.4142 14.0858 14.75 14.5 14.75H17.5C17.9142 14.75 18.25 14.4142 18.25 14C18.25 13.5858 17.9142 13.25 17.5 13.25H14.5Z" fill="white"/>
<path fill-rule="evenodd" clip-rule="evenodd" d="M4 2.25C3.0335 2.25 2.25 3.0335 2.25 4V20C2.25 20.9665 3.0335 21.75 4 21.75H20C20.9665 21.75 21.75 20.9665 21.75 20V4C21.75 3.0335 20.9665 2.25 20 2.25H4ZM3.75 4C3.75 3.86193 3.86193 3.75 4 3.75H20C20.1381 3.75 20.25 3.86193 20.25 4V20C20.25 20.1381 20.1381 20.25 20 20.25H4C3.86193 20.25 3.75 20.1381 3.75 20V4Z" fill="white"/>
</svg>
