<svg width="24" height="24" viewBox="0 0 24 24" fill="none" xmlns="http://www.w3.org/2000/svg">
<path d="M2 5.5C2 4.94772 2.44772 4.5 3 4.5H21C21.5523 4.5 22 4.94772 22 5.5C22 6.05228 21.5523 6.5 21 6.5H3C2.44772 6.5 2 6.05228 2 5.5Z" fill="white"/>
<path d="M2 12C2 11.4477 2.44772 11 3 11H21C21.5523 11 22 11.4477 22 12C22 12.5523 21.5523 13 21 13H3C2.44772 13 2 12.5523 2 12Z" fill="white"/>
<path d="M3 17.5C2.44772 17.5 2 17.9477 2 18.5C2 19.0523 2.44772 19.5 3 19.5H13C13.5523 19.5 14 19.0523 14 18.5C14 17.9477 13.5523 17.5 13 17.5H3Z" fill="white"/>
</svg>
