<svg width="24" height="24" viewBox="0 0 24 24" fill="none" xmlns="http://www.w3.org/2000/svg">
<path d="M5.53033 2.53033C5.82322 2.23744 5.82322 1.76256 5.53033 1.46967C5.23744 1.17678 4.76256 1.17678 4.46967 1.46967L1.46967 4.46967C1.17678 4.76256 1.17678 5.23744 1.46967 5.53033C1.76256 5.82322 2.23744 5.82322 2.53033 5.53033L5.53033 2.53033Z" fill="white"/>
<path d="M12.75 6.50006C12.75 6.08585 12.4142 5.75006 12 5.75006C11.5858 5.75006 11.25 6.08585 11.25 6.50006V12.0001C11.25 12.199 11.329 12.3897 11.4697 12.5304L14.9697 16.0304C15.2626 16.3233 15.7374 16.3233 16.0303 16.0304C16.3232 15.7375 16.3232 15.2626 16.0303 14.9697L12.75 11.6894V6.50006Z" fill="white"/>
<path fill-rule="evenodd" clip-rule="evenodd" d="M12 2.25006C6.61522 2.25006 2.25 6.61528 2.25 12.0001C2.25 17.3848 6.61522 21.7501 12 21.7501C17.3848 21.7501 21.75 17.3848 21.75 12.0001C21.75 6.61528 17.3848 2.25006 12 2.25006ZM3.75 12.0001C3.75 7.44371 7.44365 3.75006 12 3.75006C16.5563 3.75006 20.25 7.44371 20.25 12.0001C20.25 16.5564 16.5563 20.2501 12 20.2501C7.44365 20.2501 3.75 16.5564 3.75 12.0001Z" fill="white"/>
<path d="M18.4697 1.46967C18.7626 1.17678 19.2374 1.17678 19.5303 1.46967L22.5303 4.46967C22.8232 4.76256 22.8232 5.23744 22.5303 5.53033C22.2374 5.82322 21.7626 5.82322 21.4697 5.53033L18.4697 2.53033C18.1768 2.23744 18.1768 1.76256 18.4697 1.46967Z" fill="white"/>
</svg>
