<svg width="24" height="24" viewBox="0 0 24 24" fill="none" xmlns="http://www.w3.org/2000/svg">
<path d="M2.75 9C2.75 7.20507 4.20507 5.75 6 5.75H9C9.41421 5.75 9.75 5.41421 9.75 5C9.75 4.58579 9.41421 4.25 9 4.25H6C3.37665 4.25 1.25 6.37665 1.25 9V19C1.25 19.9665 2.0335 20.75 3 20.75H9C9.9665 20.75 10.75 19.9665 10.75 19V13C10.75 12.0335 9.9665 11.25 9 11.25H2.75V9Z" fill="white"/>
<path d="M13.75 9C13.75 7.20507 15.2051 5.75 17 5.75H20C20.4142 5.75 20.75 5.41421 20.75 5C20.75 4.58579 20.4142 4.25 20 4.25H17C14.3766 4.25 12.25 6.37665 12.25 9V19C12.25 19.9665 13.0335 20.75 14 20.75H20C20.9665 20.75 21.75 19.9665 21.75 19V13C21.75 12.0335 20.9665 11.25 20 11.25H13.75V9Z" fill="white"/>
</svg>
