<svg width="24" height="24" viewBox="0 0 24 24" fill="none" xmlns="http://www.w3.org/2000/svg">
<path d="M14.1896 3.14163C14.5174 2.88213 15 3.11558 15 3.53365V20.4665C15 20.8846 14.5174 21.1181 14.1896 20.8586L9.94737 17.5001H4C3.44772 17.5001 3 17.0524 3 16.5001V7.5001C3 6.94781 3.44772 6.5001 4 6.5001H9.94737L14.1896 3.14163Z" fill="white"/>
<path d="M16.2929 8.79298C16.6834 8.40246 17.3166 8.40246 17.7071 8.79298L19.5 10.5859L21.2929 8.79298C21.6834 8.40246 22.3166 8.40246 22.7071 8.79298C23.0976 9.18351 23.0976 9.81667 22.7071 10.2072L20.9142 12.0001L22.7071 13.793C23.0976 14.1835 23.0976 14.8167 22.7071 15.2072C22.3166 15.5977 21.6834 15.5977 21.2929 15.2072L19.5 13.4143L17.7071 15.2072C17.3166 15.5977 16.6834 15.5977 16.2929 15.2072C15.9024 14.8167 15.9024 14.1835 16.2929 13.793L18.0858 12.0001L16.2929 10.2072C15.9024 9.81667 15.9024 9.18351 16.2929 8.79298Z" fill="white"/>
</svg>
