<svg width="24" height="24" viewBox="0 0 24 24" fill="none" xmlns="http://www.w3.org/2000/svg">
<path d="M11.0933 2.79456C13.2231 2.5848 15.3596 3.11998 17.139 4.30892C18.9184 5.49786 20.2305 7.267 20.8517 9.31488C21.4729 11.3628 21.3648 13.5627 20.5459 15.5398C19.7269 17.517 18.2478 19.149 16.3604 20.1578C14.4731 21.1666 12.2943 21.4898 10.1954 21.0723C8.0965 20.6548 6.20728 19.5224 4.84965 17.8682C3.49203 16.2139 2.75 14.1401 2.75 12C2.75 11.5858 2.41421 11.25 2 11.25C1.58579 11.25 1.25 11.5858 1.25 12C1.25 14.4871 2.11236 16.8972 3.69014 18.8197C5.26792 20.7423 7.4635 22.0583 9.90278 22.5435C12.3421 23.0287 14.8741 22.6531 17.0675 21.4807C19.2609 20.3083 20.9799 18.4116 21.9317 16.1139C22.8835 13.8161 23.0091 11.2594 22.2871 8.87946C21.5651 6.49948 20.0403 4.44346 17.9724 3.06172C15.9045 1.67998 13.4214 1.05801 10.9463 1.30178C8.63279 1.52964 6.46002 2.50073 4.75 4.06275L4.75 2.75003C4.75 2.33581 4.41421 2.00003 4 2.00003C3.58578 2.00003 3.25 2.33582 3.25 2.75003L3.25 5.85788C3.25 6.27209 3.58579 6.60788 4 6.60788H7.24999C7.6642 6.60788 7.99999 6.27209 7.99999 5.85788C7.99999 5.44367 7.6642 5.10788 7.24999 5.10788H5.83063C7.29128 3.80035 9.13363 2.98757 11.0933 2.79456Z" fill="white"/>
<path d="M10.4989 15.6995C10.9254 15.8998 11.411 16 11.9556 16C12.5413 16 13.0551 15.8831 13.497 15.6494C13.9415 15.413 14.287 15.0893 14.5336 14.6783C14.7828 14.2646 14.9061 13.7919 14.9036 13.2601C14.9061 12.754 14.7995 12.307 14.5837 11.9191C14.3679 11.5286 14.0738 11.2216 13.7013 10.9981C13.3287 10.7746 12.9049 10.6628 12.4296 10.6628C12.0828 10.6628 11.7693 10.7271 11.4893 10.8555C11.2093 10.984 10.9999 11.1458 10.8612 11.3411H10.8149L11.0192 9.36419H14.4681V8.00003H9.64345L9.26965 12.1619L10.7533 12.4278C10.874 12.2634 11.0423 12.1336 11.2581 12.0386C11.4765 11.9435 11.7013 11.896 11.9325 11.896C12.1971 11.8986 12.4321 11.9589 12.6377 12.0771C12.8432 12.1953 13.0038 12.3597 13.1194 12.5704C13.2375 12.781 13.2966 13.0251 13.2966 13.3025C13.2966 13.5749 13.2388 13.8163 13.1232 14.027C13.0102 14.2351 12.8522 14.3982 12.6492 14.5164C12.4488 14.632 12.2176 14.6898 11.9556 14.6898C11.6268 14.6898 11.3429 14.5948 11.104 14.4047C10.865 14.2145 10.7366 13.9666 10.7186 13.6609H9.1001C9.11037 14.1156 9.24011 14.519 9.48931 14.8709C9.7385 15.2229 10.075 15.4991 10.4989 15.6995Z" fill="white"/>
</svg>
