<svg width="24" height="24" viewBox="0 0 24 24" fill="none" xmlns="http://www.w3.org/2000/svg">
<path fill-rule="evenodd" clip-rule="evenodd" d="M7 2.25C6.0335 2.25 5.25 3.0335 5.25 4V17C5.25 17.9665 6.0335 18.75 7 18.75H20C20.9665 18.75 21.75 17.9665 21.75 17V4C21.75 3.0335 20.9665 2.25 20 2.25H7ZM6.75 4C6.75 3.86193 6.86193 3.75 7 3.75H20C20.1381 3.75 20.25 3.86193 20.25 4V17C20.25 17.1381 20.1381 17.25 20 17.25H7C6.86193 17.25 6.75 17.1381 6.75 17V4Z" fill="white"/>
<path d="M3.75 7C3.75 6.58579 3.41421 6.25 3 6.25C2.58579 6.25 2.25 6.58579 2.25 7V19C2.25 20.5188 3.48122 21.75 5 21.75H17C17.4142 21.75 17.75 21.4142 17.75 21C17.75 20.5858 17.4142 20.25 17 20.25H5C4.30964 20.25 3.75 19.6904 3.75 19V7Z" fill="white"/>
</svg>
