<svg width="24" height="24" viewBox="0 0 24 24" fill="none" xmlns="http://www.w3.org/2000/svg">
<path d="M11 7.25001C11.4142 7.25001 11.75 7.5858 11.75 8.00001V10.25H14C14.4142 10.25 14.75 10.5858 14.75 11C14.75 11.4142 14.4142 11.75 14 11.75H11.75V14C11.75 14.4142 11.4142 14.75 11 14.75C10.5858 14.75 10.25 14.4142 10.25 14V11.75H8C7.58579 11.75 7.25 11.4142 7.25 11C7.25 10.5858 7.58579 10.25 8 10.25H10.25V8.00001C10.25 7.5858 10.5858 7.25001 11 7.25001Z" fill="white"/>
<path fill-rule="evenodd" clip-rule="evenodd" d="M4.81282 4.81282C8.2299 1.39573 13.7701 1.39573 17.1872 4.81282C20.4256 8.05126 20.5949 13.1966 17.6951 16.6344L21.5303 20.4697C21.8232 20.7626 21.8232 21.2374 21.5303 21.5303C21.2374 21.8232 20.7626 21.8232 20.4697 21.5303L16.6344 17.6951C13.1966 20.5949 8.05126 20.4256 4.81282 17.1872C1.39573 13.7701 1.39573 8.2299 4.81282 4.81282ZM16.1265 5.87348C13.2952 3.04217 8.70478 3.04217 5.87348 5.87348C3.04217 8.70478 3.04217 13.2952 5.87348 16.1265C8.70478 18.9578 13.2952 18.9578 16.1265 16.1265C18.9578 13.2952 18.9578 8.70478 16.1265 5.87348Z" fill="white"/>
</svg>
