<svg width="24" height="24" viewBox="0 0 24 24" fill="none" xmlns="http://www.w3.org/2000/svg">
<path fill-rule="evenodd" clip-rule="evenodd" d="M3.5 3.25C2.25736 3.25 1.25 4.25736 1.25 5.5V18.5C1.25 19.7426 2.25736 20.75 3.5 20.75H20.5C21.7426 20.75 22.75 19.7426 22.75 18.5V5.5C22.75 4.25736 21.7426 3.25 20.5 3.25H3.5ZM2.75 5.5C2.75 5.08579 3.08579 4.75 3.5 4.75H20.5C20.9142 4.75 21.25 5.08579 21.25 5.5V8.25H2.75V5.5ZM2.75 10.75V18.5C2.75 18.9142 3.08579 19.25 3.5 19.25H20.5C20.9142 19.25 21.25 18.9142 21.25 18.5V10.75H2.75Z" fill="white"/>
</svg>
