<svg width="24" height="24" viewBox="0 0 24 24" fill="none" xmlns="http://www.w3.org/2000/svg">
<path fill-rule="evenodd" clip-rule="evenodd" d="M3.96967 11.5303C4.26256 11.8232 4.73744 11.8232 5.03033 11.5303L11.25 5.31066L11.25 20.5C11.25 20.9142 11.5858 21.25 12 21.25C12.4142 21.25 12.75 20.9142 12.75 20.5V5.31066L18.9697 11.5303C19.2626 11.8232 19.7374 11.8232 20.0303 11.5303C20.3232 11.2374 20.3232 10.7626 20.0303 10.4697L12.5303 2.96967C12.3897 2.82902 12.1989 2.75 12 2.75C11.8011 2.75 11.6103 2.82902 11.4697 2.96967L3.96967 10.4697C3.67678 10.7626 3.67678 11.2374 3.96967 11.5303Z" fill="white"/>
</svg>
