<svg width="24" height="24" viewBox="0 0 24 24" fill="none" xmlns="http://www.w3.org/2000/svg">
<path fill-rule="evenodd" clip-rule="evenodd" d="M3 4C3 3.44772 3.44772 3 4 3H20C20.5523 3 21 3.44772 21 4V20C21 20.5523 20.5523 21 20 21H4C3.44772 21 3 20.5523 3 20V4ZM14.5 7.5C14.5 6.39543 15.3954 5.5 16.5 5.5C17.6046 5.5 18.5 6.39543 18.5 7.5C18.5 8.60457 17.6046 9.5 16.5 9.5C15.3954 9.5 14.5 8.60457 14.5 7.5ZM4.69698 13.0166L7.69383 10.7333C7.8743 10.5958 8.12473 10.597 8.30383 10.7363L12.2357 13.7944C12.3956 13.9188 12.6148 13.9344 12.7907 13.8339L15.7219 12.1589C15.8914 12.062 16.1018 12.0727 16.2606 12.1862L19.2906 14.3504C19.422 14.4443 19.5 14.5958 19.5 14.7573V19C19.5 19.2761 19.2761 19.5 19 19.5H5C4.72386 19.5 4.5 19.2761 4.5 19V13.4143C4.5 13.2583 4.57285 13.1112 4.69698 13.0166Z" fill="white"/>
</svg>
