<svg width="24" height="24" viewBox="0 0 24 24" fill="none" xmlns="http://www.w3.org/2000/svg">
<path fill-rule="evenodd" clip-rule="evenodd" d="M17.4697 2.96967C17.1768 3.26256 17.1768 3.73744 17.4697 4.03033L19.1893 5.75H9C5.27208 5.75 2.25 8.77208 2.25 12.5C2.25 16.2279 5.27208 19.25 9 19.25H21C21.4142 19.25 21.75 18.9142 21.75 18.5C21.75 18.0858 21.4142 17.75 21 17.75H9C6.1005 17.75 3.75 15.3995 3.75 12.5C3.75 9.6005 6.1005 7.25 9 7.25H19.1893L17.4697 8.96967C17.1768 9.26256 17.1768 9.73744 17.4697 10.0303C17.7626 10.3232 18.2374 10.3232 18.5303 10.0303L21.5303 7.0304C21.8232 6.7375 21.8232 6.26256 21.5303 5.96967L18.5303 2.96967C18.2374 2.67678 17.7626 2.67678 17.4697 2.96967Z" fill="white"/>
</svg>
