<svg width="24" height="24" viewBox="0 0 24 24" fill="none" xmlns="http://www.w3.org/2000/svg">
<path fill-rule="evenodd" clip-rule="evenodd" d="M2.25 4C2.25 3.0335 3.0335 2.25 4 2.25H9C9.41421 2.25 9.75 2.58579 9.75 3C9.75 3.41421 9.41421 3.75 9 3.75H4C3.86193 3.75 3.75 3.86193 3.75 4V9.5C3.75 9.91421 3.41421 10.25 3 10.25C2.58579 10.25 2.25 9.91421 2.25 9.5V4ZM14.1967 3C14.1967 2.58579 14.5325 2.25 14.9467 2.25H20C20.9665 2.25 21.75 3.0335 21.75 4V9.5C21.75 9.91421 21.4142 10.25 21 10.25C20.5858 10.25 20.25 9.91421 20.25 9.5V4C20.25 3.86193 20.1381 3.75 20 3.75H14.9467C14.5325 3.75 14.1967 3.41421 14.1967 3ZM3 13.75C3.41421 13.75 3.75 14.0858 3.75 14.5V20C3.75 20.1381 3.86193 20.25 4 20.25H9C9.41421 20.25 9.75 20.5858 9.75 21C9.75 21.4142 9.41421 21.75 9 21.75H4C3.0335 21.75 2.25 20.9665 2.25 20V14.5C2.25 14.0858 2.58579 13.75 3 13.75ZM21 13.75C21.4142 13.75 21.75 14.0858 21.75 14.5V20C21.75 20.9665 20.9665 21.75 20 21.75H15C14.5858 21.75 14.25 21.4142 14.25 21C14.25 20.5858 14.5858 20.25 15 20.25H20C20.1381 20.25 20.25 20.1381 20.25 20V14.5C20.25 14.0858 20.5858 13.75 21 13.75Z" fill="white"/>
</svg>
