<svg width="24" height="24" viewBox="0 0 24 24" fill="none" xmlns="http://www.w3.org/2000/svg">
<path fill-rule="evenodd" clip-rule="evenodd" d="M12.4697 3.96967C12.1768 4.26256 12.1768 4.73744 12.4697 5.03033L18.6893 11.25H3.5C3.08579 11.25 2.75 11.5858 2.75 12C2.75 12.4142 3.08579 12.75 3.5 12.75H18.6893L12.4697 18.9697C12.1768 19.2626 12.1768 19.7374 12.4697 20.0303C12.7626 20.3232 13.2374 20.3232 13.5303 20.0303L21.0303 12.5303C21.171 12.3897 21.25 12.1989 21.25 12C21.25 11.8011 21.171 11.6103 21.0303 11.4697L13.5303 3.96967C13.2374 3.67678 12.7626 3.67678 12.4697 3.96967Z" fill="white"/>
</svg>
