<svg width="24" height="24" viewBox="0 0 24 24" fill="none" xmlns="http://www.w3.org/2000/svg">
<path fill-rule="evenodd" clip-rule="evenodd" d="M11.75 7.5C9.12665 7.5 7 9.62665 7 12.25C7 14.8734 9.12665 17 11.75 17C14.3734 17 16.5 14.8734 16.5 12.25C16.5 9.62665 14.3734 7.5 11.75 7.5ZM8.5 12.25C8.5 10.4551 9.95507 9 11.75 9C13.5449 9 15 10.4551 15 12.25C15 14.0449 13.5449 15.5 11.75 15.5C9.95507 15.5 8.5 14.0449 8.5 12.25Z" fill="white"/>
<path fill-rule="evenodd" clip-rule="evenodd" d="M8.86803 2C8.20518 2 7.59922 2.3745 7.30279 2.96738L6.53647 4.5H3.75C2.23122 4.5 1 5.73122 1 7.25V18.25C1 19.7688 2.23122 21 3.75 21H19.75C21.2688 21 22.5 19.7688 22.5 18.25V7.25C22.5 5.73122 21.2688 4.5 19.75 4.5H16.9635L16.1972 2.96738C15.9008 2.3745 15.2948 2 14.632 2H8.86803ZM8.64443 3.6382C8.68678 3.5535 8.77334 3.5 8.86803 3.5H14.632C14.7267 3.5 14.8132 3.5535 14.8556 3.6382L16.0365 6H19.75C20.4404 6 21 6.55964 21 7.25V18.25C21 18.9404 20.4404 19.5 19.75 19.5H3.75C3.05964 19.5 2.5 18.9404 2.5 18.25V7.25C2.5 6.55964 3.05964 6 3.75 6H7.46353L8.64443 3.6382Z" fill="white"/>
</svg>
