<svg width="24" height="24" viewBox="0 0 24 24" fill="none" xmlns="http://www.w3.org/2000/svg">
<path fill-rule="evenodd" clip-rule="evenodd" d="M4.3986 4.3986C8.59674 0.200466 15.4033 0.200466 19.6014 4.3986C23.7995 8.59674 23.7995 15.4033 19.6014 19.6014C15.4033 23.7995 8.59674 23.7995 4.3986 19.6014C0.200466 15.4033 0.200466 8.59674 4.3986 4.3986ZM6.01078 4.95012L19.0499 17.9892C22.1443 14.3549 21.9746 8.89307 18.5407 5.45926C15.1069 2.02545 9.64506 1.85574 6.01078 4.95012ZM17.9892 19.0499L4.95012 6.01078C1.85574 9.64506 2.02545 15.1069 5.45926 18.5407C8.89307 21.9746 14.3549 22.1443 17.9892 19.0499Z" fill="white"/>
</svg>
