<svg width="24" height="24" viewBox="0 0 24 24" fill="none" xmlns="http://www.w3.org/2000/svg">
<path d="M21 20.2502C21.4142 20.2502 21.75 20.586 21.75 21.0002C21.7499 21.4143 21.4141 21.7502 21 21.7502H3C2.58586 21.7502 2.25011 21.4143 2.25 21.0002C2.25 20.586 2.58579 20.2502 3 20.2502H21Z" fill="white"/>
<path d="M11.4697 2.4699C11.7626 2.17702 12.2374 2.17703 12.5303 2.4699L18.5303 8.4699C18.8231 8.7628 18.8231 9.23758 18.5303 9.53045C18.2374 9.82318 17.7626 9.8232 17.4697 9.53045L12.75 4.81072V17.0002C12.7499 17.4143 12.4142 17.7502 12 17.7502C11.5859 17.7501 11.2501 17.4143 11.25 17.0002V4.81072L6.53027 9.53045L6.47363 9.5822C6.17909 9.8224 5.74431 9.80493 5.46973 9.53045C5.19516 9.25588 5.17776 8.82112 5.41797 8.52654L5.46973 8.4699L11.4697 2.4699Z" fill="white"/>
</svg>
