<svg width="24" height="24" viewBox="0 0 24 24" fill="none" xmlns="http://www.w3.org/2000/svg">
<path fill-rule="evenodd" clip-rule="evenodd" d="M3.33333 4.75C3.01117 4.75 2.75 5.01117 2.75 5.33333V18.6667C2.75 18.9888 3.01117 19.25 3.33333 19.25H14.6667C14.9888 19.25 15.25 18.9888 15.25 18.6667V15.5C15.25 15.2315 15.3936 14.9834 15.6265 14.8496C15.8593 14.7159 16.1459 14.7169 16.3779 14.8522L21.25 17.6942V6.30578L16.3779 9.14783C16.1459 9.28315 15.8593 9.28411 15.6265 9.15036C15.3936 9.0166 15.25 8.76855 15.25 8.5V5.33333C15.25 5.01117 14.9888 4.75 14.6667 4.75H3.33333ZM1.25 5.33333C1.25 4.18274 2.18274 3.25 3.33333 3.25H14.6667C15.8173 3.25 16.75 4.18274 16.75 5.33333V7.19422L20.8702 4.79079C21.7035 4.30469 22.75 4.90578 22.75 5.87052V18.1295C22.75 19.0942 21.7035 19.6953 20.8702 19.2092L16.75 16.8058V18.6667C16.75 19.8173 15.8173 20.75 14.6667 20.75H3.33333C2.18274 20.75 1.25 19.8173 1.25 18.6667V5.33333Z" fill="white"/>
</svg>
