<svg width="24" height="24" viewBox="0 0 24 24" fill="none" xmlns="http://www.w3.org/2000/svg">
<path fill-rule="evenodd" clip-rule="evenodd" d="M12 1.5C9.75312 1.5 7.77076 2.29212 6.07352 3.85745C4.34747 5.44935 3.5 7.5823 3.5 10.2C3.5 12.0003 4.21491 13.9099 5.57338 15.9177C6.93284 17.927 8.97329 20.081 11.676 22.3808C11.8628 22.5397 12.1372 22.5397 12.324 22.3808C15.0267 20.081 17.0672 17.927 18.4266 15.9177C19.7851 13.9099 20.5 12.0003 20.5 10.2C20.5 7.5823 19.6525 5.44935 17.9265 3.85745C16.2292 2.29212 14.2469 1.5 12 1.5ZM15 10C15 11.6569 13.6569 13 12 13C10.3431 13 9 11.6569 9 10C9 8.34315 10.3431 7 12 7C13.6569 7 15 8.34315 15 10Z" fill="white"/>
</svg>
