<svg width="24" height="24" viewBox="0 0 24 24" fill="none" xmlns="http://www.w3.org/2000/svg">
<path d="M17.0303 13.0303C17.3232 12.7374 17.3232 12.2626 17.0303 11.9697C16.7374 11.6768 16.2626 11.6768 15.9697 11.9697L12.75 15.1893V7C12.75 6.58579 12.4142 6.25 12 6.25C11.5858 6.25 11.25 6.58579 11.25 7V15.1893L8.03033 11.9697C7.73744 11.6768 7.26256 11.6768 6.96967 11.9697C6.67678 12.2626 6.67678 12.7374 6.96967 13.0303L11.4697 17.5303C11.6103 17.671 11.8011 17.75 12 17.75C12.1989 17.75 12.3897 17.671 12.5303 17.5303L17.0303 13.0303Z" fill="white"/>
<path fill-rule="evenodd" clip-rule="evenodd" d="M12 22.75C6.06294 22.75 1.25 17.9371 1.25 12C1.25 6.06294 6.06294 1.25 12 1.25C17.9371 1.25 22.75 6.06294 22.75 12C22.75 17.9371 17.9371 22.75 12 22.75ZM2.75 12C2.75 17.1086 6.89137 21.25 12 21.25C17.1086 21.25 21.25 17.1086 21.25 12C21.25 6.89137 17.1086 2.75 12 2.75C6.89137 2.75 2.75 6.89137 2.75 12Z" fill="white"/>
</svg>
