<svg width="24" height="24" viewBox="0 0 24 24" fill="none" xmlns="http://www.w3.org/2000/svg">
<path fill-rule="evenodd" clip-rule="evenodd" d="M2.52283 1.92141C2.75872 1.72685 3.08912 1.69498 3.35785 1.84087L20.8579 11.3409C21.0995 11.4721 21.25 11.725 21.25 12C21.25 12.275 21.0995 12.5279 20.8579 12.6591L3.35785 22.1591C3.08912 22.305 2.75872 22.2732 2.52283 22.0786C2.28693 21.884 2.19277 21.5657 2.28485 21.2742L5.21353 12L2.28485 2.72586C2.19277 2.43427 2.28693 2.11598 2.52283 1.92141ZM6.5497 12.75L4.27452 19.9548L18.928 12L4.27452 4.04525L6.5497 11.25H11.5C11.9142 11.25 12.25 11.5858 12.25 12C12.25 12.4142 11.9142 12.75 11.5 12.75H6.5497Z" fill="white"/>
</svg>
