<svg width="24" height="24" viewBox="0 0 24 24" fill="none" xmlns="http://www.w3.org/2000/svg">
<path fill-rule="evenodd" clip-rule="evenodd" d="M12 22.75C6.06294 22.75 1.25 17.9371 1.25 12C1.25 6.06294 6.06294 1.25 12 1.25C17.9371 1.25 22.75 6.06294 22.75 12C22.75 17.9371 17.9371 22.75 12 22.75ZM13.7906 2.92318C14.9455 4.45958 15.8107 6.26971 16.2986 8.25H20.4583C19.2532 5.5358 16.7799 3.50953 13.7906 2.92318ZM14.7486 8.25C14.207 6.28111 13.251 4.52117 12 3.09654C10.749 4.52117 9.79296 6.28111 9.25137 8.25H14.7486ZM8.92697 9.75H15.073C15.1893 10.4797 15.25 11.2315 15.25 12C15.25 12.7685 15.1892 13.5203 15.073 14.25H8.92697C8.81075 13.5203 8.75 12.7685 8.75 12C8.75 11.2315 8.81075 10.4797 8.92697 9.75ZM7.70144 8.25C8.18926 6.26971 9.05454 4.45958 10.2094 2.92318C7.22007 3.50953 4.74684 5.5358 3.5417 8.25H7.70144ZM7.40995 9.75C7.30464 10.4832 7.25 11.2348 7.25 12C7.25 12.7652 7.30464 13.5168 7.40995 14.25H3.02556C2.84556 13.5297 2.75 12.776 2.75 12C2.75 11.224 2.84556 10.4703 3.02556 9.75H7.40995ZM7.70144 15.75H3.5417C4.74684 18.4642 7.22007 20.4905 10.2094 21.0768C9.05454 19.5404 8.18926 17.7303 7.70144 15.75ZM13.7906 21.0768C14.9455 19.5404 15.8107 17.7303 16.2986 15.75H20.4583C19.2532 18.4642 16.7799 20.4905 13.7906 21.0768ZM14.7486 15.75H9.25137C9.79296 17.7189 10.749 19.4788 12 20.9035C13.251 19.4788 14.207 17.7189 14.7486 15.75ZM16.5901 14.25H20.9744C21.1544 13.5297 21.25 12.776 21.25 12C21.25 11.224 21.1544 10.4703 20.9744 9.75H16.5901C16.6954 10.4832 16.75 11.2348 16.75 12C16.75 12.7652 16.6954 13.5168 16.5901 14.25Z" fill="white"/>
</svg>
