<svg width="24" height="24" viewBox="0 0 24 24" fill="none" xmlns="http://www.w3.org/2000/svg">
<path d="M21 20.25C21.4142 20.25 21.75 20.5858 21.75 21C21.75 21.4142 21.4142 21.75 21 21.75H3C2.58579 21.75 2.25 21.4142 2.25 21C2.25 20.5858 2.58579 20.25 3 20.25H21Z" fill="white"/>
<path d="M12 2.25C12.4142 2.25 12.75 2.58579 12.75 3V15.1895L17.4697 10.4697C17.7626 10.1768 18.2374 10.1769 18.5303 10.4697C18.8232 10.7626 18.8232 11.2374 18.5303 11.5303L12.5303 17.5303C12.2374 17.8231 11.7626 17.8232 11.4697 17.5303L5.46973 11.5303L5.41797 11.4736C5.17766 11.1791 5.19512 10.7443 5.46973 10.4697C5.74433 10.1951 6.17905 10.1777 6.47363 10.418L6.53027 10.4697L11.25 15.1895V3C11.25 2.58581 11.5858 2.25003 12 2.25Z" fill="white"/>
</svg>
