<svg width="24" height="24" viewBox="0 0 24 24" fill="none" xmlns="http://www.w3.org/2000/svg">
<path fill-rule="evenodd" clip-rule="evenodd" d="M7 2.25C6.58579 2.25 6.25 2.58579 6.25 3V15C6.25 15.4142 6.58579 15.75 7 15.75H12.25L12.25 21C12.25 21.1989 12.329 21.3897 12.4697 21.5303C12.6103 21.671 12.8011 21.75 13 21.75C14.335 21.75 15.6401 21.3541 16.7501 20.6124C17.8601 19.8707 18.7253 18.8165 19.2362 17.5831C19.7471 16.3497 19.8808 14.9925 19.6203 13.6831C19.3599 12.3738 18.717 11.171 17.773 10.227C16.829 9.28303 15.6262 8.64015 14.3169 8.3797C14.1287 8.34228 13.9396 8.31299 13.75 8.29179V3C13.75 2.58579 13.4142 2.25 13 2.25H7ZM12.25 8.2918V3.75H7.75V10.7574C8.4565 9.88309 9.37245 9.19643 10.4169 8.76381C11.0059 8.51983 11.6232 8.36188 12.25 8.2918ZM7.80384 14.25C7.91528 13.4779 8.1979 12.7371 8.63478 12.0833C9.21166 11.2199 10.0316 10.547 10.9909 10.1496C11.3967 9.98153 11.8198 9.86594 12.25 9.80385V14.25L7.80384 14.25ZM13.75 20.1962C14.5221 20.0847 15.2629 19.8021 15.9167 19.3652C16.7801 18.7883 17.453 17.9684 17.8504 17.0091C18.2477 16.0498 18.3517 14.9942 18.1491 13.9758C17.9466 12.9574 17.4465 12.0219 16.7123 11.2877C15.9781 10.5535 15.0426 10.0535 14.0242 9.85088C13.9331 9.83275 13.8416 9.81707 13.75 9.80385V20.1962Z" fill="white"/>
</svg>
