<svg width="24" height="24" viewBox="0 0 24 24" fill="none" xmlns="http://www.w3.org/2000/svg">
<path fill-rule="evenodd" clip-rule="evenodd" d="M9.93925 1.44582C10.6069 1.31723 11.2959 1.25 12 1.25C12.7042 1.25 13.3933 1.31726 14.061 1.44589C14.3185 1.49549 14.5314 1.67599 14.6225 1.9219L15.226 3.55183C15.6026 4.56858 16.6562 5.17651 17.7342 4.99185L19.4517 4.69765C19.7091 4.65356 19.971 4.74657 20.1429 4.94319C21.0443 5.97403 21.7521 7.17843 22.2089 8.50018C22.2948 8.7488 22.2442 9.02426 22.0755 9.22609L20.9589 10.5621C20.2624 11.3956 20.2624 12.6044 20.9589 13.4379L22.0755 14.7739C22.2442 14.9757 22.2948 15.2512 22.2089 15.4998C21.7521 16.8216 21.0443 18.026 20.1429 19.0568C19.971 19.2534 19.7091 19.3464 19.4517 19.3023L17.7342 19.0081C16.6562 18.8235 15.6026 19.4314 15.226 20.4482L14.6225 22.0781C14.5314 22.324 14.3185 22.5045 14.061 22.5541C13.3933 22.6827 12.7042 22.75 12 22.75C11.2959 22.75 10.6069 22.6828 9.93925 22.5542C9.68174 22.5046 9.46884 22.3241 9.37777 22.0782L8.77418 20.4482C8.39767 19.4314 7.344 18.8235 6.26601 19.0081L4.54827 19.3024C4.29083 19.3465 4.02899 19.2535 3.85706 19.0569C2.95571 18.0261 2.24792 16.8218 1.79115 15.5001C1.70523 15.2515 1.75584 14.976 1.92452 14.7742L3.04129 13.4379C3.73786 12.6044 3.73786 11.3956 3.04129 10.5621L1.92452 9.22584C1.75584 9.024 1.70523 8.74854 1.79115 8.49991C2.24792 7.17824 2.95571 5.97392 3.85706 4.94315C4.02899 4.74652 4.29083 4.65351 4.54827 4.69761L6.26601 4.99185C7.344 5.17651 8.39767 4.56858 8.77418 3.55183L9.37777 1.92184C9.46884 1.67592 9.68174 1.49542 9.93925 1.44582ZM12 15.5C13.933 15.5 15.5 13.933 15.5 12C15.5 10.067 13.933 8.5 12 8.5C10.067 8.5 8.5 10.067 8.5 12C8.5 13.933 10.067 15.5 12 15.5Z" fill="white"/>
</svg>
