<svg width="24" height="24" viewBox="0 0 24 24" fill="none" xmlns="http://www.w3.org/2000/svg">
<path d="M8 10.25C7.58579 10.25 7.25 10.5858 7.25 11C7.25 11.4142 7.58579 11.75 8 11.75H14C14.4142 11.75 14.75 11.4142 14.75 11C14.75 10.5858 14.4142 10.25 14 10.25H8Z" fill="white"/>
<path fill-rule="evenodd" clip-rule="evenodd" d="M17.1872 4.81282C13.7701 1.39573 8.2299 1.39573 4.81282 4.81282C1.39573 8.2299 1.39573 13.7701 4.81282 17.1872C8.05126 20.4256 13.1966 20.5949 16.6344 17.6951L20.4697 21.5303C20.7626 21.8232 21.2374 21.8232 21.5303 21.5303C21.8232 21.2374 21.8232 20.7626 21.5303 20.4697L17.6951 16.6344C20.5949 13.1966 20.4256 8.05126 17.1872 4.81282ZM5.87348 5.87348C8.70478 3.04217 13.2952 3.04217 16.1265 5.87348C18.9578 8.70478 18.9578 13.2952 16.1265 16.1265C13.2952 18.9578 8.70478 18.9578 5.87348 16.1265C3.04217 13.2952 3.04217 8.70478 5.87348 5.87348Z" fill="white"/>
</svg>
