<svg width="24" height="24" viewBox="0 0 24 24" fill="none" xmlns="http://www.w3.org/2000/svg">
<path d="M4.75 5C4.75 4.58579 4.41421 4.25 4 4.25C3.58579 4.25 3.25 4.58579 3.25 5V19C3.25 19.4142 3.58579 19.75 4 19.75C4.41421 19.75 4.75 19.4142 4.75 19L4.75 5Z" fill="white"/>
<path d="M16.0304 5.46967C15.7375 5.17678 15.2626 5.17678 14.9697 5.46967C14.6768 5.76256 14.6768 6.23744 14.9697 6.53033L19.6893 11.2499H8C7.58579 11.2499 7.25 11.5857 7.25 11.9999C7.25 12.4142 7.58579 12.7499 8 12.7499H19.6893L14.9697 17.4696C14.6768 17.7625 14.6768 18.2374 14.9697 18.5303C15.2626 18.8232 15.7374 18.8232 16.0303 18.5303L22.0303 12.5303C22.3232 12.2374 22.3232 11.7625 22.0303 11.4696L16.0304 5.46967Z" fill="white"/>
</svg>
