<svg width="24" height="24" viewBox="0 0 24 24" fill="none" xmlns="http://www.w3.org/2000/svg">
<path d="M17.5 8C17.5 8.82843 16.8284 9.5 16 9.5C15.1716 9.5 14.5 8.82843 14.5 8C14.5 7.17157 15.1716 6.5 16 6.5C16.8284 6.5 17.5 7.17157 17.5 8Z" fill="white"/>
<path fill-rule="evenodd" clip-rule="evenodd" d="M3.25 5.5C3.25 4.25736 4.25736 3.25 5.5 3.25H18.5C19.7426 3.25 20.75 4.25736 20.75 5.5V18.5C20.75 19.7426 19.7426 20.75 18.5 20.75H5.5C4.25736 20.75 3.25 19.7426 3.25 18.5V5.5ZM5.5 4.75C5.08579 4.75 4.75 5.08579 4.75 5.5V12.325L7.45687 9.48276C7.59842 9.33412 7.79471 9.25 7.99997 9.25C8.20523 9.25 8.40152 9.33412 8.54307 9.48276L13.3333 14.5125L15.4569 12.2828C15.5984 12.1341 15.7947 12.05 16 12.05C16.2052 12.05 16.4015 12.1341 16.5431 12.2828L19.25 15.125V5.5C19.25 5.08579 18.9142 4.75 18.5 4.75H5.5ZM19.25 17.3L16 13.8875L13.8764 16.1172C13.7348 16.2659 13.5386 16.35 13.3333 16.35C13.128 16.35 12.9318 16.2659 12.7902 16.1172L7.99997 11.0875L4.75 14.5V18.5C4.75 18.9142 5.08579 19.25 5.5 19.25H18.5C18.9142 19.25 19.25 18.9142 19.25 18.5V17.3Z" fill="white"/>
</svg>
