<svg width="24" height="24" viewBox="0 0 24 24" fill="none" xmlns="http://www.w3.org/2000/svg">
<path fill-rule="evenodd" clip-rule="evenodd" d="M2.25 4C2.25 3.0335 3.0335 2.25 4 2.25H5.8125C6.22671 2.25 6.5625 2.58579 6.5625 3C6.5625 3.41421 6.22671 3.75 5.8125 3.75H4C3.86193 3.75 3.75 3.86193 3.75 4V6.5C3.75 6.91421 3.41421 7.25 3 7.25C2.58579 7.25 2.25 6.91421 2.25 6.5V4ZM9.5625 3C9.5625 2.58579 9.89829 2.25 10.3125 2.25H13.6875C14.1017 2.25 14.4375 2.58579 14.4375 3C14.4375 3.41421 14.1017 3.75 13.6875 3.75H10.3125C9.89829 3.75 9.5625 3.41421 9.5625 3ZM17.4375 3C17.4375 2.58579 17.7733 2.25 18.1875 2.25H20C20.9665 2.25 21.75 3.0335 21.75 4V6.5C21.75 6.91421 21.4142 7.25 21 7.25C20.5858 7.25 20.25 6.91421 20.25 6.5V4C20.25 3.86193 20.1381 3.75 20 3.75H18.1875C17.7733 3.75 17.4375 3.41421 17.4375 3ZM3 10.25C3.41421 10.25 3.75 10.5858 3.75 11V13C3.75 13.4142 3.41421 13.75 3 13.75C2.58579 13.75 2.25 13.4142 2.25 13V11C2.25 10.5858 2.58579 10.25 3 10.25ZM21 10.25C21.4142 10.25 21.75 10.5858 21.75 11V13C21.75 13.4142 21.4142 13.75 21 13.75C20.5858 13.75 20.25 13.4142 20.25 13V11C20.25 10.5858 20.5858 10.25 21 10.25ZM3 16.75C3.41421 16.75 3.75 17.0858 3.75 17.5V20C3.75 20.1381 3.86193 20.25 4 20.25H5.8125C6.22671 20.25 6.5625 20.5858 6.5625 21C6.5625 21.4142 6.22671 21.75 5.8125 21.75H4C3.0335 21.75 2.25 20.9665 2.25 20V17.5C2.25 17.0858 2.58579 16.75 3 16.75ZM21 16.75C21.4142 16.75 21.75 17.0858 21.75 17.5V20C21.75 20.9665 20.9665 21.75 20 21.75H18.1875C17.7733 21.75 17.4375 21.4142 17.4375 21C17.4375 20.5858 17.7733 20.25 18.1875 20.25H20C20.1381 20.25 20.25 20.1381 20.25 20V17.5C20.25 17.0858 20.5858 16.75 21 16.75ZM9.5625 21C9.5625 20.5858 9.89829 20.25 10.3125 20.25H13.6875C14.1017 20.25 14.4375 20.5858 14.4375 21C14.4375 21.4142 14.1017 21.75 13.6875 21.75H10.3125C9.89829 21.75 9.5625 21.4142 9.5625 21Z" fill="white"/>
</svg>
