<svg width="24" height="24" viewBox="0 0 24 24" fill="none" xmlns="http://www.w3.org/2000/svg">
<path d="M12 1.75C14.0068 1.75 15.872 2.35628 17.4224 3.39566L16.3372 4.48077C15.0771 3.70044 13.5911 3.25 12 3.25C7.44365 3.25 3.75 6.94365 3.75 11.5C3.75 13.0911 4.20044 14.5771 4.98077 15.8372L3.89566 16.9224C2.85628 15.372 2.25 13.5068 2.25 11.5C2.25 6.11522 6.61522 1.75 12 1.75Z" fill="white"/>
<path fill-rule="evenodd" clip-rule="evenodd" d="M5.93008 19.1306L3.53033 21.5303C3.23744 21.8232 2.76256 21.8232 2.46967 21.5303C2.17678 21.2374 2.17678 20.7626 2.46967 20.4697L20.4697 2.46967C20.7626 2.17678 21.2374 2.17678 21.5303 2.46967C21.8232 2.76256 21.8232 3.23744 21.5303 3.53033L19.6306 5.43008C20.9572 7.09559 21.75 9.20521 21.75 11.5C21.75 13.2031 21.3127 14.8062 20.5438 16.2009L21.2398 20.3767C21.2814 20.6261 21.1945 20.8796 21.0087 21.0511C20.823 21.2226 20.5634 21.2889 20.3181 21.2276L16.3399 20.2331C15.0322 20.8841 13.5578 21.25 12 21.25C9.70521 21.25 7.59559 20.4572 5.93008 19.1306ZM18.5618 6.49881L6.99881 18.0618C8.38632 19.121 10.1197 19.75 12 19.75C13.4093 19.75 14.734 19.3972 15.8928 18.7758C16.0571 18.6877 16.2483 18.664 16.4291 18.7092L19.5721 19.495L19.0204 16.1845C18.9915 16.0108 19.0246 15.8324 19.114 15.6806C19.8358 14.4553 20.25 13.0271 20.25 11.5C20.25 9.6197 19.621 7.88632 18.5618 6.49881Z" fill="white"/>
</svg>
