<svg width="24" height="24" viewBox="0 0 24 24" fill="none" xmlns="http://www.w3.org/2000/svg">
<path fill-rule="evenodd" clip-rule="evenodd" d="M14.8631 5.00473C16.004 3.86398 17.8536 3.86398 18.9945 5.00473C20.1356 6.14569 20.1356 7.99571 18.9945 9.13668L9.90454 18.2255C9.8165 18.3135 9.70793 18.3782 9.58863 18.4138L5.2144 19.7186C4.95106 19.7972 4.66584 19.7254 4.47103 19.5316C4.27622 19.3377 4.20302 19.0529 4.28024 18.7891L5.55238 14.4444C5.58774 14.3236 5.6529 14.2137 5.74187 14.1248L14.8631 5.00473ZM17.9339 6.06546C17.3788 5.51041 16.4788 5.51041 15.9237 6.06546L6.93806 15.0499L6.10739 17.8869L8.97809 17.0306L17.9339 8.07595C18.4891 7.52079 18.4891 6.62062 17.9339 6.06546Z" fill="white"/>
</svg>
