<svg width="24" height="24" viewBox="0 0 24 24" fill="none" xmlns="http://www.w3.org/2000/svg">
<path d="M1.25 5C1.25 4.0335 2.0335 3.25 3 3.25H21C21.9665 3.25 22.75 4.0335 22.75 5V19C22.75 19.9665 21.9665 20.75 21 20.75H12.5V19.25H21C21.1381 19.25 21.25 19.1381 21.25 19V5C21.25 4.86193 21.1381 4.75 21 4.75H3C2.86193 4.75 2.75 4.86193 2.75 5V9H1.25V5Z" fill="white"/>
<path d="M1.25 10.75H2C3.21473 10.75 4.41756 10.9893 5.53982 11.4541C6.66208 11.919 7.6818 12.6003 8.54074 13.4593C9.39968 14.3182 10.081 15.3379 10.5459 16.4602C11.0107 17.5824 11.25 18.7853 11.25 20V20.75H9.75V20C9.75 18.9823 9.54954 17.9745 9.16007 17.0342C8.77059 16.0939 8.19973 15.2396 7.48008 14.5199C6.76042 13.8003 5.90607 13.2294 4.9658 12.8399C4.02552 12.4505 3.01774 12.25 2 12.25H1.25V10.75Z" fill="white"/>
<path d="M2 14.25H1.25V15.75H2C2.55812 15.75 3.11077 15.8599 3.6264 16.0735C4.14204 16.2871 4.61055 16.6001 5.0052 16.9948C5.39985 17.3894 5.71291 17.858 5.92649 18.3736C6.14007 18.8892 6.25 19.4419 6.25 20V20.75H7.75V20C7.75 19.2449 7.60127 18.4972 7.31231 17.7996C7.02334 17.1019 6.5998 16.4681 6.06586 15.9341C5.53193 15.4002 4.89805 14.9767 4.20043 14.6877C3.50281 14.3987 2.7551 14.25 2 14.25Z" fill="white"/>
<path d="M2 17.75H1.25V20.75H4.25V20C4.25 19.7045 4.1918 19.4119 4.07873 19.139C3.96566 18.866 3.79992 18.6179 3.59099 18.409C3.38206 18.2001 3.13402 18.0343 2.86104 17.9213C2.58806 17.8082 2.29547 17.75 2 17.75Z" fill="white"/>
</svg>
