<svg width="24" height="24" viewBox="0 0 24 24" fill="none" xmlns="http://www.w3.org/2000/svg">
<path d="M10.25 11C10.25 10.5858 9.91421 10.25 9.5 10.25C9.08579 10.25 8.75 10.5858 8.75 11V17C8.75 17.4142 9.08579 17.75 9.5 17.75C9.91421 17.75 10.25 17.4142 10.25 17V11Z" fill="white"/>
<path d="M14.5 10.25C14.9142 10.25 15.25 10.5858 15.25 11V17C15.25 17.4142 14.9142 17.75 14.5 17.75C14.0858 17.75 13.75 17.4142 13.75 17V11C13.75 10.5858 14.0858 10.25 14.5 10.25Z" fill="white"/>
<path fill-rule="evenodd" clip-rule="evenodd" d="M6.25 5.75V3.5C6.25 2.5335 7.0335 1.75 8 1.75H16C16.9665 1.75 17.75 2.5335 17.75 3.5V5.75H21.5C21.9142 5.75 22.25 6.08579 22.25 6.5C22.25 6.91421 21.9142 7.25 21.5 7.25H20.25V20C20.25 21.2426 19.2426 22.25 18 22.25H6C4.75736 22.25 3.75 21.2426 3.75 20V7.25H2.5C2.08579 7.25 1.75 6.91421 1.75 6.5C1.75 6.08579 2.08579 5.75 2.5 5.75H6.25ZM7.75 3.5C7.75 3.36193 7.86193 3.25 8 3.25H16C16.1381 3.25 16.25 3.36193 16.25 3.5V5.75H7.75V3.5ZM5.25 7.25H18.75V20C18.75 20.4142 18.4142 20.75 18 20.75H6C5.58579 20.75 5.25 20.4142 5.25 20V7.25Z" fill="white"/>
</svg>
