<svg width="24" height="24" viewBox="0 0 24 24" fill="none" xmlns="http://www.w3.org/2000/svg">
<path fill-rule="evenodd" clip-rule="evenodd" d="M10.2321 3.16261C10.322 2.75826 10.067 2.35763 9.6627 2.26778C9.25835 2.17792 8.85772 2.43287 8.76786 2.83722L7.78726 7.24992H3.5C3.08579 7.24992 2.75 7.5857 2.75 7.99992C2.75 8.41413 3.08579 8.74992 3.5 8.74992H7.45393L6.00948 15.2499H2.5C2.08579 15.2499 1.75 15.5857 1.75 15.9999C1.75 16.4141 2.08579 16.7499 2.5 16.7499H5.67615L4.76786 20.8372C4.678 21.2416 4.93295 21.6422 5.3373 21.7321C5.74165 21.8219 6.14228 21.567 6.23214 21.1626L7.21274 16.7499H14.6761L13.7679 20.8372C13.678 21.2416 13.933 21.6422 14.3373 21.7321C14.7417 21.8219 15.1423 21.567 15.2321 21.1626L16.2127 16.7499H20.5C20.9142 16.7499 21.25 16.4141 21.25 15.9999C21.25 15.5857 20.9142 15.2499 20.5 15.2499H16.5461L17.9905 8.74992H21.5C21.9142 8.74992 22.25 8.41413 22.25 7.99992C22.25 7.5857 21.9142 7.24992 21.5 7.24992H18.3239L19.2321 3.16261C19.322 2.75826 19.067 2.35763 18.6627 2.26778C18.2583 2.17792 17.8577 2.43287 17.7679 2.83722L16.7873 7.24992H9.32385L10.2321 3.16261ZM8.99052 8.74992L7.54607 15.2499H15.0095L16.4539 8.74992H8.99052Z" fill="white"/>
</svg>
