<svg width="24" height="24" viewBox="0 0 24 24" fill="none" xmlns="http://www.w3.org/2000/svg">
<path d="M6.88277 2.81673C6.92304 2.7079 7.07696 2.7079 7.11723 2.81673L7.92537 5.00069C7.93803 5.03491 7.96501 5.06188 7.99922 5.07454L10.1832 5.88268C10.292 5.92295 10.292 6.07688 10.1832 6.11715L7.99922 6.92529C7.96501 6.93795 7.93803 6.96492 7.92537 6.99914L7.11723 9.1831C7.07696 9.29193 6.92304 9.29193 6.88277 9.1831L6.07463 6.99914C6.06197 6.96492 6.03499 6.93795 6.00078 6.92529L3.81681 6.11715C3.70799 6.07688 3.70799 5.92295 3.81681 5.88268L6.00078 5.07454C6.03499 5.06188 6.06197 5.03491 6.07463 5.00069L6.88277 2.81673Z" fill="white"/>
<path fill-rule="evenodd" clip-rule="evenodd" d="M17 3.24991C17.1989 3.24991 17.3897 3.32893 17.5303 3.46958L20.5303 6.4696C20.8232 6.76249 20.8232 7.23737 20.5303 7.53026L7.53035 20.5303C7.23745 20.8232 6.76258 20.8232 6.46969 20.5303L3.46967 17.5303C3.32902 17.3896 3.25 17.1988 3.25 16.9999C3.25 16.801 3.32902 16.6103 3.46967 16.4696L16.4697 3.46959C16.6103 3.32893 16.8011 3.24992 17 3.24991ZM17 5.06058L15.0607 6.99994L17 8.93929L18.9394 6.99993L17 5.06058ZM15.9393 9.99995L14 8.0606L5.06066 16.9999L7.00001 18.9393L15.9393 9.99995Z" fill="white"/>
<path d="M18.1172 13.8167C18.077 13.7079 17.923 13.7079 17.8828 13.8167L17.2097 15.6357C17.197 15.67 17.17 15.6969 17.1358 15.7096L15.3168 16.3827C15.208 16.423 15.208 16.5769 15.3168 16.6171L17.1358 17.2902C17.17 17.3029 17.197 17.3299 17.2097 17.3641L17.8828 19.1831C17.923 19.2919 18.077 19.2919 18.1172 19.1831L18.7903 17.3641C18.803 17.3299 18.83 17.3029 18.8642 17.2902L20.6832 16.6171C20.792 16.5769 20.792 16.423 20.6832 16.3827L18.8642 15.7096C18.83 15.6969 18.803 15.67 18.7903 15.6357L18.1172 13.8167Z" fill="white"/>
</svg>
