<svg width="24" height="24" viewBox="0 0 24 24" fill="none" xmlns="http://www.w3.org/2000/svg">
<path d="M12.25 3C10.4205 3 8.63214 3.5425 7.11098 4.55891C5.58983 5.57531 4.40423 7.01996 3.70412 8.71018C3.00401 10.4004 2.82083 12.2603 3.17774 14.0546C3.53465 15.8489 4.41563 17.4971 5.70927 18.7907C7.0029 20.0844 8.6511 20.9654 10.4454 21.3223C12.2397 21.6792 14.0996 21.496 15.7898 20.7959C17.48 20.0958 18.9247 18.9102 19.9411 17.389C20.9575 15.8679 21.5 14.0795 21.5 12.25C21.5 11.8358 21.8358 11.5 22.25 11.5C22.6642 11.5 23 11.8358 23 12.25C23 14.3761 22.3695 16.4546 21.1883 18.2224C20.0071 19.9902 18.3282 21.3681 16.3639 22.1817C14.3995 22.9953 12.2381 23.2082 10.1528 22.7934C8.06749 22.3787 6.15202 21.3548 4.64861 19.8514C3.14519 18.348 2.12135 16.4325 1.70656 14.3472C1.29177 12.2619 1.50466 10.1005 2.3183 8.13615C3.13194 6.17185 4.5098 4.49293 6.27763 3.3117C8.04545 2.13048 10.1239 1.5 12.25 1.5C12.6642 1.5 13 1.83579 13 2.25C13 2.66421 12.6642 3 12.25 3Z" fill="white"/>
<path d="M18.5155 1.88363C18.5961 1.66597 18.9039 1.66597 18.9845 1.88363L19.9255 4.42678C19.9508 4.49521 20.0048 4.54916 20.0732 4.57449L22.6164 5.51554C22.834 5.59608 22.834 5.90392 22.6164 5.98446L20.0732 6.92551C20.0048 6.95084 19.9508 7.00479 19.9255 7.07322L18.9845 9.61637C18.9039 9.83403 18.5961 9.83403 18.5155 9.61637L17.5745 7.07322C17.5492 7.00479 17.4952 6.95084 17.4268 6.92551L14.8836 5.98446C14.666 5.90392 14.666 5.59608 14.8836 5.51554L17.4268 4.57449C17.4952 4.54916 17.5492 4.49521 17.5745 4.42678L18.5155 1.88363Z" fill="white"/>
<path d="M9.25 11.75C9.80229 11.75 10.25 11.3023 10.25 10.75C10.25 10.1977 9.80229 9.75 9.25 9.75C8.69772 9.75 8.25 10.1977 8.25 10.75C8.25 11.3023 8.69772 11.75 9.25 11.75Z" fill="white"/>
<path d="M16.25 10.75C16.25 11.3023 15.8023 11.75 15.25 11.75C14.6977 11.75 14.25 11.3023 14.25 10.75C14.25 10.1977 14.6977 9.75 15.25 9.75C15.8023 9.75 16.25 10.1977 16.25 10.75Z" fill="white"/>
<path d="M12.25 17.25C10.0112 17.25 8.11602 15.7786 7.47889 13.75H17.0211C16.384 15.7786 14.4888 17.25 12.25 17.25Z" fill="white"/>
</svg>
