<svg width="24" height="24" viewBox="0 0 24 24" fill="none" xmlns="http://www.w3.org/2000/svg">
<path fill-rule="evenodd" clip-rule="evenodd" d="M8.5 1.75C8.91421 1.75 9.25 2.08579 9.25 2.5V4.76266L11.9965 4.75001L12.0048 4.75002L14.5048 4.76614C14.919 4.76882 15.2527 5.10676 15.25 5.52097C15.2473 5.93517 14.9094 6.26879 14.4952 6.26611L12.7272 6.25471C12.5451 9.22885 11.2937 11.357 9.75875 12.8557L9.79876 12.8832C10.8308 13.5899 11.868 14.0643 12.6496 14.3618C12.8709 14.446 13.0706 14.5157 13.2428 14.5722L15.8234 9.17641C15.948 8.91585 16.2112 8.75 16.5 8.75C16.7888 8.75 17.052 8.91585 17.1766 9.17641L22.6766 20.6764C22.8553 21.0501 22.6973 21.4979 22.3236 21.6766C21.9499 21.8553 21.5021 21.6973 21.3234 21.3236L19.8534 18.25H13.1466L11.6766 21.3236C11.4979 21.6973 11.0501 21.8553 10.6764 21.6766C10.3027 21.4979 10.1447 21.0501 10.3234 20.6764L12.5908 15.9355C12.4449 15.8855 12.2859 15.8284 12.116 15.7637C11.257 15.4367 10.1067 14.9121 8.95124 14.1208C8.82711 14.0358 8.70278 13.9476 8.57864 13.8561C8.3547 14.0213 8.12906 14.1756 7.90379 14.3195C6.71067 15.0818 5.52339 15.5592 4.63747 15.8463C4.19324 15.9902 3.82135 16.0875 3.55769 16.1492C3.42577 16.1801 3.32067 16.2021 3.24685 16.2168C3.20993 16.2241 3.18081 16.2296 3.16004 16.2333L3.13521 16.2378L3.12761 16.2391L3.12504 16.2395C3.12504 16.2395 3.1233 16.2398 3 15.5L3.1233 16.2398C2.71472 16.3079 2.3283 16.0319 2.2602 15.6233C2.19216 15.215 2.46808 14.8288 2.87614 14.7603L2.87784 14.76L2.8916 14.7575C2.90488 14.7551 2.9263 14.7511 2.9553 14.7454C3.01331 14.7339 3.10157 14.7154 3.21575 14.6887C3.44428 14.6352 3.77551 14.5488 4.17503 14.4193C4.97661 14.1596 6.03933 13.7307 7.09621 13.0555C7.19439 12.9927 7.29249 12.9279 7.39029 12.861C5.80518 11.3489 4.46987 9.21167 4.27456 6.26613H2.5C2.08579 6.26613 1.75 5.93034 1.75 5.51613C1.75 5.10192 2.08579 4.76613 2.5 4.76613H7.75V2.5C7.75 2.08579 8.08579 1.75 8.5 1.75ZM5.77862 6.26613C5.97462 8.7956 7.15351 10.6154 8.57362 11.9152C9.93447 10.6414 11.0423 8.8311 11.2239 6.25358L8.50346 6.26612L8.5 6.26613H5.77862ZM16.5 11.2383L19.136 16.75H13.864L16.5 11.2383Z" fill="white"/>
</svg>
