<svg width="24" height="24" viewBox="0 0 24 24" fill="none" xmlns="http://www.w3.org/2000/svg">
<path fill-rule="evenodd" clip-rule="evenodd" d="M5.67846 3.53169C6.00279 3.04345 6.55001 2.75 7.13616 2.75H16.8572C17.4496 2.75 18.0017 3.04963 18.3245 3.54626L22.5788 10.0913C22.7642 10.3765 22.7344 10.7508 22.5062 11.0031L13.2941 21.1873C12.6017 21.9528 11.4005 21.9558 10.7043 21.1938L1.39626 11.0059C1.16397 10.7516 1.13468 10.3719 1.32523 10.085L5.67846 3.53169ZM7.13616 4.25C7.05242 4.25 6.97425 4.29192 6.92792 4.36167L3.34856 9.75H9.24996C9.66417 9.75 9.99996 10.0858 9.99996 10.5C9.99996 10.9142 9.66417 11.25 9.24996 11.25H3.65108L11.8117 20.182C11.9112 20.2909 12.0827 20.2905 12.1817 20.1811L20.2602 11.25H14.65C14.2357 11.25 13.9 10.9142 13.9 10.5C13.9 10.0858 14.2357 9.75 14.65 9.75H20.5679L17.0668 4.36375C17.0207 4.2928 16.9418 4.25 16.8572 4.25H7.13616Z" fill="white"/>
</svg>
