<svg width="24" height="24" viewBox="0 0 24 24" fill="none" xmlns="http://www.w3.org/2000/svg">
<path d="M12 2.75C13.8295 2.75 15.6179 3.2925 17.139 4.30891C18.6602 5.32531 19.8458 6.76996 20.5459 8.46018C21.246 10.1504 21.4292 12.0103 21.0723 13.8046C20.7154 15.5989 19.8344 17.2471 18.5407 18.5407C17.2471 19.8344 15.5989 20.7154 13.8046 21.0723C12.0103 21.4292 10.1504 21.246 8.46018 20.5459C6.76996 19.8458 5.32531 18.6602 4.30891 17.139C3.2925 15.6179 2.75 13.8295 2.75 12C2.75 11.6967 2.76492 11.3941 2.79454 11.0933L1.30176 10.9463C1.26734 11.2959 1.25 11.6475 1.25 12C1.25 14.1261 1.88048 16.2046 3.0617 17.9724C4.24293 19.7402 5.92185 21.1181 7.88615 21.9317C9.85046 22.7453 12.0119 22.9582 14.0972 22.5434C16.1825 22.1287 18.098 21.1048 19.6014 19.6014C21.1048 18.098 22.1287 16.1825 22.5434 14.0972C22.9582 12.0119 22.7453 9.85046 21.9317 7.88615C21.1181 5.92185 19.7402 4.24293 17.9724 3.0617C16.2046 1.88048 14.1261 1.25 12 1.25C11.6475 1.25 11.2959 1.26734 10.9463 1.30176L11.0933 2.79454C11.3941 2.76492 11.6967 2.75 12 2.75Z" fill="white"/>
<path d="M9.31487 3.1483C9.02566 3.23603 8.74041 3.33804 8.46018 3.45411C8.17995 3.57019 7.90611 3.69976 7.63958 3.84223L6.93248 2.51935C7.24224 2.35378 7.56048 2.20319 7.88615 2.0683C8.21182 1.9334 8.54333 1.81485 8.87944 1.71289L9.31487 3.1483Z" fill="white"/>
<path d="M6.13186 4.84965C5.89824 5.04138 5.67374 5.24478 5.45926 5.45926C5.24478 5.67374 5.04138 5.89824 4.84965 6.13186L3.69014 5.18027C3.91296 4.90877 4.14934 4.64786 4.3986 4.3986C4.64786 4.14935 4.90877 3.91296 5.18027 3.69014L6.13186 4.84965Z" fill="white"/>
<path d="M3.84223 7.63958C3.69976 7.90611 3.57019 8.17995 3.45411 8.46018C3.33804 8.74041 3.23603 9.02566 3.1483 9.31487L1.71289 8.87944C1.81485 8.54333 1.9334 8.21182 2.06829 7.88615C2.20319 7.56048 2.35378 7.24224 2.51935 6.93248L3.84223 7.63958Z" fill="white"/>
</svg>
