<svg width="24" height="24" viewBox="0 0 24 24" fill="none" xmlns="http://www.w3.org/2000/svg">
<path d="M8.5 3.75C8.91421 3.75 9.25 3.41421 9.25 3C9.25 2.58579 8.91421 2.25 8.5 2.25H5.5C4.5335 2.25 3.75 3.0335 3.75 4V20C3.75 20.9665 4.5335 21.75 5.5 21.75H8.5C8.91421 21.75 9.25 21.4142 9.25 21C9.25 20.5858 8.91421 20.25 8.5 20.25H5.5C5.36193 20.25 5.25 20.1381 5.25 20L5.25 4C5.25 3.86193 5.36193 3.75 5.5 3.75L8.5 3.75Z" fill="white"/>
<path d="M7.5 12.7501C7.08579 12.7501 6.75 12.4143 6.75 12.0001C6.75 11.5858 7.08579 11.2501 7.5 11.2501L19.6894 11.2501L14.9697 6.53033C14.6768 6.23743 14.6768 5.76256 14.9697 5.46967C15.2626 5.17678 15.7374 5.17678 16.0303 5.46967L22.0303 11.4697C22.3232 11.7626 22.3232 12.2375 22.0303 12.5304L16.0303 18.5304C15.7374 18.8233 15.2626 18.8233 14.9697 18.5304C14.6768 18.2375 14.6768 17.7626 14.9697 17.4697L19.6893 12.7501L7.5 12.7501Z" fill="white"/>
</svg>
