<svg width="24" height="24" viewBox="0 0 24 24" fill="none" xmlns="http://www.w3.org/2000/svg">
<path fill-rule="evenodd" clip-rule="evenodd" d="M2 12C2 6.47715 6.47715 2 12 2C17.5228 2 22 6.47715 22 12C22 17.5228 17.5228 22 12 22C6.47715 22 2 17.5228 2 12ZM16.5303 10.9697C16.8232 11.2626 16.8232 11.7374 16.5303 12.0303C16.2374 12.3232 15.7626 12.3232 15.4697 12.0303L12.75 9.31066L12.75 16.5C12.75 16.9142 12.4142 17.25 12 17.25C11.5858 17.25 11.25 16.9142 11.25 16.5V9.31066L8.53033 12.0303C8.23744 12.3232 7.76256 12.3232 7.46967 12.0303C7.17678 11.7374 7.17678 11.2626 7.46967 10.9697L11.4697 6.96967C11.6103 6.82902 11.8011 6.75 12 6.75C12.1989 6.75 12.3897 6.82902 12.5303 6.96967L16.5303 10.9697Z" fill="white"/>
</svg>
