<svg width="24" height="24" viewBox="0 0 24 24" fill="none" xmlns="http://www.w3.org/2000/svg">
<path fill-rule="evenodd" clip-rule="evenodd" d="M3 4.25C2.86193 4.25 2.75 4.36193 2.75 4.5V19.5C2.75 19.6381 2.86193 19.75 3 19.75H21C21.1381 19.75 21.25 19.6381 21.25 19.5V7.5C21.25 7.36193 21.1381 7.25 21 7.25H12.4684C11.949 7.25 11.4565 7.01931 11.124 6.62032L9.22368 4.33995C9.17618 4.28296 9.10582 4.25 9.03163 4.25H3ZM1.25 4.5C1.25 3.5335 2.0335 2.75 3 2.75H9.03163C9.55099 2.75 10.0435 2.98069 10.376 3.37968L12.2763 5.66005C12.3238 5.71704 12.3942 5.75 12.4684 5.75H21C21.9665 5.75 22.75 6.5335 22.75 7.5V19.5C22.75 20.4665 21.9665 21.25 21 21.25H3C2.0335 21.25 1.25 20.4665 1.25 19.5V4.5Z" fill="white"/>
</svg>
