<svg width="24" height="24" viewBox="0 0 24 24" fill="none" xmlns="http://www.w3.org/2000/svg">
<path fill-rule="evenodd" clip-rule="evenodd" d="M20 12C20 16.4183 16.4183 20 12 20C7.58172 20 4 16.4183 4 12C4 7.58172 7.58172 4 12 4C16.4183 4 20 7.58172 20 12ZM14.8283 14.8284C14.5354 15.1213 14.0605 15.1213 13.7676 14.8284L12 13.0608L10.2322 14.8285C9.93933 15.1214 9.46445 15.1214 9.17156 14.8285C8.87867 14.5356 8.87867 14.0608 9.17156 13.7679L10.9393 12.0001L9.17144 10.2322C8.87855 9.93934 8.87855 9.46447 9.17144 9.17157C9.46434 8.87868 9.93921 8.87868 10.2321 9.17157L12 10.9395L13.7678 9.17169C14.0606 8.87879 14.5355 8.87879 14.8284 9.17169C15.1213 9.46458 15.1213 9.93945 14.8284 10.2323L13.0606 12.0001L14.8283 13.7678C15.1212 14.0607 15.1212 14.5355 14.8283 14.8284Z" fill="white"/>
</svg>
