<svg width="24" height="24" viewBox="0 0 24 24" fill="none" xmlns="http://www.w3.org/2000/svg">
<path d="M2.5 5.25C2.08579 5.25 1.75 5.58579 1.75 6C1.75 6.41421 2.08579 6.75 2.5 6.75H21.5C21.9142 6.75 22.25 6.41421 22.25 6C22.25 5.58579 21.9142 5.25 21.5 5.25H2.5Z" fill="white"/>
<path d="M3.75 12C3.75 11.5858 4.08579 11.25 4.5 11.25L19.5 11.25C19.9142 11.25 20.25 11.5858 20.25 12C20.25 12.4142 19.9142 12.75 19.5 12.75L4.5 12.75C4.08579 12.75 3.75 12.4142 3.75 12Z" fill="white"/>
<path d="M6.75 18C6.75 17.5858 7.08579 17.25 7.5 17.25H16.5C16.9142 17.25 17.25 17.5858 17.25 18C17.25 18.4142 16.9142 18.75 16.5 18.75H7.5C7.08579 18.75 6.75 18.4142 6.75 18Z" fill="white"/>
</svg>
