<svg width="24" height="24" viewBox="0 0 24 24" fill="none" xmlns="http://www.w3.org/2000/svg">
<path d="M4.35095 2.33717C4.08529 2.19652 3.76132 2.22808 3.5278 2.41735C3.29427 2.60661 3.19631 2.91702 3.27889 3.20605L5.27889 10.206C5.35567 10.4748 5.57553 10.6785 5.84933 10.7347L12.0177 12L5.84933 13.2653C5.57553 13.3215 5.35567 13.5252 5.27889 13.794L3.27889 20.794C3.19631 21.083 3.29427 21.3934 3.5278 21.5827C3.76132 21.7719 4.08529 21.8035 4.35095 21.6628L21.351 12.6628C21.5965 12.5329 21.75 12.2778 21.75 12C21.75 11.7222 21.5965 11.4671 21.351 11.3372L4.35095 2.33717Z" fill="white"/>
</svg>
