<svg width="24" height="24" viewBox="0 0 24 24" fill="none" xmlns="http://www.w3.org/2000/svg">
<path fill-rule="evenodd" clip-rule="evenodd" d="M3.25 3C3.25 2.0335 4.0335 1.25 5 1.25H19C19.9665 1.25 20.75 2.0335 20.75 3V21.0979C20.75 22.0797 19.6701 22.6782 18.8375 22.1579L12 17.8844L5.1625 22.1579C4.32993 22.6782 3.25 22.0797 3.25 21.0979V3ZM5 2.75C4.86193 2.75 4.75 2.86193 4.75 3V20.6468L11.3375 16.5296C11.7428 16.2763 12.2572 16.2763 12.6625 16.5296L19.25 20.6468V3C19.25 2.86193 19.1381 2.75 19 2.75H5Z" fill="white"/>
</svg>
