<svg width="24" height="24" viewBox="0 0 24 24" fill="none" xmlns="http://www.w3.org/2000/svg">
<path fill-rule="evenodd" clip-rule="evenodd" d="M5.2002 13.3737C5.2002 13.7845 5.42915 14.0168 5.81972 14.0168C6.21029 14.0168 6.43588 13.7845 6.43588 13.3737V12.5185H7.23049C8.3113 12.5185 9.0554 11.8418 9.0554 10.8048C9.0554 9.761 8.34834 9.08424 7.30457 9.08424H5.81972C5.42915 9.08424 5.2002 9.31993 5.2002 9.7307V13.3737ZM6.97123 11.5893H6.43588V10.0304H6.97797C7.49649 10.0304 7.80625 10.3031 7.80625 10.8081C7.80625 11.3165 7.49649 11.5893 6.97123 11.5893Z" fill="currentColor"/>
<path fill-rule="evenodd" clip-rule="evenodd" d="M12.0426 14.0269C10.5678 14.0269 9.6419 13.0639 9.6419 11.5151C9.6419 9.96631 10.5712 9 12.0426 9C13.5139 9 14.4399 9.96631 14.4399 11.5151C14.4399 13.0639 13.5139 14.0269 12.0426 14.0269ZM12.0426 13.0235C12.7328 13.0235 13.184 12.4377 13.184 11.5151C13.184 10.5892 12.7328 10.0034 12.0426 10.0034C11.3523 10.0034 10.9012 10.5892 10.9012 11.5151C10.9012 12.4377 11.349 13.0235 12.0426 13.0235Z" fill="currentColor"/>
<path fill-rule="evenodd" clip-rule="evenodd" d="M15.2146 13.3737C15.2146 13.7845 15.4436 14.0168 15.8342 14.0168C16.2247 14.0168 16.4503 13.7845 16.4503 13.3737V12.5185H17.2449C18.3258 12.5185 19.0699 11.8418 19.0699 10.8047C19.0699 9.76099 18.3628 9.08423 17.319 9.08423H15.8342C15.4436 9.08423 15.2146 9.31991 15.2146 9.73068V13.3737ZM16.9857 11.5892H16.4503V10.0303H16.9924C17.5109 10.0303 17.8207 10.3031 17.8207 10.8081C17.8207 11.3165 17.5109 11.5892 16.9857 11.5892Z" fill="currentColor"/>
<path fill-rule="evenodd" clip-rule="evenodd" d="M4 2.75C2.48122 2.75 1.25 3.98122 1.25 5.5V17.5C1.25 19.0188 2.48122 20.25 4 20.25H9.63953L11.4143 22.4685C11.5567 22.6464 11.7722 22.75 12 22.75C12.2278 22.75 12.4433 22.6464 12.5857 22.4685L14.3605 20.25H20C21.5188 20.25 22.75 19.0188 22.75 17.5V5.5C22.75 3.98122 21.5188 2.75 20 2.75H4ZM2.75 5.5C2.75 4.80964 3.30964 4.25 4 4.25H20C20.6904 4.25 21.25 4.80964 21.25 5.5V17.5C21.25 18.1904 20.6904 18.75 20 18.75H14C13.7722 18.75 13.5567 18.8536 13.4143 19.0315L12 20.7994L10.5857 19.0315C10.4433 18.8536 10.2278 18.75 10 18.75H4C3.30964 18.75 2.75 18.1904 2.75 17.5V5.5Z" fill="currentColor"/>
</svg>
