<svg width="24" height="24" viewBox="0 0 24 24" fill="none" xmlns="http://www.w3.org/2000/svg">
<path fill-rule="evenodd" clip-rule="evenodd" d="M12.0538 2.92786C12.0183 2.92004 11.9816 2.92004 11.9461 2.92786L11.9476 2.92743M11.619 1.46396C11.8699 1.40801 12.13 1.40801 12.3809 1.46396C12.6692 1.52825 12.9252 1.68557 13.165 1.83294C13.1852 1.84537 13.2054 1.85773 13.2254 1.86995L20.6254 6.39217C20.6437 6.4034 20.6623 6.41466 20.6809 6.42599C20.903 6.56105 21.1404 6.70535 21.3207 6.9128C21.4777 7.09345 21.596 7.30439 21.6683 7.53258C21.7513 7.79462 21.7507 8.07239 21.7501 8.33237C21.75 8.35418 21.75 8.37585 21.75 8.39739V19.4263C21.75 19.6838 21.75 19.9202 21.7338 20.1179C21.7164 20.3311 21.6766 20.5642 21.5592 20.7945C21.3914 21.1238 21.1237 21.3915 20.7944 21.5593C20.5641 21.6767 20.331 21.7165 20.1178 21.7339C19.9201 21.7501 19.6837 21.7501 19.4262 21.7501H4.57372C4.31624 21.7501 4.07977 21.7501 3.88208 21.7339C3.66895 21.7165 3.43578 21.6767 3.20547 21.5593C2.87619 21.3915 2.60847 21.1238 2.4407 20.7945C2.32335 20.5642 2.28349 20.3311 2.26607 20.1179C2.24992 19.9202 2.24994 19.6838 2.24996 19.4263L2.24996 8.39739C2.24996 8.37585 2.24991 8.35418 2.24986 8.33238C2.24926 8.07239 2.24863 7.79462 2.33161 7.53258C2.40387 7.30439 2.52217 7.09345 2.6792 6.9128C2.85953 6.70535 3.09687 6.56105 3.31902 6.42599C3.33765 6.41466 3.35618 6.4034 3.37455 6.39217L10.7746 1.86995C10.7946 1.85773 10.8147 1.84537 10.8349 1.83294C11.0747 1.68558 11.3307 1.52825 11.619 1.46396ZM11.8776 2.95994C11.8068 2.99742 11.7159 3.05258 11.5567 3.14987L4.15672 7.6721C4.00987 7.76184 3.92679 7.81296 3.8663 7.85493C3.82896 7.88084 3.81467 7.89363 3.81102 7.89717M3.76174 7.98504C3.76062 7.99 3.75716 8.00886 3.75452 8.05424C3.75025 8.12774 3.74996 8.22528 3.74996 8.39739V19.4001C3.74996 19.6925 3.75054 19.8667 3.76109 19.9958C3.76753 20.0746 3.77603 20.1077 3.77878 20.1166C3.8023 20.1612 3.83878 20.1977 3.88342 20.2212C3.89229 20.224 3.92542 20.2325 4.00423 20.2389C4.13336 20.2495 4.30755 20.2501 4.59996 20.2501H11.25V15.9517C11.25 15.5375 11.5857 15.2017 12 15.2017C12.4142 15.2017 12.75 15.5375 12.75 15.9517V20.2501H19.4C19.6924 20.2501 19.8666 20.2495 19.9957 20.2389C20.0745 20.2325 20.1076 20.224 20.1165 20.2212C20.1611 20.1977 20.1976 20.1612 20.2211 20.1166C20.2239 20.1077 20.2324 20.0746 20.2388 19.9958C20.2494 19.8667 20.25 19.6925 20.25 19.4001V8.39739C20.25 8.22528 20.2497 8.12774 20.2454 8.05424C20.2428 8.00886 20.2393 7.99 20.2382 7.98504C20.2279 7.95271 20.2111 7.92281 20.1889 7.89716C20.1852 7.89361 20.1709 7.88083 20.1336 7.85493C20.0731 7.81296 19.99 7.76184 19.8432 7.6721L12.4432 3.14987C12.284 3.05258 12.1931 2.99742 12.1223 2.95994C12.0786 2.93686 12.0591 2.92957 12.0538 2.92786L12.0523 2.92743M20.2202 20.1192L20.2208 20.1177L20.2202 20.1192ZM20.1191 20.2203L20.1176 20.2209L20.1191 20.2203ZM3.88083 20.2203L3.88231 20.2209L3.88083 20.2203ZM3.77914 20.1177L3.77968 20.1192L3.77914 20.1177ZM3.76211 7.98364L3.76174 7.98504L3.76211 7.98364ZM11.8776 2.95994C11.9213 2.93686 11.9408 2.92957 11.9461 2.92786L11.8776 2.95994Z" fill="white"/>
</svg>
