<svg width="24" height="24" viewBox="0 0 24 24" fill="none" xmlns="http://www.w3.org/2000/svg">
<path fill-rule="evenodd" clip-rule="evenodd" d="M12 1.25C7.44365 1.25 3.75 4.94365 3.75 9.5V17.25H2.5C2.08579 17.25 1.75 17.5858 1.75 18C1.75 18.4142 2.08579 18.75 2.5 18.75H8.25V19C8.25 21.0711 9.92893 22.75 12 22.75C14.0711 22.75 15.75 21.0711 15.75 19V18.75H21.5C21.9142 18.75 22.25 18.4142 22.25 18C22.25 17.5858 21.9142 17.25 21.5 17.25H20.25V9.5C20.25 4.94365 16.5563 1.25 12 1.25ZM14.25 18.75V19C14.25 20.2426 13.2426 21.25 12 21.25C10.7574 21.25 9.75 20.2426 9.75 19V18.75H14.25ZM18.75 17.25V9.5C18.75 5.77208 15.7279 2.75 12 2.75C8.27208 2.75 5.25 5.77208 5.25 9.5V17.25H18.75Z" fill="white"/>
</svg>
