<svg width="24" height="24" viewBox="0 0 24 24" fill="none" xmlns="http://www.w3.org/2000/svg">
<path fill-rule="evenodd" clip-rule="evenodd" d="M21 12.2499C21.4142 12.2499 21.75 12.5857 21.75 12.9999V19.9999C21.75 20.9664 20.9665 21.7499 20 21.7499H4C3.0335 21.7499 2.25 20.9664 2.25 19.9999V12.9999C2.25002 12.5857 2.5858 12.2499 3 12.2499C3.4142 12.2499 3.74998 12.5857 3.75 12.9999V19.9999C3.75 20.138 3.86193 20.2499 4 20.2499H20C20.1381 20.2499 20.25 20.138 20.25 19.9999V12.9999C20.25 12.5857 20.5858 12.2499 21 12.2499ZM11.4697 2.46963C11.7626 2.17677 12.2374 2.17681 12.5303 2.46963L17.5303 7.46963C17.8232 7.76253 17.8232 8.23729 17.5303 8.53018C17.2374 8.82306 16.7626 8.82307 16.4697 8.53018L12.75 4.81045V15.9999C12.75 16.4141 12.4142 16.7499 12 16.7499C11.5858 16.7499 11.25 16.4141 11.25 15.9999V4.81045L7.53027 8.53018L7.47363 8.58194C7.17905 8.82224 6.74433 8.80478 6.46973 8.53018C6.19518 8.25557 6.17768 7.82083 6.41797 7.52627L6.46973 7.46963L11.4697 2.46963Z" fill="white"/>
</svg>
