<svg width="24" height="24" viewBox="0 0 24 24" fill="none" xmlns="http://www.w3.org/2000/svg">
<path fill-rule="evenodd" clip-rule="evenodd" d="M12 2.25C9.37245 2.25 7.25 4.37245 7.25 7C7.25 9.62755 9.37245 11.75 12 11.75C14.6275 11.75 16.75 9.62755 16.75 7C16.75 4.37245 14.6275 2.25 12 2.25ZM8.75 7C8.75 5.20088 10.2009 3.75 12 3.75C13.7991 3.75 15.25 5.20088 15.25 7C15.25 8.79912 13.7991 10.25 12 10.25C10.2009 10.25 8.75 8.79912 8.75 7Z" fill="white"/>
<path d="M6 13.25C3.92893 13.25 2.25 14.9289 2.25 17V21C2.25 21.4142 2.58579 21.75 3 21.75C3.41421 21.75 3.75 21.4142 3.75 21V17C3.75 15.7574 4.75736 14.75 6 14.75H18C19.2426 14.75 20.25 15.7574 20.25 17V21C20.25 21.4142 20.5858 21.75 21 21.75C21.4142 21.75 21.75 21.4142 21.75 21V17C21.75 14.9289 20.0711 13.25 18 13.25H6Z" fill="white"/>
</svg>
