<svg width="24" height="24" viewBox="0 0 24 24" fill="none" xmlns="http://www.w3.org/2000/svg">
<path d="M12.75 6C12.75 5.58579 12.4142 5.25 12 5.25C11.5858 5.25 11.25 5.58579 11.25 6V7.25H8.5C7.5335 7.25 6.75 8.0335 6.75 9V11C6.75 11.9665 7.5335 12.75 8.5 12.75H15.5C15.6381 12.75 15.75 12.8619 15.75 13V15C15.75 15.1381 15.6381 15.25 15.5 15.25H7.5C7.08579 15.25 6.75 15.5858 6.75 16C6.75 16.4142 7.08579 16.75 7.5 16.75H11.25V18C11.25 18.4142 11.5858 18.75 12 18.75C12.4142 18.75 12.75 18.4142 12.75 18V16.75H15.5C16.4665 16.75 17.25 15.9665 17.25 15V13C17.25 12.0335 16.4665 11.25 15.5 11.25H8.5C8.36193 11.25 8.25 11.1381 8.25 11V9C8.25 8.86193 8.36193 8.75 8.5 8.75H16.5C16.9142 8.75 17.25 8.41421 17.25 8C17.25 7.58579 16.9142 7.25 16.5 7.25H12.75V6Z" fill="white"/>
<path fill-rule="evenodd" clip-rule="evenodd" d="M12 1.25C6.06294 1.25 1.25 6.06294 1.25 12C1.25 17.9371 6.06294 22.75 12 22.75C17.9371 22.75 22.75 17.9371 22.75 12C22.75 6.06294 17.9371 1.25 12 1.25ZM2.75 12C2.75 6.89137 6.89137 2.75 12 2.75C17.1086 2.75 21.25 6.89137 21.25 12C21.25 17.1086 17.1086 21.25 12 21.25C6.89137 21.25 2.75 17.1086 2.75 12Z" fill="white"/>
</svg>
