<svg width="24" height="24" viewBox="0 0 24 24" fill="none" xmlns="http://www.w3.org/2000/svg">
<path fill-rule="evenodd" clip-rule="evenodd" d="M18.7313 2.49055C19.3309 2.03716 20.0802 2.02178 20.6627 2.28041C21.2512 2.5417 21.75 3.12333 21.75 3.9142V18.0858C21.75 18.8773 21.2497 19.4593 20.662 19.7214C20.0799 19.981 19.3287 19.9687 18.7276 19.5138C16.0203 17.4653 13.017 16.4657 10.75 16.2815V20.5001C10.75 20.8229 10.5434 21.1095 10.2372 21.2116L7.23717 22.2116C7.03898 22.2777 6.82222 22.2581 6.63909 22.1575C6.45596 22.057 6.32306 21.8846 6.27239 21.682L4.91442 16.25H3.5C2.5335 16.25 1.75 15.4665 1.75 14.5V6.99999C1.75 6.03349 2.5335 5.24999 3.5 5.24999H10C12.4591 5.24999 15.5382 4.90521 18.7313 2.49055ZM5.48296 14.75C5.49473 14.7497 5.50647 14.7497 5.51817 14.75H9.25V6.74999H3.5C3.36193 6.74999 3.25 6.86192 3.25 6.99999V14.5C3.25 14.6381 3.36193 14.75 3.5 14.75H5.48296ZM10.75 6.73885C13.2697 6.66091 16.41 6.1266 19.6361 3.68697C19.7471 3.60299 19.906 3.58564 20.054 3.65135C20.196 3.7144 20.25 3.81417 20.25 3.9142V18.0858C20.25 18.1852 20.1956 18.287 20.051 18.3515C19.9007 18.4185 19.742 18.4004 19.6327 18.3177C16.6709 16.0766 13.3426 14.9607 10.75 14.7772V6.73885ZM9.25 16.25H6.46059L7.53118 20.5325L9.25 19.9595V16.25Z" fill="white"/>
</svg>
