<svg width="24" height="24" viewBox="0 0 24 24" fill="none" xmlns="http://www.w3.org/2000/svg">
<path fill-rule="evenodd" clip-rule="evenodd" d="M7.43269 4.25C6.33626 4.25 5.27637 4.70833 4.48862 5.53792C3.69961 6.36882 3.25 7.50369 3.25 8.69464C3.25 10.0961 3.77586 11.5222 4.6236 12.9035C5.46958 14.282 6.6095 15.5723 7.76972 16.6875C8.92748 17.8002 10.0883 18.7223 10.9611 19.3668C11.3904 19.6837 11.7484 19.9324 12 20.1023C12.2516 19.9324 12.6096 19.6837 13.0389 19.3668C13.9117 18.7223 15.0725 17.8002 16.2303 16.6875C17.3905 15.5723 18.5304 14.282 19.3764 12.9035C20.2241 11.5222 20.75 10.0961 20.75 8.69464C20.75 7.50369 20.3004 6.36882 19.5114 5.53792C18.7236 4.70833 17.6637 4.25 16.5673 4.25C14.8037 4.25 13.3198 5.25295 12.699 6.85003C12.587 7.13837 12.3094 7.32831 12 7.32831C11.6906 7.32831 11.413 7.13837 11.301 6.85003C10.6802 5.25295 9.19629 4.25 7.43269 4.25ZM12 21C11.6016 21.6354 11.6014 21.6353 11.6012 21.6352L11.5987 21.6336L11.5923 21.6296L11.5695 21.6151C11.5498 21.6025 11.5214 21.5843 11.4849 21.5606C11.4118 21.5132 11.3061 21.4436 11.1723 21.3534C10.9049 21.1729 10.525 20.9093 10.0701 20.5735C9.16168 19.9027 7.94752 18.9389 6.73028 17.7689C5.5155 16.6013 4.28042 15.2121 3.34515 13.6881C2.41164 12.167 1.75 10.4677 1.75 8.69464C1.75 7.13019 2.33978 5.6225 3.40089 4.50504C4.46325 3.38626 5.91266 2.75 7.43269 2.75C9.29263 2.75 10.9592 3.59564 12 5.02388C13.0408 3.59564 14.7074 2.75 16.5673 2.75C18.0873 2.75 19.5368 3.38626 20.5991 4.50504C21.6602 5.6225 22.25 7.13019 22.25 8.69464C22.25 10.4677 21.5884 12.167 20.6548 13.6881C19.7196 15.2121 18.4845 16.6013 17.2697 17.7689C16.0525 18.9389 14.8383 19.9027 13.9299 20.5735C13.475 20.9093 13.0951 21.1729 12.8277 21.3534C12.6939 21.4436 12.5882 21.5132 12.5151 21.5606C12.4786 21.5843 12.4502 21.6025 12.4305 21.6151L12.4077 21.6296L12.4013 21.6336L12.3994 21.6348C12.3992 21.6349 12.3984 21.6354 12 21ZM12 21L12.3984 21.6354C12.1548 21.7882 11.8448 21.7879 11.6012 21.6352L12 21Z" fill="white"/>
</svg>
