<svg width="24" height="24" viewBox="0 0 24 24" fill="none" xmlns="http://www.w3.org/2000/svg">
<path fill-rule="evenodd" clip-rule="evenodd" d="M12 1.25C7.44365 1.25 3.75 4.94365 3.75 9.5V17.25H2.5C2.08579 17.25 1.75 17.5858 1.75 18C1.75 18.4142 2.08579 18.75 2.5 18.75H8.25V19C8.25 21.0711 9.92893 22.75 12 22.75C14.0711 22.75 15.75 21.0711 15.75 19V18.75H21.5C21.9142 18.75 22.25 18.4142 22.25 18C22.25 17.5858 21.9142 17.25 21.5 17.25H20.25V13C20.25 12.5858 19.9142 12.25 19.5 12.25C19.0858 12.25 18.75 12.5858 18.75 13V17.25H5.25V9.5C5.25 5.77208 8.27208 2.75 12 2.75C12.4142 2.75 12.75 2.41421 12.75 2C12.75 1.58579 12.4142 1.25 12 1.25ZM9.75 18.75V19C9.75 20.2426 10.7574 21.25 12 21.25C13.2426 21.25 14.25 20.2426 14.25 19V18.75H9.75Z" fill="white"/>
<path fill-rule="evenodd" clip-rule="evenodd" d="M18.25 2C18.25 1.58579 17.9142 1.25 17.5 1.25C17.0858 1.25 16.75 1.58579 16.75 2V3.08054C16.3393 3.17022 15.9555 3.332 15.6126 3.55197L14.7803 2.71967C14.4874 2.42678 14.0126 2.42678 13.7197 2.71967C13.4268 3.01256 13.4268 3.48744 13.7197 3.78033L14.552 4.61263C14.332 4.95551 14.1702 5.33928 14.0805 5.75H13C12.5858 5.75 12.25 6.08579 12.25 6.5C12.25 6.91421 12.5858 7.25 13 7.25H14.0805C14.1702 7.66072 14.332 8.04449 14.552 8.38737L13.7197 9.21967C13.4268 9.51256 13.4268 9.98744 13.7197 10.2803C14.0126 10.5732 14.4874 10.5732 14.7803 10.2803L15.6126 9.44803C15.9555 9.668 16.3393 9.82978 16.75 9.91946V11C16.75 11.4142 17.0858 11.75 17.5 11.75C17.9142 11.75 18.25 11.4142 18.25 11V9.91946C18.6607 9.82978 19.0445 9.668 19.3874 9.44803L20.2197 10.2803C20.5126 10.5732 20.9874 10.5732 21.2803 10.2803C21.5732 9.98744 21.5732 9.51256 21.2803 9.21967L20.448 8.38737C20.668 8.04449 20.8298 7.66072 20.9195 7.25H22C22.4142 7.25 22.75 6.91421 22.75 6.5C22.75 6.08579 22.4142 5.75 22 5.75H20.9195C20.8298 5.33928 20.668 4.95551 20.448 4.61263L21.2803 3.78033C21.5732 3.48744 21.5732 3.01256 21.2803 2.71967C20.9874 2.42678 20.5126 2.42678 20.2197 2.71967L19.3874 3.55197C19.0445 3.332 18.6607 3.17022 18.25 3.08054V2ZM18.25 4.64538C18.0184 4.55163 17.7652 4.5 17.5 4.5C17.2348 4.5 16.9816 4.55163 16.75 4.64538L16.7189 4.65827C16.2424 4.8606 15.8606 5.24244 15.6583 5.71893L15.6454 5.75C15.5516 5.98161 15.5 6.23478 15.5 6.5C15.5 6.76523 15.5516 7.01839 15.6454 7.25L15.6583 7.28107C15.8606 7.75756 16.2424 8.1394 16.7189 8.34173L16.75 8.35462C16.9816 8.44837 17.2348 8.5 17.5 8.5C17.7652 8.5 18.0184 8.44837 18.25 8.35462L18.2811 8.34173C18.7576 8.1394 19.1394 7.75756 19.3417 7.28107L19.3546 7.25C19.4484 7.01839 19.5 6.76522 19.5 6.5C19.5 6.23478 19.4484 5.98161 19.3546 5.75L19.3417 5.71893C19.1394 5.24244 18.7576 4.8606 18.2811 4.65827L18.25 4.64538Z" fill="white"/>
</svg>
