<svg width="24" height="24" viewBox="0 0 24 24" fill="none" xmlns="http://www.w3.org/2000/svg">
<path d="M12 20.2998V22H4.15625V20.2998H12ZM15.8345 20.2998V22H12V20.2998H15.8345ZM20.2998 15.7559V4C20.2998 3.83432 20.1657 3.7002 20 3.7002H4.15625C3.99057 3.7002 3.85645 3.83431 3.85645 4V20C3.85645 20.1657 3.99056 20.2998 4.15625 20.2998V22L4.05322 21.9976C3.03065 21.9457 2.21058 21.1256 2.15869 20.103L2.15625 20V4C2.15625 2.89543 3.05168 2 4.15625 2H20L20.103 2.00244C21.1597 2.05606 22 2.92998 22 4V15.7559C22 16.2358 21.8273 16.6997 21.5137 17.063L17.3481 21.3071C16.9682 21.747 16.4157 22 15.8345 22V20.2998C15.9216 20.2998 16.0045 20.2621 16.0615 20.1963L20.2271 15.9521C20.2741 15.8977 20.2998 15.8279 20.2998 15.7559Z" fill="white"/>
<path d="M15.5636 8.4826C15.8908 8.127 16.4443 8.10378 16.8 8.43084C17.1556 8.75799 17.1788 9.31153 16.8517 9.66717L12.0012 14.9665C11.5103 15.5 10.6739 15.5172 10.1613 15.0046L7.45623 12.2995C7.11452 11.9578 7.11452 11.4039 7.45623 11.0622C7.79794 10.7205 8.35183 10.7205 8.69354 11.0622L11.048 13.4167L15.5636 8.4826Z" fill="white"/>
</svg>
