<svg width="24" height="24" viewBox="0 0 24 24" fill="none" xmlns="http://www.w3.org/2000/svg">
<path d="M14 10.25C14.4142 10.25 14.75 10.5858 14.75 11V13C14.75 13.4142 14.4142 13.75 14 13.75C13.5858 13.75 13.25 13.4142 13.25 13V11C13.25 10.5858 13.5858 10.25 14 10.25Z" fill="white"/>
<path fill-rule="evenodd" clip-rule="evenodd" d="M3 3.25C2.0335 3.25 1.25 4.0335 1.25 5V9.5C1.25 9.91421 1.58579 10.25 2 10.25C2.9665 10.25 3.75 11.0335 3.75 12C3.75 12.9665 2.9665 13.75 2 13.75C1.58579 13.75 1.25 14.0858 1.25 14.5V19C1.25 19.9665 2.0335 20.75 3 20.75H21C21.9665 20.75 22.75 19.9665 22.75 19V14.5C22.75 14.0858 22.4142 13.75 22 13.75C21.0335 13.75 20.25 12.9665 20.25 12C20.25 11.0335 21.0335 10.25 22 10.25C22.4142 10.25 22.75 9.91421 22.75 9.5V5C22.75 4.0335 21.9665 3.25 21 3.25H3ZM14.75 19.25V16C14.75 15.5858 14.4142 15.25 14 15.25C13.5858 15.25 13.25 15.5858 13.25 16V19.25H3C2.86193 19.25 2.75 19.1381 2.75 19V15.163C4.18335 14.8245 5.25 13.5368 5.25 12C5.25 10.4632 4.18335 9.17555 2.75 8.83697V5C2.75 4.86193 2.86193 4.75 3 4.75H13.25V8C13.25 8.41421 13.5858 8.75 14 8.75C14.4142 8.75 14.75 8.41421 14.75 8V4.75H21C21.1381 4.75 21.25 4.86193 21.25 5V8.83697C19.8167 9.17555 18.75 10.4632 18.75 12C18.75 13.5368 19.8167 14.8245 21.25 15.163V19C21.25 19.1381 21.1381 19.25 21 19.25H14.75Z" fill="white"/>
</svg>
