<svg width="24" height="24" viewBox="0 0 24 24" fill="none" xmlns="http://www.w3.org/2000/svg">
<path fill-rule="evenodd" clip-rule="evenodd" d="M12 2.25C9.37244 2.25 7.24999 4.37245 7.24999 7C7.24999 9.62755 9.37244 11.75 12 11.75C14.6275 11.75 16.75 9.62755 16.75 7C16.75 4.37245 14.6275 2.25 12 2.25ZM8.74999 7C8.74999 5.20088 10.2009 3.75 12 3.75C13.7991 3.75 15.25 5.20088 15.25 7C15.25 8.79912 13.7991 10.25 12 10.25C10.2009 10.25 8.74999 8.79912 8.74999 7Z" fill="white"/>
<path fill-rule="evenodd" clip-rule="evenodd" d="M12 13.25C9.98647 13.25 7.78106 13.779 5.97532 14.8567C4.16253 15.9385 2.70357 17.6083 2.33773 19.8838C2.16366 20.9666 3.07263 21.75 3.99999 21.75H20C20.9273 21.75 21.8363 20.9666 21.6622 19.8838C21.2964 17.6083 19.8375 15.9385 18.0247 14.8567C16.2189 13.779 14.0135 13.25 12 13.25ZM3.81872 20.1219C4.09628 18.3955 5.20392 17.0639 6.74402 16.1447C8.29118 15.2214 10.2249 14.75 12 14.75C13.775 14.75 15.7088 15.2214 17.256 16.1447C18.7961 17.0639 19.9037 18.3955 20.1813 20.1219C20.184 20.1388 20.182 20.1482 20.1799 20.1544C20.1774 20.162 20.1715 20.1743 20.1576 20.1889C20.1279 20.2201 20.0724 20.25 20 20.25H3.99999C3.92757 20.25 3.8721 20.2201 3.84243 20.1889C3.82852 20.1743 3.82255 20.162 3.82005 20.1544C3.81801 20.1482 3.816 20.1388 3.81872 20.1219Z" fill="white"/>
</svg>
