<svg width="24" height="24" viewBox="0 0 24 24" fill="none" xmlns="http://www.w3.org/2000/svg">
<path d="M19.3787 2.49989L11 10.8785L10 13.9999L13 13.1212L21.5 4.62121C22.0858 4.03542 22.0858 3.08567 21.5 2.49989C20.9142 1.9141 19.9644 1.9141 19.3787 2.49989Z" fill="white"/>
<path d="M16.5074 3.24987L15.0074 4.74987H5.4C4.96759 4.74987 4.68838 4.75045 4.47588 4.76781C4.27213 4.78446 4.19659 4.81272 4.15951 4.83161C4.01839 4.90352 3.90365 5.01825 3.83175 5.15937C3.81285 5.19646 3.78459 5.272 3.76795 5.47574C3.75058 5.68825 3.75 5.96745 3.75 6.39987V19.5985L7.08398 17.3758C7.20718 17.2937 7.35193 17.2499 7.5 17.2499H18.6C19.0324 17.2499 19.3116 17.2493 19.5241 17.2319C19.7279 17.2153 19.8034 17.187 19.8405 17.1681C19.9816 17.0962 20.0963 16.9815 20.1683 16.8404C20.1871 16.8033 20.2154 16.7277 20.2321 16.524C20.2494 16.3115 20.25 16.0323 20.25 15.5999V7.99251L21.75 6.49251V15.6288C21.75 16.0241 21.75 16.3652 21.7271 16.6461C21.7028 16.9426 21.6494 17.2376 21.5048 17.5213C21.289 17.9447 20.9448 18.2889 20.5215 18.5046C20.2377 18.6492 19.9428 18.7027 19.6463 18.7269C19.3653 18.7499 19.0243 18.7499 18.6289 18.7499H7.72708L3.41603 21.6239C3.18588 21.7773 2.88998 21.7916 2.64611 21.6611C2.40224 21.5306 2.25 21.2765 2.25 20.9999V6.37096C2.24999 5.9756 2.24998 5.63452 2.27293 5.3536C2.29715 5.05709 2.35064 4.76217 2.49524 4.47839C2.71095 4.05502 3.05516 3.71082 3.47852 3.4951C3.76231 3.35051 4.05722 3.29702 4.35373 3.27279C4.63466 3.24984 4.97573 3.24985 5.37109 3.24987L16.5074 3.24987Z" fill="white"/>
</svg>
