<svg width="24" height="24" viewBox="0 0 24 24" fill="none" xmlns="http://www.w3.org/2000/svg">
<path fill-rule="evenodd" clip-rule="evenodd" d="M14.5303 1.9697C14.2797 1.71915 13.8947 1.68193 13.6045 1.86227L13.4873 1.95309L5.4873 9.45309C5.33607 9.59487 5.25001 9.79267 5.25 9.99997V21C5.25 21.4142 5.58579 21.75 6 21.75H19C19.3412 21.75 19.6394 21.5196 19.7256 21.1894L22.0723 12.1943C22.5268 10.452 21.2118 8.74997 19.4111 8.74997H15.2744L16.4229 6.68259C17.0189 5.60946 16.8317 4.27144 15.9639 3.40329L14.5303 1.9697ZM6.75 20.25V10.3242L13.9824 3.54294L14.9033 4.46384C15.2976 4.85844 15.3822 5.46637 15.1113 5.95407L13.3447 9.13571C13.2157 9.36788 13.219 9.65089 13.3535 9.87985C13.4883 10.1089 13.7343 10.25 14 10.25H19.4111C20.2296 10.25 20.8276 11.0235 20.6211 11.8154L18.4209 20.25H6.75ZM2.25 9.99997V21C2.25 21.4142 2.58579 21.75 3 21.75C3.41421 21.75 3.75 21.4142 3.75 21V9.99997C3.75 9.58576 3.41421 9.24997 3 9.24997C2.58579 9.24997 2.25 9.58576 2.25 9.99997Z" fill="white"/>
<path fill-rule="evenodd" clip-rule="evenodd" d="M14.5303 1.96955C14.2441 1.68331 13.7824 1.67587 13.487 1.95273L5.48704 9.45276C5.33581 9.59454 5.25 9.7926 5.25 9.99991V20.9999C5.25 21.4141 5.58579 21.7499 6 21.7499H19C19.3413 21.7499 19.6396 21.5194 19.7257 21.1892L22.0723 12.194C22.5268 10.4517 21.212 8.74988 19.4113 8.74988H15.2746L16.423 6.68287C17.0193 5.60956 16.8318 4.27101 15.9636 3.40281L14.5303 1.96955ZM6.75 20.2499V10.3248L13.9832 3.54371L14.9029 4.46347C15.2976 4.8581 15.3828 5.46654 15.1117 5.9544L13.3444 9.13565C13.2153 9.36794 13.2188 9.65119 13.3536 9.88023C13.4884 10.1093 13.7343 10.2499 14 10.2499H19.4113C20.2298 10.2499 20.8275 11.0234 20.6208 11.8154L18.4206 20.2499H6.75Z" fill="white"/>
<path d="M3.75 9.99988C3.75 9.58567 3.41421 9.24988 3 9.24988C2.58579 9.24988 2.25 9.58567 2.25 9.99988V20.9999C2.25 21.4141 2.58579 21.7499 3 21.7499C3.41421 21.7499 3.75 21.4141 3.75 20.9999V9.99988Z" fill="white"/>
</svg>
