<svg width="24" height="24" viewBox="0 0 24 24" fill="none" xmlns="http://www.w3.org/2000/svg">
<path d="M5.38281 1.81673C5.42308 1.7079 5.577 1.7079 5.61727 1.81673L6.42541 4.00069C6.43807 4.03491 6.46504 4.06188 6.49926 4.07454L8.68322 4.88268C8.79205 4.92295 8.79205 5.07688 8.68322 5.11715L6.49926 5.92529C6.46504 5.93795 6.43807 5.96492 6.42541 5.99914L5.61727 8.1831C5.577 8.29193 5.42308 8.29193 5.38281 8.1831L4.57467 5.99914C4.56201 5.96492 4.53503 5.93795 4.50081 5.92529L2.31685 5.11715C2.20802 5.07688 2.20802 4.92295 2.31685 4.88268L4.50081 4.07454C4.53503 4.06188 4.56201 4.03491 4.57467 4.00069L5.38281 1.81673Z" fill="white"/>
<path d="M10 4.99991C10 4.44763 10.4478 3.99991 11 3.99991H13C13.5523 3.99991 14 4.44763 14 4.99991V19.9999C14 20.5522 13.5523 20.9999 13 20.9999H11C10.4478 20.9999 10 20.5522 10 19.9999V4.99991Z" fill="white"/>
<path d="M3.50004 10.9999C3.50004 10.4476 3.94775 9.99992 4.50004 9.99992H6.50004C7.05232 9.99992 7.50004 10.4476 7.50004 10.9999V19.9999C7.50004 20.5522 7.05232 20.9999 6.50004 20.9999H4.50004C3.94775 20.9999 3.50004 20.5522 3.50004 19.9999V10.9999Z" fill="white"/>
<path d="M17.5 12.9999C16.9478 12.9999 16.5 13.4476 16.5 13.9999V19.9999C16.5 20.5522 16.9478 20.9999 17.5 20.9999H19.5C20.0523 20.9999 20.5 20.5522 20.5 19.9999V13.9999C20.5 13.4476 20.0523 12.9999 19.5 12.9999H17.5Z" fill="white"/>
<path d="M18.6173 4.81673C18.577 4.7079 18.4231 4.7079 18.3828 4.81673L17.5747 7.00069C17.562 7.03491 17.535 7.06188 17.5008 7.07454L15.3169 7.88268C15.208 7.92295 15.208 8.07688 15.3168 8.11715L17.5008 8.92529C17.535 8.93795 17.562 8.96492 17.5747 8.99914L18.3828 11.1831C18.4231 11.2919 18.577 11.2919 18.6173 11.1831L19.4254 8.99914C19.4381 8.96492 19.465 8.93795 19.4993 8.92529L21.6832 8.11715C21.7921 8.07688 21.7921 7.92295 21.6832 7.88268L19.4993 7.07454C19.465 7.06188 19.4381 7.03491 19.4254 7.00069L18.6173 4.81673Z" fill="white"/>
</svg>
