<svg width="24" height="24" viewBox="0 0 24 24" fill="none" xmlns="http://www.w3.org/2000/svg">
<path fill-rule="evenodd" clip-rule="evenodd" d="M12 1.75C6.61522 1.75 2.25 6.11522 2.25 11.5V16C2.25 19.7279 5.27208 22.75 9 22.75H10C10.4142 22.75 10.75 22.4142 10.75 22C10.75 21.5858 10.4142 21.25 10 21.25H9C7.08977 21.25 5.41782 20.2298 4.4993 18.7045C4.66166 18.7344 4.82901 18.75 5 18.75H7.5C7.91421 18.75 8.25 18.4142 8.25 18V12C8.25 11.5858 7.91421 11.25 7.5 11.25H3.75372C3.88588 6.8093 7.52728 3.25 12 3.25C16.4727 3.25 20.1141 6.8093 20.2463 11.25H16.5C16.0858 11.25 15.75 11.5858 15.75 12V18C15.75 18.4142 16.0858 18.75 16.5 18.75H19C20.5188 18.75 21.75 17.5188 21.75 16V11.5C21.75 6.11522 17.3848 1.75 12 1.75ZM20.25 12.75H17.25V17.25H19C19.6904 17.25 20.25 16.6904 20.25 16V12.75ZM3.75 12.75V16C3.75 16.6904 4.30964 17.25 5 17.25H6.75V12.75H3.75Z" fill="white"/>
</svg>
