<svg width="24" height="24" viewBox="0 0 24 24" fill="none" xmlns="http://www.w3.org/2000/svg">
<path d="M8 2.25C9.68016 2.25 11.1555 3.12299 12 4.43945C12.8445 3.12299 14.3198 2.25 16 2.25H16.1738C17.5966 2.25 18.75 3.40344 18.75 4.82617V5C18.75 5.45058 18.6394 5.87468 18.4473 6.25H20.5C21.4665 6.25 22.25 7.0335 22.25 8V11.5C22.25 11.9142 21.9142 12.25 21.5 12.25H20.75V20C20.75 20.9665 19.9665 21.75 19 21.75H5C4.0335 21.75 3.25 20.9665 3.25 20V12.25H2.5C2.08579 12.25 1.75 11.9142 1.75 11.5V8C1.75 7.0335 2.5335 6.25 3.5 6.25H5.55273C5.36065 5.87468 5.25 5.45058 5.25 5V4.90918C5.25 3.4406 6.4406 2.25 7.90918 2.25H8ZM4.75 20C4.75 20.1381 4.86193 20.25 5 20.25H11.25V12.25H4.75V20ZM12.75 20.25H19C19.1381 20.25 19.25 20.1381 19.25 20V12.25H12.75V20.25ZM3.5 7.75C3.36193 7.75 3.25 7.86193 3.25 8V10.75H11.25V7.75H3.5ZM12.75 10.75H20.75V8C20.75 7.86193 20.6381 7.75 20.5 7.75H12.75V10.75ZM7.90918 3.75C7.26903 3.75 6.75 4.26903 6.75 4.90918V5C6.75 5.69036 7.30964 6.25 8 6.25H11.1621C10.8235 4.81675 9.53672 3.75 8 3.75H7.90918ZM16 3.75C14.4633 3.75 13.1765 4.81675 12.8379 6.25H16C16.6904 6.25 17.25 5.69036 17.25 5V4.82617C17.25 4.23187 16.7681 3.75 16.1738 3.75H16Z" fill="white"/>
</svg>
