<svg width="24" height="24" viewBox="0 0 24 24" fill="none" xmlns="http://www.w3.org/2000/svg">
<path d="M4 2.25C3.58579 2.25 3.25 2.58579 3.25 3V21C3.25 21.1989 3.32902 21.3897 3.46967 21.5303C3.61032 21.671 3.80109 21.75 4 21.75H7C7.41421 21.75 7.75 21.4142 7.75 21C7.75 20.5858 7.41421 20.25 7 20.25H4.75L4.75 3.75L7 3.75C7.41421 3.75 7.75 3.41421 7.75 3C7.75 2.58579 7.41421 2.25 7 2.25H4Z" fill="white"/>
<path d="M7 12.7501C6.58579 12.7501 6.25 12.4143 6.25 12.0001C6.25 11.5858 6.58579 11.2501 7 11.2501L19.1894 11.2501L14.4697 6.53033C14.1768 6.23743 14.1768 5.76256 14.4697 5.46967C14.7626 5.17678 15.2374 5.17678 15.5303 5.46967L21.5303 11.4697C21.8232 11.7626 21.8232 12.2375 21.5303 12.5304L15.5303 18.5304C15.2374 18.8233 14.7626 18.8233 14.4697 18.5304C14.1768 18.2375 14.1768 17.7626 14.4697 17.4697L19.1893 12.7501L7 12.7501Z" fill="white"/>
</svg>
