<svg width="24" height="24" viewBox="0 0 24 24" fill="none" xmlns="http://www.w3.org/2000/svg">
<path fill-rule="evenodd" clip-rule="evenodd" d="M12 1.25C12.2841 1.25 12.5438 1.4105 12.6708 1.66459L15.4974 7.3177L21.6141 8.25872C21.8864 8.30062 22.1138 8.48848 22.2064 8.748C22.299 9.00752 22.2418 9.29692 22.0575 9.50172L17.7954 14.2374L18.7413 20.386C18.7839 20.6631 18.6684 20.9409 18.4418 21.1061C18.2152 21.2712 17.9154 21.2962 17.6646 21.1708L12 18.3385L6.33542 21.1708C6.08462 21.2962 5.78481 21.2712 5.55822 21.1061C5.33162 20.9409 5.2161 20.6631 5.25874 20.386L6.20467 14.2374L1.94254 9.50172C1.75822 9.29692 1.70104 9.00752 1.79362 8.748C1.8862 8.48848 2.11363 8.30062 2.38597 8.25872L8.50264 7.3177L11.3292 1.66459C11.4562 1.4105 11.7159 1.25 12 1.25ZM12 3.67705L9.67083 8.33541C9.56205 8.55299 9.35449 8.70429 9.11406 8.74128L3.9862 9.53018L7.55749 13.4983C7.70804 13.6656 7.77551 13.8916 7.74129 14.114L6.96183 19.1806L11.6646 16.8292C11.8757 16.7236 12.1243 16.7236 12.3354 16.8292L17.0382 19.1806L16.2587 14.114C16.2245 13.8916 16.292 13.6656 16.4425 13.4983L20.0138 9.53018L14.886 8.74128C14.6455 8.70429 14.438 8.55299 14.3292 8.33541L12 3.67705Z" fill="white"/>
</svg>
