<svg width="24" height="24" viewBox="0 0 24 24" fill="none" xmlns="http://www.w3.org/2000/svg">
<path d="M2.46967 1.46967C2.76256 1.17678 3.23744 1.17678 3.53033 1.46967L10.909 8.84834L9.84834 9.909L4.69549 4.75615C4.61414 4.75879 4.5418 4.76256 4.47588 4.76795C4.27213 4.78459 4.19659 4.81285 4.15951 4.83175C4.01839 4.90365 3.90365 5.01839 3.83175 5.15951C3.81285 5.19659 3.78459 5.27213 3.76795 5.47588C3.75059 5.68838 3.75 5.96759 3.75 6.4V19.5986L7.08398 17.376C7.20718 17.2938 7.35193 17.25 7.5 17.25H17.1893L14.091 14.1516L15.1516 13.091L21.5303 19.4697C21.8232 19.7626 21.8232 20.2374 21.5303 20.5303C21.2374 20.8232 20.7626 20.8232 20.4697 20.5303L18.6893 18.75C18.6693 18.75 18.6492 18.75 18.6289 18.75H7.72708L3.41603 21.624C3.18588 21.7775 2.88998 21.7918 2.64611 21.6613C2.40224 21.5307 2.25 21.2766 2.25 21V6.37109C2.24999 5.97574 2.24998 5.63465 2.27293 5.35373C2.29715 5.05722 2.35064 4.76231 2.49524 4.47852C2.70602 4.06484 3.03947 3.72674 3.44959 3.51025L2.46967 2.53033C2.17678 2.23744 2.17678 1.76256 2.46967 1.46967Z" fill="white"/>
<path d="M11 10.8787L19.3787 2.50001C19.9645 1.91422 20.9142 1.91422 21.5 2.50001C22.0858 3.08579 22.0858 4.03554 21.5 4.62133L13 13.1213L10 14L11 10.8787Z" fill="white"/>
<path d="M21.5672 17.3851C21.6656 17.1437 21.7067 16.8956 21.7271 16.6463C21.75 16.3654 21.75 16.0243 21.75 15.629V6.49264L20.25 7.99264V15.6C20.25 15.78 20.2499 15.9334 20.2485 16.0665L21.5672 17.3851Z" fill="white"/>
<path d="M8.93203 4.75H15.0074L16.5074 3.25H7.43203L8.93203 4.75Z" fill="white"/>
</svg>
