<svg width="24" height="24" viewBox="0 0 24 24" fill="none" xmlns="http://www.w3.org/2000/svg">
<path d="M7.5 8.25C7.08579 8.25 6.75 8.58579 6.75 9C6.75 9.41421 7.08579 9.75 7.5 9.75H16.5C16.9142 9.75 17.25 9.41421 17.25 9C17.25 8.58579 16.9142 8.25 16.5 8.25H7.5Z" fill="white"/>
<path d="M7.5 12.25C7.08579 12.25 6.75 12.5858 6.75 13C6.75 13.4142 7.08579 13.75 7.5 13.75H16.5C16.9142 13.75 17.25 13.4142 17.25 13C17.25 12.5858 16.9142 12.25 16.5 12.25H7.5Z" fill="white"/>
<path d="M6.75 17C6.75 16.5858 7.08579 16.25 7.5 16.25H13.5C13.9142 16.25 14.25 16.5858 14.25 17C14.25 17.4142 13.9142 17.75 13.5 17.75H7.5C7.08579 17.75 6.75 17.4142 6.75 17Z" fill="white"/>
<path fill-rule="evenodd" clip-rule="evenodd" d="M12 1.25C10.7412 1.25 9.67998 2.09575 9.35352 3.25H4.5C3.5335 3.25 2.75 4.0335 2.75 5V20.5C2.75 21.4665 3.5335 22.25 4.5 22.25H19.5C20.4665 22.25 21.25 21.4665 21.25 20.5V5C21.25 4.0335 20.4665 3.25 19.5 3.25H14.6465C14.32 2.09575 13.2588 1.25 12 1.25ZM10.75 4C10.75 3.30964 11.3096 2.75 12 2.75C12.6904 2.75 13.25 3.30964 13.25 4C13.25 4.41421 13.5858 4.75 14 4.75H19.5C19.6381 4.75 19.75 4.86193 19.75 5V20.5C19.75 20.6381 19.6381 20.75 19.5 20.75H4.5C4.36193 20.75 4.25 20.6381 4.25 20.5V5C4.25 4.86193 4.36193 4.75 4.5 4.75H10C10.4142 4.75 10.75 4.41421 10.75 4Z" fill="white"/>
</svg>
