<svg width="24" height="24" viewBox="0 0 24 24" fill="none" xmlns="http://www.w3.org/2000/svg">
<path fill-rule="evenodd" clip-rule="evenodd" d="M7.49996 3.25C5.4289 3.25 3.74996 4.92893 3.74996 7C3.74996 9.07107 5.4289 10.75 7.49996 10.75C9.57103 10.75 11.25 9.07107 11.25 7C11.25 4.92893 9.57103 3.25 7.49996 3.25ZM5.24996 7C5.24996 5.75736 6.25732 4.75 7.49996 4.75C8.7426 4.75 9.74996 5.75736 9.74996 7C9.74996 8.24264 8.7426 9.25 7.49996 9.25C6.25732 9.25 5.24996 8.24264 5.24996 7Z" fill="white"/>
<path fill-rule="evenodd" clip-rule="evenodd" d="M16.5 3.25C14.4289 3.25 12.75 4.92893 12.75 7C12.75 9.07107 14.4289 10.75 16.5 10.75C18.571 10.75 20.25 9.07107 20.25 7C20.25 4.92893 18.571 3.25 16.5 3.25ZM14.25 7C14.25 5.75736 15.2573 4.75 16.5 4.75C17.7426 4.75 18.75 5.75736 18.75 7C18.75 8.24264 17.7426 9.25 16.5 9.25C15.2573 9.25 14.25 8.24264 14.25 7Z" fill="white"/>
<path fill-rule="evenodd" clip-rule="evenodd" d="M2.69189 14.5972C3.63627 13.0495 5.21937 11.75 7.74996 11.75C10.2806 11.75 11.8637 13.0495 12.808 14.5972C13.7287 16.106 14.0563 17.8597 14.1767 18.9208C14.2948 19.9621 13.4505 20.75 12.5 20.75H2.99996C2.04943 20.75 1.20508 19.9621 1.32321 18.9208C1.44359 17.8597 1.7712 16.106 2.69189 14.5972ZM3.97232 15.3785C3.21933 16.6125 2.92465 18.1114 2.81365 19.0899C2.80876 19.1331 2.82087 19.1639 2.84666 19.191C2.87566 19.2214 2.92741 19.25 2.99996 19.25H12.5C12.5725 19.25 12.6243 19.2214 12.6533 19.191C12.6791 19.1639 12.6912 19.1331 12.6863 19.0899C12.5753 18.1114 12.2806 16.6125 11.5276 15.3785C10.7983 14.1833 9.65632 13.25 7.74996 13.25C5.84361 13.25 4.70163 14.1833 3.97232 15.3785Z" fill="white"/>
<path d="M14.7385 13.481C15.1708 13.336 15.6702 13.25 16.25 13.25C18.1563 13.25 19.2983 14.1833 20.0276 15.3785C20.7806 16.6125 21.0753 18.1114 21.1863 19.0899C21.1912 19.1331 21.1791 19.1639 21.1533 19.191C21.1243 19.2214 21.0725 19.25 21 19.25H16C15.5858 19.25 15.25 19.5858 15.25 20C15.25 20.4142 15.5858 20.75 16 20.75H21C21.9505 20.75 22.7948 19.9621 22.6767 18.9208C22.5563 17.8597 22.2287 16.106 21.308 14.5972C20.3637 13.0495 18.7806 11.75 16.25 11.75C15.5194 11.75 14.8579 11.8588 14.2615 12.0588C13.8687 12.1906 13.6572 12.6157 13.7889 13.0084C13.9207 13.4011 14.3458 13.6127 14.7385 13.481Z" fill="white"/>
</svg>
