<svg width="24" height="24" viewBox="0 0 24 24" fill="none" xmlns="http://www.w3.org/2000/svg">
<path d="M8.00005 1.99994L8.43015 1.38552C8.09081 1.14798 7.62316 1.23051 7.38563 1.56985C7.1493 1.90746 7.22979 2.37208 7.56481 2.61073L7.57196 2.61611C7.58102 2.62305 7.59788 2.63627 7.62106 2.65582C7.66753 2.695 7.73861 2.75894 7.82279 2.84779C7.99178 3.02617 8.20845 3.29958 8.38717 3.66978C8.73277 4.38567 8.97583 5.54125 8.30371 7.22151C8.14987 7.60609 8.33693 8.04257 8.72151 8.19641C9.1061 8.35025 9.54258 8.16319 9.69642 7.77861C10.5244 5.70878 10.2674 4.11432 9.738 3.01766C9.47921 2.4816 9.16461 2.08311 8.91172 1.81617C8.78495 1.68236 8.67244 1.58028 8.58804 1.50911C8.54579 1.47348 8.5104 1.44544 8.48358 1.42491C8.47016 1.41464 8.45886 1.40623 8.44989 1.39968L8.4382 1.39122L8.43371 1.38802L8.43181 1.38668L8.43015 1.38552C8.42974 1.38523 8.43015 1.38552 8.00005 1.99994Z" fill="white"/>
<path fill-rule="evenodd" clip-rule="evenodd" d="M14.0001 2.74998C12.4814 2.74998 11.2501 3.9812 11.2501 5.49998C11.2501 7.01876 12.4814 8.24998 14.0001 8.24998C15.5189 8.24998 16.7501 7.01876 16.7501 5.49998C16.7501 3.9812 15.5189 2.74998 14.0001 2.74998ZM12.7501 5.49998C12.7501 4.80963 13.3098 4.24998 14.0001 4.24998C14.6905 4.24998 15.2501 4.80963 15.2501 5.49998C15.2501 6.19034 14.6905 6.74998 14.0001 6.74998C13.3098 6.74998 12.7501 6.19034 12.7501 5.49998Z" fill="white"/>
<path fill-rule="evenodd" clip-rule="evenodd" d="M4.083 8.23095C4.28187 7.26978 5.46018 6.90229 6.17017 7.58001L15.8866 16.8548C16.5854 17.5218 16.2958 18.6955 15.3669 18.9609L3.00054 22.4942C2.09723 22.7522 1.24272 21.959 1.43306 21.039L4.083 8.23095ZM5.46056 8.97632L2.98565 20.9384L14.5352 17.6385L5.46056 8.97632Z" fill="white"/>
<path fill-rule="evenodd" clip-rule="evenodd" d="M15.7501 14C15.7501 12.4812 16.9814 11.25 18.5001 11.25C20.0189 11.25 21.2501 12.4812 21.2501 14C21.2501 15.5188 20.0189 16.75 18.5001 16.75C16.9814 16.75 15.7501 15.5188 15.7501 14ZM18.5001 12.75C17.8098 12.75 17.2501 13.3096 17.2501 14C17.2501 14.6903 17.8098 15.25 18.5001 15.25C19.1905 15.25 19.7501 14.6903 19.7501 14C19.7501 13.3096 19.1905 12.75 18.5001 12.75Z" fill="white"/>
<path d="M21.666 10.6715L21.6439 10.6612C21.6224 10.6514 21.5866 10.6357 21.5375 10.6157C21.439 10.5758 21.2874 10.5192 21.0893 10.4598C20.6925 10.3407 20.1137 10.2117 19.4047 10.1805C17.9988 10.1186 16.0518 10.4387 13.9565 12.0451C13.6278 12.2971 13.157 12.2349 12.905 11.9062C12.653 11.5774 12.7152 11.1067 13.0439 10.8546C15.4485 9.01115 17.7515 8.60628 19.4706 8.68194C20.3241 8.7195 21.0265 8.87487 21.5203 9.02302C21.7676 9.09718 21.9636 9.16987 22.1015 9.22582C22.1705 9.25381 22.225 9.27767 22.2643 9.2955C22.2839 9.30442 22.2997 9.31184 22.3117 9.31753L22.3266 9.32473L22.3318 9.3273L22.3339 9.32832C22.3343 9.32853 22.3355 9.32916 22.0001 9.99998L21.6675 10.6722L21.666 10.6715Z" fill="white"/>
</svg>
