<svg width="24" height="24" viewBox="0 0 24 24" fill="none" xmlns="http://www.w3.org/2000/svg">
<path d="M8 8C8 8.55228 7.55228 9 7 9C6.44772 9 6 8.55228 6 8C6 7.44772 6.44772 7 7 7C7.55228 7 8 7.44772 8 8Z" fill="white"/>
<path d="M7 13C7.55228 13 8 12.5523 8 12C8 11.4477 7.55228 11 7 11C6.44772 11 6 11.4477 6 12C6 12.5523 6.44772 13 7 13Z" fill="white"/>
<path d="M8 16C8 16.5523 7.55228 17 7 17C6.44772 17 6 16.5523 6 16C6 15.4477 6.44772 15 7 15C7.55228 15 8 15.4477 8 16Z" fill="white"/>
<path d="M9.5 7.25C9.08579 7.25 8.75 7.58579 8.75 8C8.75 8.41421 9.08579 8.75 9.5 8.75H17.5C17.9142 8.75 18.25 8.41421 18.25 8C18.25 7.58579 17.9142 7.25 17.5 7.25H9.5Z" fill="white"/>
<path d="M8.75 12C8.75 11.5858 9.08579 11.25 9.5 11.25H17.5C17.9142 11.25 18.25 11.5858 18.25 12C18.25 12.4142 17.9142 12.75 17.5 12.75H9.5C9.08579 12.75 8.75 12.4142 8.75 12Z" fill="white"/>
<path d="M9.5 15.25C9.08579 15.25 8.75 15.5858 8.75 16C8.75 16.4142 9.08579 16.75 9.5 16.75H17.5C17.9142 16.75 18.25 16.4142 18.25 16C18.25 15.5858 17.9142 15.25 17.5 15.25H9.5Z" fill="white"/>
<path fill-rule="evenodd" clip-rule="evenodd" d="M2.25 4C2.25 3.0335 3.0335 2.25 4 2.25H20C20.9665 2.25 21.75 3.0335 21.75 4V20C21.75 20.9665 20.9665 21.75 20 21.75H4C3.0335 21.75 2.25 20.9665 2.25 20V4ZM4 3.75C3.86193 3.75 3.75 3.86193 3.75 4V20C3.75 20.1381 3.86193 20.25 4 20.25H20C20.1381 20.25 20.25 20.1381 20.25 20V4C20.25 3.86193 20.1381 3.75 20 3.75H4Z" fill="white"/>
</svg>
