<svg width="24" height="24" viewBox="0 0 24 24" fill="none" xmlns="http://www.w3.org/2000/svg">
<path fill-rule="evenodd" clip-rule="evenodd" d="M6.25524 6.75C6.38613 3.69035 8.90803 1.25 11.9999 1.25C15.0918 1.25 17.6137 3.69035 17.7446 6.75H20.8469C21.9119 6.75 22.7299 7.69323 22.5793 8.74749L20.865 20.7475C20.7419 21.6096 20.0035 22.25 19.1326 22.25H4.86725C3.99637 22.25 3.25801 21.6096 3.13484 20.7475L1.42051 8.74749C1.26989 7.69323 2.08795 6.75 3.15292 6.75H6.25524ZM7.75713 6.75C7.88654 4.51916 9.73662 2.75 11.9999 2.75C14.2632 2.75 16.1133 4.51916 16.2427 6.75H7.75713ZM6.2499 8.25V10C6.2499 10.4142 6.58569 10.75 6.9999 10.75C7.41412 10.75 7.7499 10.4142 7.7499 10V8.25H16.2499V10C16.2499 10.4142 16.5857 10.75 16.9999 10.75C17.4141 10.75 17.7499 10.4142 17.7499 10V8.25H20.8469C20.999 8.25 21.1159 8.38475 21.0944 8.53535L19.3801 20.5354C19.3625 20.6585 19.257 20.75 19.1326 20.75H4.86725C4.74284 20.75 4.63736 20.6585 4.61977 20.5354L2.90543 8.53536C2.88391 8.38475 3.00078 8.25 3.15292 8.25H6.2499Z" fill="white"/>
</svg>
