<svg width="24" height="24" viewBox="0 0 24 24" fill="none" xmlns="http://www.w3.org/2000/svg">
<path d="M17.5 13.5C18.3284 13.5 19 12.8284 19 12C19 11.1716 18.3284 10.5 17.5 10.5C16.6716 10.5 16 11.1716 16 12C16 12.8284 16.6716 13.5 17.5 13.5Z" fill="white"/>
<path fill-rule="evenodd" clip-rule="evenodd" d="M2.25 4C2.25 3.0335 3.0335 2.25 4 2.25H19C19.9665 2.25 20.75 3.0335 20.75 4V6.75H21C21.9665 6.75 22.75 7.5335 22.75 8.5V15.5C22.75 16.4665 21.9665 17.25 21 17.25H20.75V20C20.75 20.9665 19.9665 21.75 19 21.75H4C3.0335 21.75 2.25 20.9665 2.25 20V4ZM19.25 4V6.75H14C13.0335 6.75 12.25 7.5335 12.25 8.5V15.5C12.25 16.4665 13.0335 17.25 14 17.25H19.25V20C19.25 20.1381 19.1381 20.25 19 20.25H4C3.86193 20.25 3.75 20.1381 3.75 20V4C3.75 3.86193 3.86193 3.75 4 3.75H19C19.1381 3.75 19.25 3.86193 19.25 4ZM21 15.75H14C13.8619 15.75 13.75 15.6381 13.75 15.5V8.5C13.75 8.36193 13.8619 8.25 14 8.25H21C21.1381 8.25 21.25 8.36193 21.25 8.5V15.5C21.25 15.6381 21.1381 15.75 21 15.75Z" fill="white"/>
</svg>
