<svg width="24" height="24" viewBox="0 0 24 24" fill="none" xmlns="http://www.w3.org/2000/svg">
<path fill-rule="evenodd" clip-rule="evenodd" d="M5 2.25C4.58579 2.25 4.25 2.58579 4.25 3V4.25H2C1.58579 4.25 1.25 4.58579 1.25 5V8C1.25 10.1678 2.70154 11.9948 4.68465 12.5653C5.66422 15.3589 8.1987 17.4212 11.25 17.7142V20.25H9C8.58579 20.25 8.25 20.5858 8.25 21C8.25 21.4142 8.58579 21.75 9 21.75H15C15.4142 21.75 15.75 21.4142 15.75 21C15.75 20.5858 15.4142 20.25 15 20.25H12.75V17.7142C15.8013 17.4212 18.3358 15.3589 19.3154 12.5653C21.2985 11.9948 22.75 10.1678 22.75 8V5C22.75 4.58579 22.4142 4.25 22 4.25H19.75V3C19.75 2.58579 19.4142 2.25 19 2.25H5ZM19.75 5.75H21.25V8C21.25 9.16573 20.6359 10.1891 19.7129 10.7627C19.7375 10.5118 19.75 10.2574 19.75 10V5.75ZM18.25 3.75H5.75V10C5.75 13.4514 8.5476 16.2494 11.9989 16.25H12C15.4518 16.25 18.25 13.4518 18.25 10V3.75ZM4.25 5.75H2.75V8C2.75 9.16573 3.36415 10.1891 4.28705 10.7627C4.26254 10.5118 4.25 10.2574 4.25 10V5.75Z" fill="white"/>
</svg>
