<svg width="24" height="24" viewBox="0 0 24 24" fill="none" xmlns="http://www.w3.org/2000/svg">
<path d="M11.0933 2.79456C13.2231 2.5848 15.3596 3.11998 17.139 4.30892C18.9184 5.49786 20.2305 7.267 20.8517 9.31488C21.4729 11.3628 21.3648 13.5627 20.5459 15.5398C19.7269 17.517 18.2478 19.149 16.3604 20.1578C14.4731 21.1666 12.2943 21.4898 10.1954 21.0723C8.0965 20.6548 6.20728 19.5224 4.84965 17.8682C3.49203 16.2139 2.75 14.1401 2.75 12C2.75 11.5858 2.41421 11.25 2 11.25C1.58579 11.25 1.25 11.5858 1.25 12C1.25 14.4871 2.11236 16.8972 3.69014 18.8197C5.26792 20.7423 7.4635 22.0583 9.90278 22.5435C12.3421 23.0287 14.8741 22.6531 17.0675 21.4807C19.2609 20.3083 20.9799 18.4116 21.9317 16.1139C22.8835 13.8161 23.0091 11.2594 22.2871 8.87946C21.5651 6.49948 20.0403 4.44346 17.9724 3.06172C15.9045 1.67998 13.4214 1.05801 10.9463 1.30178C8.63279 1.52964 6.46002 2.50073 4.75 4.06275L4.75 2.75003C4.75 2.33581 4.41421 2.00003 4 2.00003C3.58578 2.00003 3.25 2.33582 3.25 2.75003L3.25 5.85788C3.25 6.27209 3.58579 6.60788 4 6.60788H7.24999C7.6642 6.60788 7.99999 6.27209 7.99999 5.85788C7.99999 5.44367 7.6642 5.10788 7.24999 5.10788H5.83063C7.29128 3.80035 9.13363 2.98757 11.0933 2.79456Z" fill="white"/>
<path d="M12.75 5C12.75 4.58579 12.4142 4.25 12 4.25C11.5858 4.25 11.25 4.58579 11.25 5V12C11.25 12.4142 11.5858 12.75 12 12.75H16C16.4142 12.75 16.75 12.4142 16.75 12C16.75 11.5858 16.4142 11.25 16 11.25H12.75V5Z" fill="white"/>
</svg>
