<svg width="24" height="24" viewBox="0 0 24 24" fill="none" xmlns="http://www.w3.org/2000/svg">
<path fill-rule="evenodd" clip-rule="evenodd" d="M2.52628 9.41804C2.82086 9.17774 3.25558 9.1952 3.53019 9.4698L5.53019 11.4698C5.82296 11.7627 5.82304 12.2375 5.53019 12.5303C5.23733 12.8231 4.76252 12.8231 4.46964 12.5303L3.74991 11.8106V12.0001C3.74995 13.6316 4.23413 15.2265 5.14054 16.5831C6.04704 17.9397 7.33527 18.9977 8.84269 19.6221C10.3501 20.2465 12.009 20.4101 13.6093 20.0919C15.2096 19.7735 16.6801 18.9878 17.8339 17.8341C18.1268 17.5412 18.6015 17.5412 18.8944 17.8341C19.1869 18.127 19.1872 18.6019 18.8944 18.8946C17.531 20.2581 15.7934 21.1863 13.9023 21.5626C12.011 21.9388 10.05 21.7458 8.26847 21.0079C6.48716 20.27 4.96475 19.0202 3.89347 17.4171C2.88918 15.914 2.32358 14.1631 2.25675 12.3614L2.24991 12.0001V11.8106L1.53019 12.5303C1.23733 12.8231 0.762521 12.8231 0.469639 12.5303C0.176766 12.2375 0.176808 11.7627 0.469639 11.4698L2.46964 9.4698L2.52628 9.41804ZM10.0976 2.43758C11.9887 2.06141 13.9489 2.25446 15.7304 2.99226C17.5119 3.73019 19.035 4.97978 20.1064 6.58308C21.1777 8.18645 21.7499 10.0717 21.7499 12.0001V12.1895L22.4696 11.4698C22.7625 11.1771 23.2373 11.177 23.5302 11.4698C23.8229 11.7627 23.8229 12.2375 23.5302 12.5303L21.5302 14.5303C21.3896 14.6708 21.1986 14.75 20.9999 14.7501C20.8011 14.75 20.6102 14.6709 20.4696 14.5303L18.4696 12.5303C18.1768 12.2375 18.1769 11.7627 18.4696 11.4698C18.7625 11.1771 19.2373 11.177 19.5302 11.4698L20.2499 12.1895V12.0001C20.2499 10.3685 19.7657 8.77369 18.8593 7.41707C17.9528 6.06045 16.6645 5.00244 15.1571 4.378C13.6498 3.75367 11.9907 3.59008 10.3905 3.90828C8.79035 4.22662 7.31964 5.01244 6.16593 6.16609C5.87302 6.4588 5.39821 6.45892 5.10538 6.16609C4.8127 5.87325 4.81272 5.3984 5.10538 5.10554C6.46887 3.74212 8.20641 2.81379 10.0976 2.43758Z" fill="white"/>
</svg>
