<svg width="24" height="24" viewBox="0 0 24 24" fill="none" xmlns="http://www.w3.org/2000/svg">
<path d="M7.53033 1.96967C7.23744 1.67678 6.76256 1.67678 6.46967 1.96967C6.17678 2.26256 6.17678 2.73744 6.46967 3.03033L7.18934 3.75H3.5C2.25736 3.75 1.25 4.75736 1.25 6V18C1.25 19.2426 2.25736 20.25 3.5 20.25H12C12.4142 20.25 12.75 19.9142 12.75 19.5C12.75 19.0858 12.4142 18.75 12 18.75H3.5C3.08579 18.75 2.75 18.4142 2.75 18V6C2.75 5.58579 3.08579 5.25 3.5 5.25H7.18934L6.46967 5.96967C6.17678 6.26256 6.17678 6.73744 6.46967 7.03033C6.76256 7.32322 7.23744 7.32322 7.53033 7.03033L9.53033 5.03033C9.82322 4.73744 9.82322 4.26256 9.53033 3.96967L7.53033 1.96967Z" fill="white"/>
<path d="M12 3.75C11.5858 3.75 11.25 4.08579 11.25 4.5C11.25 4.91421 11.5858 5.25 12 5.25H20.5C20.9142 5.25 21.25 5.58579 21.25 6V18C21.25 18.4142 20.9142 18.75 20.5 18.75H16.8107L18.0303 17.5303C18.3232 17.2374 18.3232 16.7626 18.0303 16.4697C17.7374 16.1768 17.2626 16.1768 16.9697 16.4697L14.4697 18.9697C14.1768 19.2626 14.1768 19.7374 14.4697 20.0303L16.9697 22.5303C17.2626 22.8232 17.7374 22.8232 18.0303 22.5303C18.3232 22.2374 18.3232 21.7626 18.0303 21.4697L16.8107 20.25H20.5C21.7426 20.25 22.75 19.2426 22.75 18V6C22.75 4.75736 21.7426 3.75 20.5 3.75H12Z" fill="white"/>
<path fill-rule="evenodd" clip-rule="evenodd" d="M12 8.25C9.92893 8.25 8.25 9.92893 8.25 12C8.25 14.0711 9.92893 15.75 12 15.75C14.0711 15.75 15.75 14.0711 15.75 12C15.75 9.92893 14.0711 8.25 12 8.25ZM9.75 12C9.75 10.7574 10.7574 9.75 12 9.75C13.2426 9.75 14.25 10.7574 14.25 12C14.25 13.2426 13.2426 14.25 12 14.25C10.7574 14.25 9.75 13.2426 9.75 12Z" fill="white"/>
</svg>
