<svg width="24" height="24" viewBox="0 0 24 24" fill="none" xmlns="http://www.w3.org/2000/svg">
<path fill-rule="evenodd" clip-rule="evenodd" d="M10.634 2.84911L10.1809 4.07272C9.55223 5.77035 7.79844 6.77619 6.01278 6.47032L4.72016 6.2489C4.15571 6.9556 3.69327 7.74591 3.35452 8.59779L4.1923 9.60024C5.35423 10.9906 5.35423 13.0094 4.1923 14.3998L3.35452 15.4022C3.69327 16.2541 4.15571 17.0444 4.72016 17.7511L6.01279 17.5297C7.79845 17.2238 9.55223 18.2297 10.1809 19.9273L10.634 21.1509C11.0794 21.2162 11.5355 21.25 12 21.25C12.4646 21.25 12.9208 21.2161 13.3663 21.1508L13.8194 19.9273C14.4481 18.2297 16.2018 17.2238 17.9875 17.5297L19.2799 17.7511C19.8443 17.0443 20.3068 16.2539 20.6456 15.402L19.808 14.3998C18.6461 13.0094 18.6461 10.9906 19.808 9.60024L20.6456 8.59803C20.3068 7.74608 19.8443 6.9557 19.2799 6.24894L17.9875 6.47032C16.2018 6.77619 14.4481 5.77034 13.8194 4.07272L13.3663 2.84915C12.9208 2.78387 12.4646 2.75 12 2.75C11.5355 2.75 11.0794 2.78385 10.634 2.84911ZM9.93928 1.44582C10.6069 1.31723 11.2959 1.25 12 1.25C12.7042 1.25 13.3933 1.31726 14.0611 1.44589L14.4758 1.52579L15.2261 3.55183C15.6026 4.56858 16.6563 5.17651 17.7342 4.99185L19.8662 4.62666L20.1429 4.94319C21.0443 5.97403 21.7521 7.17843 22.2089 8.50018L22.3474 8.90083L20.959 10.5621C20.2624 11.3956 20.2624 12.6044 20.959 13.4379L22.3474 15.0992L22.2089 15.4998C21.7521 16.8216 21.0443 18.026 20.1429 19.0568L19.8662 19.3733L17.7342 19.0081C16.6563 18.8235 15.6026 19.4314 15.2261 20.4482L14.4758 22.4742L14.061 22.5541C13.3933 22.6827 12.7042 22.75 12 22.75C11.2959 22.75 10.6069 22.6828 9.93928 22.5542L9.52449 22.4743L8.77421 20.4482C8.3977 19.4314 7.34403 18.8235 6.26604 19.0081L4.13387 19.3734L3.85708 19.0569C2.95574 18.0261 2.24795 16.8218 1.79118 15.5001L1.65271 15.0994L3.04131 13.4379C3.73789 12.6044 3.73789 11.3956 3.04132 10.5621L1.65271 8.90057L1.79118 8.49991C2.24795 7.17824 2.95574 5.97392 3.85708 4.94315L4.13387 4.62662L6.26604 4.99185C7.34403 5.17651 8.3977 4.56858 8.77421 3.55183L9.52449 1.52571L9.93928 1.44582ZM12 9.25C10.4813 9.25 9.25004 10.4812 9.25004 12C9.25004 13.5188 10.4813 14.75 12 14.75C13.5188 14.75 14.75 13.5188 14.75 12C14.75 10.4812 13.5188 9.25 12 9.25ZM7.75004 12C7.75004 9.65279 9.65283 7.75 12 7.75C14.3472 7.75 16.25 9.65279 16.25 12C16.25 14.3472 14.3472 16.25 12 16.25C9.65283 16.25 7.75004 14.3472 7.75004 12Z" fill="white"/>
</svg>
