<svg xmlns="http://www.w3.org/2000/svg" viewBox="0 0 40 40" fill="none">
  <rect width="40" height="40" rx="8" fill="#FF4785"/>
  <path d="M12 28V12h4.5c1.6 0 2.9.4 3.8 1.2.9.8 1.4 1.9 1.4 3.3 0 .9-.2 1.7-.7 2.3-.4.6-1 1-1.8 1.3.9.2 1.6.7 2.1 1.4.5.7.8 1.5.8 2.5 0 1.5-.5 2.7-1.5 3.5-1 .8-2.3 1.3-4 1.3H12zm3.2-9.4h1.5c.7 0 1.3-.2 1.7-.5.4-.4.6-.9.6-1.5 0-.7-.2-1.2-.6-1.5-.4-.4-1-.5-1.7-.5h-1.5v4zm0 6.8h1.8c.8 0 1.4-.2 1.8-.6.4-.4.7-1 .7-1.7s-.2-1.2-.7-1.6c-.4-.4-1-.6-1.8-.6h-1.8v4.5zM28 28l-4-16h3.2l2.5 11.5L28 28z" fill="white"/>
</svg>
